# WaveFront *.obj file
# Vertices: 130
# Triangles : 260

v -6.0000000000000009e-01 2.4000000000000004e+00 7.3478807948841202e-17
v -5.8771796475149674e-01 2.4000000000000004e+00 1.2077911205319612e-01
v -5.5137468697213843e-01 2.4000000000000004e+00 2.3661351306799119e-01
v -4.9245806472436587e-01 2.4000000000000004e+00 3.4276092905687544e-01
v -4.1338015144541196e-01 2.4000000000000004e+00 4.3487567233747199e-01
v -3.1737840619617752e-01 2.4000000000000004e+00 5.0918655449685057e-01
v -2.0838315170689226e-01 2.4000000000000004e+00 5.6265127928824832e-01
v -9.0856666502746083e-02 2.4000000000000004e+00 5.9308099459686692e-01
v 3.0389501303227533e-02 2.4000000000000004e+00 5.9922990430263179e-01
v 1.5039151935523223e-01 2.4000000000000004e+00 5.8084627131972277e-01
v 2.6423649093458046e-01 2.4000000000000004e+00 5.3868272374244519e-01
v 3.6726358952859761e-01 2.4000000000000004e+00 4.7446544216261932e-01
v 4.5525487361567463e-01 2.4000000000000004e+00 3.9082348963333335e-01
v 5.2460796968674939e-01 2.4000000000000004e+00 2.9118117751864858e-01
v 5.7248355384002936e-01 2.4000000000000004e+00 1.7961787378401475e-01
v 5.9692159403513723e-01 2.4000000000000004e+00 6.0700993192459300e-02
v 5.9692159403513723e-01 2.4000000000000004e+00 -6.0700993192459300e-02
v 5.7248355384002936e-01 2.4000000000000004e+00 -1.7961787378401475e-01
v 5.2460796968674939e-01 2.4000000000000004e+00 -2.9118117751864858e-01
v 4.5525487361567463e-01 2.4000000000000004e+00 -3.9082348963333335e-01
v 3.6726358952859789e-01 2.4000000000000004e+00 -4.7446544216261921e-01
v 2.6423649093458074e-01 2.4000000000000004e+00 -5.3868272374244508e-01
v 1.5039151935523234e-01 2.4000000000000004e+00 -5.8084627131972266e-01
v 3.0389501303227665e-02 2.4000000000000004e+00 -5.9922990430263179e-01
v -9.0856666502745972e-02 2.4000000000000004e+00 -5.9308099459686692e-01
v -2.0838315170689214e-01 2.4000000000000004e+00 -5.6265127928824843e-01
v -3.1737840619617752e-01 2.4000000000000004e+00 -5.0918655449685057e-01
v -4.1338015144541196e-01 2.4000000000000004e+00 -4.3487567233747199e-01
v -4.9245806472436587e-01 2.4000000000000004e+00 -3.4276092905687544e-01
v -5.5137468697213843e-01 2.4000000000000004e+00 -2.3661351306799119e-01
v -5.8771796475149674e-01 2.4000000000000004e+00 -1.2077911205319612e-01
v -6.0000000000000009e-01 0.0000000000000000e+00 7.3478807948841202e-17
v -5.8771796475149674e-01 0.0000000000000000e+00 -1.2077911205319612e-01
v -5.5137468697213843e-01 0.0000000000000000e+00 -2.3661351306799119e-01
v -4.9245806472436587e-01 0.0000000000000000e+00 -3.4276092905687544e-01
v -4.1338015144541196e-01 0.0000000000000000e+00 -4.3487567233747199e-01
v -3.1737840619617752e-01 0.0000000000000000e+00 -5.0918655449685057e-01
v -2.0838315170689214e-01 0.0000000000000000e+00 -5.6265127928824843e-01
v -9.0856666502745972e-02 0.0000000000000000e+00 -5.9308099459686692e-01
v 3.0389501303227665e-02 0.0000000000000000e+00 -5.9922990430263179e-01
v 1.5039151935523234e-01 0.0000000000000000e+00 -5.8084627131972266e-01
v 2.6423649093458074e-01 0.0000000000000000e+00 -5.3868272374244508e-01
v 3.6726358952859789e-01 0.0000000000000000e+00 -4.7446544216261921e-01
v 4.5525487361567463e-01 0.0000000000000000e+00 -3.9082348963333335e-01
v 5.2460796968674939e-01 0.0000000000000000e+00 -2.9118117751864858e-01
v 5.7248355384002936e-01 0.0000000000000000e+00 -1.7961787378401475e-01
v 5.9692159403513723e-01 0.0000000000000000e+00 -6.0700993192459300e-02
v 5.9692159403513723e-01 0.0000000000000000e+00 6.0700993192459300e-02
v 5.7248355384002936e-01 0.0000000000000000e+00 1.7961787378401475e-01
v 5.2460796968674939e-01 0.0000000000000000e+00 2.9118117751864858e-01
v 4.5525487361567463e-01 0.0000000000000000e+00 3.9082348963333335e-01
v 3.6726358952859761e-01 0.0000000000000000e+00 4.7446544216261932e-01
v 2.6423649093458046e-01 0.0000000000000000e+00 5.3868272374244519e-01
v 1.5039151935523223e-01 0.0000000000000000e+00 5.8084627131972277e-01
v 3.0389501303227533e-02 0.0000000000000000e+00 5.9922990430263179e-01
v -9.0856666502746083e-02 0.0000000000000000e+00 5.9308099459686692e-01
v -2.0838315170689226e-01 0.0000000000000000e+00 5.6265127928824832e-01
v -3.1737840619617752e-01 0.0000000000000000e+00 5.0918655449685057e-01
v -4.1338015144541196e-01 0.0000000000000000e+00 4.3487567233747199e-01
v -4.9245806472436587e-01 0.0000000000000000e+00 3.4276092905687544e-01
v -5.5137468697213843e-01 0.0000000000000000e+00 2.3661351306799119e-01
v -5.8771796475149674e-01 0.0000000000000000e+00 1.2077911205319612e-01
v -7.4999999999999989e-01 2.4000000000000004e+00 9.1848509936051472e-17
v -7.3722982476292631e-01 2.4000000000000004e+00 -1.3781213836242742e-01
v -6.9935417205326678e-01 2.4000000000000004e+00 -2.7093124964036464e-01
v -6.3766285179721038e-01 2.4000000000000004e+00 -3.9482412215801699e-01
v -5.5425668791549443e-01 2.4000000000000004e+00 -5.0527173273491777e-01
v -4.5197597728444217e-01 2.4000000000000004e+00 -5.9851292046017956e-01
v -3.3430376683240393e-01 2.4000000000000004e+00 -6.7137246851629651e-01
v -2.0524724255406213e-01 2.4000000000000004e+00 -7.2136923237961414e-01
v -6.9201269597476245e-02 2.4000000000000004e+00 -7.4680063222127580e-01
v 6.9201269597476342e-02 2.4000000000000004e+00 -7.4680063222127580e-01
v 2.0524724255406221e-01 2.4000000000000004e+00 -7.2136923237961414e-01
v 3.3430376683240337e-01 2.4000000000000004e+00 -6.7137246851629673e-01
v 4.5197597728444222e-01 2.4000000000000004e+00 -5.9851292046017956e-01
v 5.5425668791549421e-01 2.4000000000000004e+00 -5.0527173273491788e-01
v 6.3766285179721049e-01 2.4000000000000004e+00 -3.9482412215801688e-01
v 6.9935417205326667e-01 2.4000000000000004e+00 -2.7093124964036486e-01
v 7.3722982476292620e-01 2.4000000000000004e+00 -1.3781213836242767e-01
v 7.4999999999999989e-01 2.4000000000000004e+00 0.0000000000000000e+00
v 7.3722982476292620e-01 2.4000000000000004e+00 1.3781213836242767e-01
v 6.9935417205326678e-01 2.4000000000000004e+00 2.7093124964036458e-01
v 6.3766285179721061e-01 2.4000000000000004e+00 3.9482412215801665e-01
v 5.5425668791549421e-01 2.4000000000000004e+00 5.0527173273491788e-01
v 4.5197597728444222e-01 2.4000000000000004e+00 5.9851292046017956e-01
v 3.3430376683240370e-01 2.4000000000000004e+00 6.7137246851629662e-01
v 2.0524724255406221e-01 2.4000000000000004e+00 7.2136923237961414e-01
v 6.9201269597476509e-02 2.4000000000000004e+00 7.4680063222127580e-01
v -6.9201269597476411e-02 2.4000000000000004e+00 7.4680063222127580e-01
v -2.0524724255406196e-01 2.4000000000000004e+00 7.2136923237961426e-01
v -3.3430376683240359e-01 2.4000000000000004e+00 6.7137246851629662e-01
v -4.5197597728444217e-01 2.4000000000000004e+00 5.9851292046017956e-01
v -5.5425668791549421e-01 2.4000000000000004e+00 5.0527173273491788e-01
v -6.3766285179721038e-01 2.4000000000000004e+00 3.9482412215801699e-01
v -6.9935417205326678e-01 2.4000000000000004e+00 2.7093124964036464e-01
v -7.3722982476292620e-01 2.4000000000000004e+00 1.3781213836242776e-01
v -7.4999999999999989e-01 0.0000000000000000e+00 9.1848509936051472e-17
v -7.3722982476292620e-01 0.0000000000000000e+00 1.3781213836242776e-01
v -6.9935417205326678e-01 0.0000000000000000e+00 2.7093124964036464e-01
v -6.3766285179721038e-01 0.0000000000000000e+00 3.9482412215801699e-01
v -5.5425668791549421e-01 0.0000000000000000e+00 5.0527173273491788e-01
v -4.5197597728444217e-01 0.0000000000000000e+00 5.9851292046017956e-01
v -3.3430376683240359e-01 0.0000000000000000e+00 6.7137246851629662e-01
v -2.0524724255406196e-01 0.0000000000000000e+00 7.2136923237961426e-01
v -6.9201269597476411e-02 0.0000000000000000e+00 7.4680063222127580e-01
v 6.9201269597476509e-02 0.0000000000000000e+00 7.4680063222127580e-01
v 2.0524724255406221e-01 0.0000000000000000e+00 7.2136923237961414e-01
v 3.3430376683240370e-01 0.0000000000000000e+00 6.7137246851629662e-01
v 4.5197597728444222e-01 0.0000000000000000e+00 5.9851292046017956e-01
v 5.5425668791549421e-01 0.0000000000000000e+00 5.0527173273491788e-01
v 6.3766285179721061e-01 0.0000000000000000e+00 3.9482412215801665e-01
v 6.9935417205326678e-01 0.0000000000000000e+00 2.7093124964036458e-01
v 7.3722982476292620e-01 0.0000000000000000e+00 1.3781213836242767e-01
v 7.4999999999999989e-01 0.0000000000000000e+00 0.0000000000000000e+00
v 7.3722982476292620e-01 0.0000000000000000e+00 -1.3781213836242767e-01
v 6.9935417205326667e-01 0.0000000000000000e+00 -2.7093124964036486e-01
v 6.3766285179721049e-01 0.0000000000000000e+00 -3.9482412215801688e-01
v 5.5425668791549421e-01 0.0000000000000000e+00 -5.0527173273491788e-01
v 4.5197597728444222e-01 0.0000000000000000e+00 -5.9851292046017956e-01
v 3.3430376683240337e-01 0.0000000000000000e+00 -6.7137246851629673e-01
v 2.0524724255406221e-01 0.0000000000000000e+00 -7.2136923237961414e-01
v 6.9201269597476342e-02 0.0000000000000000e+00 -7.4680063222127580e-01
v -6.9201269597476245e-02 0.0000000000000000e+00 -7.4680063222127580e-01
v -2.0524724255406213e-01 0.0000000000000000e+00 -7.2136923237961414e-01
v -3.3430376683240393e-01 0.0000000000000000e+00 -6.7137246851629651e-01
v -4.5197597728444217e-01 0.0000000000000000e+00 -5.9851292046017956e-01
v -5.5425668791549443e-01 0.0000000000000000e+00 -5.0527173273491777e-01
v -6.3766285179721038e-01 0.0000000000000000e+00 -3.9482412215801699e-01
v -6.9935417205326678e-01 0.0000000000000000e+00 -2.7093124964036464e-01
v -7.3722982476292631e-01 0.0000000000000000e+00 -1.3781213836242742e-01

vn 9.7952994125249448e-01 0.0000000000000000e+00 -2.0129852008866020e-01
vn 1.0000000000000000e+00 0.0000000000000000e+00 -1.2246467991473532e-16
vn 1.0000000000000000e+00 -0.0000000000000000e+00 1.2246467991473532e-16
vn 9.7952994125249448e-01 -0.0000000000000000e+00 2.0129852008866020e-01
vn 9.1895781162023071e-01 -0.0000000000000000e+00 3.9435585511331872e-01
vn 8.2076344120727629e-01 -0.0000000000000000e+00 5.7126821509479231e-01
vn 6.8896691907568663e-01 -0.0000000000000000e+00 7.2479278722911999e-01
vn 5.2896401032696261e-01 -0.0000000000000000e+00 8.4864425749475103e-01
vn 3.4730525284482017e-01 -0.0000000000000000e+00 9.3775213214708042e-01
vn 1.5142777750457662e-01 -0.0000000000000000e+00 9.8846832432811149e-01
vn -5.0649168838712760e-02 0.0000000000000000e+00 9.9871650717105265e-01
vn -2.5065253225872053e-01 0.0000000000000000e+00 9.6807711886620429e-01
vn -4.4039415155763445e-01 0.0000000000000000e+00 8.9780453957074158e-01
vn -6.1210598254766291e-01 0.0000000000000000e+00 7.9077573693769843e-01
vn -7.5875812269279086e-01 0.0000000000000000e+00 6.5137248272222203e-01
vn -8.7434661614458231e-01 0.0000000000000000e+00 4.8530196253108088e-01
vn -9.5413925640004893e-01 0.0000000000000000e+00 2.9936312297335793e-01
vn -9.9486932339189516e-01 0.0000000000000000e+00 1.0116832198743214e-01
vn -9.9486932339189516e-01 0.0000000000000000e+00 -1.0116832198743214e-01
vn -9.5413925640004893e-01 0.0000000000000000e+00 -2.9936312297335793e-01
vn -8.7434661614458231e-01 0.0000000000000000e+00 -4.8530196253108088e-01
vn -7.5875812269279086e-01 0.0000000000000000e+00 -6.5137248272222203e-01
vn -6.1210598254766269e-01 0.0000000000000000e+00 -7.9077573693769876e-01
vn -4.4039415155763395e-01 0.0000000000000000e+00 -8.9780453957074180e-01
vn -2.5065253225872036e-01 0.0000000000000000e+00 -9.6807711886620429e-01
vn -5.0649168838712545e-02 0.0000000000000000e+00 -9.9871650717105287e-01
vn 1.5142777750457681e-01 0.0000000000000000e+00 -9.8846832432811149e-01
vn 3.4730525284482039e-01 0.0000000000000000e+00 -9.3775213214708053e-01
vn 5.2896401032696261e-01 0.0000000000000000e+00 -8.4864425749475103e-01
vn 6.8896691907568663e-01 0.0000000000000000e+00 -7.2479278722911999e-01
vn 8.2076344120727629e-01 0.0000000000000000e+00 -5.7126821509479231e-01
vn 9.1895781162023071e-01 0.0000000000000000e+00 -3.9435585511331872e-01
vn -9.8297309968390190e-01 0.0000000000000000e+00 -1.8374951781656990e-01
vn -1.0000000000000000e+00 0.0000000000000000e+00 -1.2246467991473530e-16
vn -1.0000000000000000e+00 -0.0000000000000000e+00 1.2246467991473530e-16
vn -9.8297309968390179e-01 -0.0000000000000000e+00 1.8374951781657037e-01
vn -9.3247222940435592e-01 -0.0000000000000000e+00 3.6124166618715292e-01
vn -8.5021713572961399e-01 -0.0000000000000000e+00 5.2643216287735617e-01
vn -7.3900891722065898e-01 -0.0000000000000000e+00 6.7369564364655721e-01
vn -6.0263463637925629e-01 -0.0000000000000000e+00 7.9801722728023949e-01
vn -4.4573835577653809e-01 -0.0000000000000000e+00 8.9516329135506223e-01
vn -2.7366299007208267e-01 -0.0000000000000000e+00 9.6182564317281916e-01
vn -9.2268359463301891e-02 -0.0000000000000000e+00 9.9573417629503447e-01
vn 9.2268359463302016e-02 -0.0000000000000000e+00 9.9573417629503447e-01
vn 2.7366299007208300e-01 -0.0000000000000000e+00 9.6182564317281916e-01
vn 4.4573835577653831e-01 -0.0000000000000000e+00 8.9516329135506223e-01
vn 6.0263463637925629e-01 -0.0000000000000000e+00 7.9801722728023949e-01
vn 7.3900891722065898e-01 -0.0000000000000000e+00 6.7369564364655721e-01
vn 8.5021713572961433e-01 -0.0000000000000000e+00 5.2643216287735561e-01
vn 9.3247222940435592e-01 -0.0000000000000000e+00 3.6124166618715292e-01
vn 9.8297309968390179e-01 -0.0000000000000000e+00 1.8374951781657031e-01
vn 1.0000000000000000e+00 -0.0000000000000000e+00 -0.0000000000000000e+00
vn 9.8297309968390179e-01 -0.0000000000000000e+00 -1.8374951781657031e-01
vn 9.3247222940435570e-01 -0.0000000000000000e+00 -3.6124166618715314e-01
vn 8.5021713572961422e-01 -0.0000000000000000e+00 -5.2643216287735584e-01
vn 7.3900891722065898e-01 -0.0000000000000000e+00 -6.7369564364655721e-01
vn 6.0263463637925629e-01 -0.0000000000000000e+00 -7.9801722728023949e-01
vn 4.4573835577653792e-01 -0.0000000000000000e+00 -8.9516329135506245e-01
vn 2.7366299007208300e-01 -0.0000000000000000e+00 -9.6182564317281916e-01
vn 9.2268359463301794e-02 -0.0000000000000000e+00 -9.9573417629503447e-01
vn -9.2268359463301669e-02 0.0000000000000000e+00 -9.9573417629503447e-01
vn -2.7366299007208289e-01 0.0000000000000000e+00 -9.6182564317281916e-01
vn -4.4573835577653859e-01 0.0000000000000000e+00 -8.9516329135506212e-01
vn -6.0263463637925629e-01 0.0000000000000000e+00 -7.9801722728023949e-01
vn -7.3900891722065931e-01 0.0000000000000000e+00 -6.7369564364655699e-01
vn -8.5021713572961399e-01 0.0000000000000000e+00 -5.2643216287735617e-01
vn -9.3247222940435592e-01 0.0000000000000000e+00 -3.6124166618715292e-01
vn 0.0000000000000000e+00 1.0000000000000000e+00 0.0000000000000000e+00
vn -0.0000000000000000e+00 -1.0000000000000000e+00 -0.0000000000000000e+00

g face 0
f 2//1 62//1 1//2
f 1//2 62//1 32//2
f 1//3 32//3 31//4
f 31//4 32//3 33//4
f 31//4 33//4 30//5
f 30//5 33//4 34//5
f 30//5 34//5 29//6
f 29//6 34//5 35//6
f 29//6 35//6 28//7
f 28//7 35//6 36//7
f 28//7 36//7 27//8
f 27//8 36//7 37//8
f 27//8 37//8 26//9
f 26//9 37//8 38//9
f 26//9 38//9 25//10
f 25//10 38//9 39//10
f 25//10 39//10 24//11
f 24//11 39//10 40//11
f 24//11 40//11 23//12
f 23//12 40//11 41//12
f 23//12 41//12 22//13
f 22//13 41//12 42//13
f 22//13 42//13 21//14
f 21//14 42//13 43//14
f 21//14 43//14 20//15
f 20//15 43//14 44//15
f 20//15 44//15 19//16
f 19//16 44//15 45//16
f 19//16 45//16 18//17
f 18//17 45//16 46//17
f 18//17 46//17 17//18
f 17//18 46//17 47//18
f 17//18 47//18 16//19
f 16//19 47//18 48//19
f 16//19 48//19 15//20
f 15//20 48//19 49//20
f 15//20 49//20 14//21
f 14//21 49//20 50//21
f 14//21 50//21 13//22
f 13//22 50//21 51//22
f 13//22 51//22 12//23
f 12//23 51//22 52//23
f 12//23 52//23 11//24
f 11//24 52//23 53//24
f 11//24 53//24 10//25
f 10//25 53//24 54//25
f 10//25 54//25 9//26
f 9//26 54//25 55//26
f 9//26 55//26 8//27
f 8//27 55//26 56//27
f 8//27 56//27 7//28
f 7//28 56//27 57//28
f 7//28 57//28 6//29
f 6//29 57//28 58//29
f 6//29 58//29 5//30
f 5//30 58//29 59//30
f 5//30 59//30 4//31
f 4//31 59//30 60//31
f 4//31 60//31 3//32
f 3//32 60//31 61//32
f 3//32 61//32 2//1
f 2//1 61//32 62//1

g face 1
f 64//33 130//33 63//34
f 63//34 130//33 97//34
f 63//35 97//35 96//36
f 96//36 97//35 98//36
f 96//36 98//36 95//37
f 95//37 98//36 99//37
f 95//37 99//37 94//38
f 94//38 99//37 100//38
f 94//38 100//38 93//39
f 93//39 100//38 101//39
f 93//39 101//39 92//40
f 92//40 101//39 102//40
f 92//40 102//40 91//41
f 91//41 102//40 103//41
f 91//41 103//41 90//42
f 90//42 103//41 104//42
f 90//42 104//42 89//43
f 89//43 104//42 105//43
f 89//43 105//43 88//44
f 88//44 105//43 106//44
f 88//44 106//44 87//45
f 87//45 106//44 107//45
f 87//45 107//45 86//46
f 86//46 107//45 108//46
f 86//46 108//46 85//47
f 85//47 108//46 109//47
f 85//47 109//47 84//48
f 84//48 109//47 110//48
f 84//48 110//48 83//49
f 83//49 110//48 111//49
f 83//49 111//49 82//50
f 82//50 111//49 112//50
f 82//50 112//50 81//51
f 81//51 112//50 113//51
f 81//51 113//51 80//52
f 80//52 113//51 114//52
f 80//52 114//52 79//53
f 79//53 114//52 115//53
f 79//53 115//53 78//54
f 78//54 115//53 116//54
f 78//54 116//54 77//55
f 77//55 116//54 117//55
f 77//55 117//55 76//56
f 76//56 117//55 118//56
f 76//56 118//56 75//57
f 75//57 118//56 119//57
f 75//57 119//57 74//58
f 74//58 119//57 120//58
f 74//58 120//58 73//59
f 73//59 120//58 121//59
f 73//59 121//59 72//60
f 72//60 121//59 122//60
f 72//60 122//60 71//61
f 71//61 122//60 123//61
f 71//61 123//61 70//62
f 70//62 123//61 124//62
f 70//62 124//62 69//63
f 69//63 124//62 125//63
f 69//63 125//63 68//64
f 68//64 125//63 126//64
f 68//64 126//64 67//65
f 67//65 126//64 127//65
f 67//65 127//65 66//66
f 66//66 127//65 128//66
f 66//66 128//66 65//67
f 65//67 128//66 129//67
f 65//67 129//67 64//33
f 64//33 129//67 130//33

g face 2
f 31//68 64//68 1//68
f 1//68 64//68 63//68
f 1//68 63//68 96//68
f 64//68 31//68 65//68
f 65//68 31//68 30//68
f 65//68 30//68 66//68
f 66//68 30//68 29//68
f 66//68 29//68 67//68
f 67//68 29//68 28//68
f 67//68 28//68 68//68
f 68//68 28//68 27//68
f 68//68 27//68 69//68
f 69//68 27//68 26//68
f 69//68 26//68 70//68
f 70//68 26//68 25//68
f 70//68 25//68 71//68
f 71//68 25//68 24//68
f 71//68 24//68 72//68
f 72//68 24//68 23//68
f 72//68 23//68 73//68
f 73//68 23//68 22//68
f 73//68 22//68 74//68
f 74//68 22//68 75//68
f 75//68 22//68 21//68
f 75//68 21//68 76//68
f 76//68 21//68 20//68
f 76//68 20//68 77//68
f 77//68 20//68 19//68
f 77//68 19//68 78//68
f 78//68 19//68 18//68
f 78//68 18//68 79//68
f 79//68 18//68 17//68
f 79//68 17//68 80//68
f 80//68 17//68 16//68
f 80//68 16//68 81//68
f 81//68 16//68 15//68
f 81//68 15//68 82//68
f 82//68 15//68 14//68
f 82//68 14//68 83//68
f 83//68 14//68 13//68
f 83//68 13//68 84//68
f 84//68 13//68 12//68
f 84//68 12//68 85//68
f 85//68 12//68 11//68
f 85//68 11//68 86//68
f 86//68 11//68 87//68
f 87//68 11//68 10//68
f 87//68 10//68 88//68
f 88//68 10//68 9//68
f 88//68 9//68 89//68
f 89//68 9//68 8//68
f 89//68 8//68 90//68
f 90//68 8//68 7//68
f 90//68 7//68 91//68
f 91//68 7//68 6//68
f 91//68 6//68 92//68
f 92//68 6//68 5//68
f 92//68 5//68 93//68
f 93//68 5//68 4//68
f 93//68 4//68 94//68
f 94//68 4//68 3//68
f 94//68 3//68 95//68
f 95//68 3//68 2//68
f 95//68 2//68 96//68
f 96//68 2//68 1//68

g face 3
f 62//69 98//69 32//69
f 32//69 98//69 97//69
f 32//69 97//69 130//69
f 98//69 62//69 99//69
f 99//69 62//69 61//69
f 99//69 61//69 100//69
f 100//69 61//69 60//69
f 100//69 60//69 101//69
f 101//69 60//69 59//69
f 101//69 59//69 102//69
f 102//69 59//69 58//69
f 102//69 58//69 103//69
f 103//69 58//69 57//69
f 103//69 57//69 104//69
f 104//69 57//69 56//69
f 104//69 56//69 105//69
f 105//69 56//69 55//69
f 105//69 55//69 106//69
f 106//69 55//69 54//69
f 106//69 54//69 107//69
f 107//69 54//69 53//69
f 107//69 53//69 108//69
f 108//69 53//69 109//69
f 109//69 53//69 52//69
f 109//69 52//69 110//69
f 110//69 52//69 51//69
f 110//69 51//69 111//69
f 111//69 51//69 50//69
f 111//69 50//69 112//69
f 112//69 50//69 49//69
f 112//69 49//69 113//69
f 113//69 49//69 48//69
f 113//69 48//69 114//69
f 114//69 48//69 47//69
f 114//69 47//69 115//69
f 115//69 47//69 46//69
f 115//69 46//69 116//69
f 116//69 46//69 45//69
f 116//69 45//69 117//69
f 117//69 45//69 44//69
f 117//69 44//69 118//69
f 118//69 44//69 43//69
f 118//69 43//69 119//69
f 119//69 43//69 42//69
f 119//69 42//69 120//69
f 120//69 42//69 121//69
f 121//69 42//69 41//69
f 121//69 41//69 122//69
f 122//69 41//69 40//69
f 122//69 40//69 123//69
f 123//69 40//69 39//69
f 123//69 39//69 124//69
f 124//69 39//69 38//69
f 124//69 38//69 125//69
f 125//69 38//69 37//69
f 125//69 37//69 126//69
f 126//69 37//69 36//69
f 126//69 36//69 127//69
f 127//69 36//69 35//69
f 127//69 35//69 128//69
f 128//69 35//69 34//69
f 128//69 34//69 129//69
f 129//69 34//69 33//69
f 129//69 33//69 130//69
f 130//69 33//69 32//69

g halfedge 0 edge 0
l 1 2 3 4 5 6 7 8 9 10 11 12 13 14 15 16 17 18 19 20 21 22 23 24 25 26 27 28 29 30 31 1

g halfedge 1 edge 0
l 1 31 30 29 28 27 26 25 24 23 22 21 20 19 18 17 16 15 14 13 12 11 10 9 8 7 6 5 4 3 2 1

g halfedge 2 edge 1
l 32 33 34 35 36 37 38 39 40 41 42 43 44 45 46 47 48 49 50 51 52 53 54 55 56 57 58 59 60 61 62 32

g halfedge 3 edge 1
l 32 62 61 60 59 58 57 56 55 54 53 52 51 50 49 48 47 46 45 44 43 42 41 40 39 38 37 36 35 34 33 32

g halfedge 4 edge 2
l 63 64 65 66 67 68 69 70 71 72 73 74 75 76 77 78 79 80 81 82 83 84 85 86 87 88 89 90 91 92 93 94 95 96 63

g halfedge 5 edge 2
l 63 96 95 94 93 92 91 90 89 88 87 86 85 84 83 82 81 80 79 78 77 76 75 74 73 72 71 70 69 68 67 66 65 64 63

g halfedge 6 edge 3
l 97 98 99 100 101 102 103 104 105 106 107 108 109 110 111 112 113 114 115 116 117 118 119 120 121 122 123 124 125 126 127 128 129 130 97

g halfedge 7 edge 3
l 97 130 129 128 127 126 125 124 123 122 121 120 119 118 117 116 115 114 113 112 111 110 109 108 107 106 105 104 103 102 101 100 99 98 97

g vertex 0
p 1

g vertex 1
p 32

g vertex 2
p 63

g vertex 3
p 97

# End of file
