# WaveFront *.obj file
# Vertices: 72
# Triangles : 140

v 5.4073836165941547e-01 -3.0427913509131237e+00 1.1199999999999999e+01
v 5.4073836165941547e-01 -3.0689699870136447e+00 1.1102300000000000e+01
v 5.4073836165941547e-01 -3.1404913509131238e+00 1.1030778636100520e+01
v 5.4073836165941547e-01 -3.2381913509131239e+00 1.1004600000000000e+01
v 5.4073836165941547e-01 -3.3358913509131241e+00 1.1030778636100520e+01
v 5.4073836165941547e-01 -3.4074127148126032e+00 1.1102300000000000e+01
v 5.4073836165941547e-01 -3.4335913509131242e+00 1.1199999999999999e+01
v 5.4073836165941547e-01 -3.4074127148126032e+00 1.1297699999999999e+01
v 5.4073836165941547e-01 -3.3358913509131241e+00 1.1369221363899479e+01
v 5.4073836165941547e-01 -3.2381913509131239e+00 1.1395399999999999e+01
v 5.4073836165941547e-01 -3.1404913509131243e+00 1.1369221363899479e+01
v 5.4073836165941547e-01 -3.0689699870136447e+00 1.1297699999999999e+01
v -4.5926163834058453e-01 -3.0427913509131237e+00 1.1199999999999999e+01
v -4.5926163834058453e-01 -3.0689699870136447e+00 1.1297699999999999e+01
v -4.5926163834058453e-01 -3.1404913509131243e+00 1.1369221363899479e+01
v -4.5926163834058453e-01 -3.2381913509131239e+00 1.1395399999999999e+01
v -4.5926163834058453e-01 -3.3358913509131241e+00 1.1369221363899479e+01
v -4.5926163834058453e-01 -3.4074127148126032e+00 1.1297699999999999e+01
v -4.5926163834058453e-01 -3.4335913509131242e+00 1.1199999999999999e+01
v -4.5926163834058453e-01 -3.4074127148126032e+00 1.1102300000000000e+01
v -4.5926163834058453e-01 -3.3358913509131241e+00 1.1030778636100520e+01
v -4.5926163834058453e-01 -3.2381913509131239e+00 1.1004600000000000e+01
v -4.5926163834058453e-01 -3.1404913509131238e+00 1.1030778636100520e+01
v -4.5926163834058453e-01 -3.0689699870136447e+00 1.1102300000000000e+01
v 9.9407383616594167e+00 -3.0427913509131237e+00 1.1199999999999999e+01
v 9.9407383616594167e+00 -3.0689699870136447e+00 1.1297699999999999e+01
v 9.9407383616594167e+00 -3.1404913509131243e+00 1.1369221363899479e+01
v 9.9407383616594167e+00 -3.2381913509131239e+00 1.1395399999999999e+01
v 9.9407383616594167e+00 -3.3358913509131241e+00 1.1369221363899479e+01
v 9.9407383616594167e+00 -3.4074127148126032e+00 1.1297699999999999e+01
v 9.9407383616594167e+00 -3.4335913509131242e+00 1.1199999999999999e+01
v 9.9407383616594167e+00 -3.4074127148126032e+00 1.1102300000000000e+01
v 9.9407383616594167e+00 -3.3358913509131241e+00 1.1030778636100520e+01
v 9.9407383616594167e+00 -3.2381913509131239e+00 1.1004600000000000e+01
v 9.9407383616594167e+00 -3.1404913509131238e+00 1.1030778636100520e+01
v 9.9407383616594167e+00 -3.0689699870136447e+00 1.1102300000000000e+01
v 8.9407383616594167e+00 -3.0427913509131237e+00 1.1199999999999999e+01
v 8.9407383616594167e+00 -3.0689699870136447e+00 1.1297699999999999e+01
v 8.9407383616594167e+00 -3.1404913509131243e+00 1.1369221363899479e+01
v 8.9407383616594167e+00 -3.2381913509131239e+00 1.1395399999999999e+01
v 8.9407383616594167e+00 -3.3358913509131241e+00 1.1369221363899479e+01
v 8.9407383616594167e+00 -3.4074127148126032e+00 1.1297699999999999e+01
v 8.9407383616594167e+00 -3.4335913509131242e+00 1.1199999999999999e+01
v 8.9407383616594167e+00 -3.4074127148126032e+00 1.1102300000000000e+01
v 8.9407383616594167e+00 -3.3358913509131241e+00 1.1030778636100520e+01
v 8.9407383616594167e+00 -3.2381913509131239e+00 1.1004600000000000e+01
v 8.9407383616594167e+00 -3.1404913509131238e+00 1.1030778636100520e+01
v 8.9407383616594167e+00 -3.0689699870136447e+00 1.1102300000000000e+01
v 8.9407383616594167e+00 -3.5381913509131238e+00 1.1199999999999999e+01
v 8.9407383616594167e+00 -3.4979989720484554e+00 1.1049999999999999e+01
v 8.9407383616594167e+00 -3.3881913509131238e+00 1.0940192378864667e+01
v 8.9407383616594167e+00 -3.2381913509131239e+00 1.0899999999999999e+01
v 8.9407383616594167e+00 -3.0881913509131240e+00 1.0940192378864667e+01
v 8.9407383616594167e+00 -2.9783837297777924e+00 1.1049999999999999e+01
v 8.9407383616594167e+00 -2.9381913509131241e+00 1.1199999999999999e+01
v 8.9407383616594167e+00 -2.9783837297777924e+00 1.1350000000000000e+01
v 8.9407383616594167e+00 -3.0881913509131240e+00 1.1459807621135331e+01
v 8.9407383616594167e+00 -3.2381913509131239e+00 1.1500000000000000e+01
v 8.9407383616594167e+00 -3.3881913509131238e+00 1.1459807621135331e+01
v 8.9407383616594167e+00 -3.4979989720484554e+00 1.1350000000000000e+01
v 5.4073836165941458e-01 -3.5381913509131238e+00 1.1199999999999999e+01
v 5.4073836165941458e-01 -3.4979989720484554e+00 1.1049999999999999e+01
v 5.4073836165941458e-01 -3.3881913509131238e+00 1.0940192378864667e+01
v 5.4073836165941458e-01 -3.2381913509131239e+00 1.0899999999999999e+01
v 5.4073836165941458e-01 -3.0881913509131240e+00 1.0940192378864667e+01
v 5.4073836165941458e-01 -2.9783837297777924e+00 1.1049999999999999e+01
v 5.4073836165941458e-01 -2.9381913509131241e+00 1.1199999999999999e+01
v 5.4073836165941458e-01 -2.9783837297777924e+00 1.1350000000000000e+01
v 5.4073836165941458e-01 -3.0881913509131240e+00 1.1459807621135331e+01
v 5.4073836165941458e-01 -3.2381913509131239e+00 1.1500000000000000e+01
v 5.4073836165941458e-01 -3.3881913509131238e+00 1.1459807621135331e+01
v 5.4073836165941458e-01 -3.4979989720484554e+00 1.1350000000000000e+01

vn -0.0000000000000000e+00 8.6602540378443926e-01 -4.9999999999999867e-01
vn -0.0000000000000000e+00 1.0000000000000000e+00 -1.2246467991473532e-16
vn 0.0000000000000000e+00 1.0000000000000000e+00 1.2246467991473532e-16
vn 0.0000000000000000e+00 8.6602540378443926e-01 4.9999999999999867e-01
vn 0.0000000000000000e+00 4.9999999999999789e-01 8.6602540378443982e-01
vn -0.0000000000000000e+00 -6.1232339957367660e-17 1.0000000000000000e+00
vn -0.0000000000000000e+00 -4.9999999999999944e-01 8.6602540378443893e-01
vn -0.0000000000000000e+00 -8.6602540378443926e-01 4.9999999999999867e-01
vn -0.0000000000000000e+00 -1.0000000000000000e+00 0.0000000000000000e+00
vn -0.0000000000000000e+00 -8.6602540378443926e-01 -4.9999999999999867e-01
vn -0.0000000000000000e+00 -4.9999999999999944e-01 -8.6602540378443893e-01
vn -0.0000000000000000e+00 -6.1232339957367660e-17 -1.0000000000000000e+00
vn -0.0000000000000000e+00 4.9999999999999944e-01 -8.6602540378443904e-01
vn -1.0000000000000000e+00 0.0000000000000000e+00 0.0000000000000000e+00
vn 1.0000000000000000e+00 -0.0000000000000000e+00 -0.0000000000000000e+00
vn -0.0000000000000000e+00 -8.6602540378443804e-01 5.0000000000000111e-01
vn -0.0000000000000000e+00 -8.6602540378443804e-01 -5.0000000000000111e-01
vn -0.0000000000000000e+00 -4.9999999999999939e-01 -8.6602540378443915e-01
vn -0.0000000000000000e+00 4.9999999999999939e-01 -8.6602540378443915e-01
vn -0.0000000000000000e+00 8.6602540378443804e-01 -5.0000000000000111e-01
vn 0.0000000000000000e+00 8.6602540378443804e-01 5.0000000000000111e-01
vn 0.0000000000000000e+00 4.9999999999999939e-01 8.6602540378443915e-01
vn -0.0000000000000000e+00 -4.9999999999999939e-01 8.6602540378443915e-01

g face 0
f 2//1 24//1 1//2
f 1//2 24//1 13//2
f 1//3 13//3 12//4
f 12//4 13//3 14//4
f 12//4 14//4 11//5
f 11//5 14//4 15//5
f 11//5 15//5 10//6
f 10//6 15//5 16//6
f 10//6 16//6 9//7
f 9//7 16//6 17//7
f 9//7 17//7 8//8
f 8//8 17//7 18//8
f 8//8 18//8 7//9
f 7//9 18//8 19//9
f 7//9 19//9 6//10
f 6//10 19//9 20//10
f 6//10 20//10 5//11
f 5//11 20//10 21//11
f 5//11 21//11 4//12
f 4//12 21//11 22//12
f 4//12 22//12 3//13
f 3//13 22//12 23//13
f 3//13 23//13 2//1
f 2//1 23//13 24//1

g face 1
f 13//14 24//14 14//14
f 14//14 24//14 15//14
f 15//14 24//14 23//14
f 15//14 23//14 16//14
f 16//14 23//14 22//14
f 16//14 22//14 17//14
f 17//14 22//14 21//14
f 17//14 21//14 18//14
f 18//14 21//14 20//14
f 18//14 20//14 19//14

g face 2
f 25//15 26//15 36//15
f 36//15 26//15 35//15
f 35//15 26//15 27//15
f 35//15 27//15 34//15
f 34//15 27//15 28//15
f 34//15 28//15 33//15
f 33//15 28//15 29//15
f 33//15 29//15 32//15
f 32//15 29//15 30//15
f 32//15 30//15 31//15

g face 3
f 36//1 48//1 25//2
f 25//2 48//1 37//2
f 25//3 37//3 26//4
f 26//4 37//3 38//4
f 26//4 38//4 27//5
f 27//5 38//4 39//5
f 27//5 39//5 28//6
f 28//6 39//5 40//6
f 28//6 40//6 29//7
f 29//7 40//6 41//7
f 29//7 41//7 30//8
f 30//8 41//7 42//8
f 30//8 42//8 31//9
f 31//9 42//8 43//9
f 31//9 43//9 32//10
f 32//10 43//9 44//10
f 32//10 44//10 33//11
f 33//11 44//10 45//11
f 33//11 45//11 34//12
f 34//12 45//11 46//12
f 34//12 46//12 35//13
f 35//13 46//12 47//13
f 35//13 47//13 36//1
f 36//1 47//13 48//1

g face 4
f 48//15 54//15 37//15
f 37//15 54//15 55//15
f 37//15 55//15 56//15
f 54//15 48//15 53//15
f 53//15 48//15 47//15
f 53//15 47//15 52//15
f 52//15 47//15 46//15
f 52//15 46//15 51//15
f 51//15 46//15 45//15
f 51//15 45//15 44//15
f 51//15 44//15 50//15
f 50//15 44//15 43//15
f 50//15 43//15 49//15
f 49//15 43//15 60//15
f 60//15 43//15 42//15
f 60//15 42//15 59//15
f 59//15 42//15 41//15
f 59//15 41//15 58//15
f 58//15 41//15 40//15
f 58//15 40//15 39//15
f 58//15 39//15 57//15
f 57//15 39//15 38//15
f 57//15 38//15 56//15
f 56//15 38//15 37//15

g face 5
f 60//16 72//16 49//9
f 49//9 72//16 61//9
f 49//9 61//9 50//17
f 50//17 61//9 62//17
f 50//17 62//17 51//18
f 51//18 62//17 63//18
f 51//18 63//18 52//12
f 52//12 63//18 64//12
f 52//12 64//12 53//19
f 53//19 64//12 65//19
f 53//19 65//19 54//20
f 54//20 65//19 66//20
f 54//20 66//20 55//2
f 55//2 66//20 67//2
f 55//3 67//3 56//21
f 56//21 67//3 68//21
f 56//21 68//21 57//22
f 57//22 68//21 69//22
f 57//22 69//22 58//6
f 58//6 69//22 70//6
f 58//6 70//6 59//23
f 59//23 70//6 71//23
f 59//23 71//23 60//16
f 60//16 71//23 72//16

g face 6
f 62//14 61//14 7//14
f 7//14 61//14 72//14
f 7//14 72//14 8//14
f 8//14 72//14 71//14
f 8//14 71//14 9//14
f 9//14 71//14 10//14
f 10//14 71//14 70//14
f 10//14 70//14 11//14
f 11//14 70//14 69//14
f 11//14 69//14 12//14
f 12//14 69//14 68//14
f 12//14 68//14 1//14
f 1//14 68//14 67//14
f 1//14 67//14 66//14
f 1//14 66//14 2//14
f 2//14 66//14 65//14
f 2//14 65//14 3//14
f 3//14 65//14 64//14
f 3//14 64//14 4//14
f 4//14 64//14 5//14
f 5//14 64//14 63//14
f 5//14 63//14 6//14
f 6//14 63//14 62//14
f 6//14 62//14 7//14

g halfedge 0 edge 0
l 1 12 11 10 9 8 7 6 5 4 3 2 1

g halfedge 1 edge 0
l 1 2 3 4 5 6 7 8 9 10 11 12 1

g halfedge 2 edge 1
l 13 24 23 22 21 20 19 18 17 16 15 14 13

g halfedge 3 edge 1
l 13 14 15 16 17 18 19 20 21 22 23 24 13

g halfedge 4 edge 2
l 25 36 35 34 33 32 31 30 29 28 27 26 25

g halfedge 5 edge 2
l 25 26 27 28 29 30 31 32 33 34 35 36 25

g halfedge 6 edge 3
l 37 48 47 46 45 44 43 42 41 40 39 38 37

g halfedge 7 edge 3
l 37 38 39 40 41 42 43 44 45 46 47 48 37

g halfedge 8 edge 4
l 49 60 59 58 57 56 55 54 53 52 51 50 49

g halfedge 9 edge 4
l 49 50 51 52 53 54 55 56 57 58 59 60 49

g halfedge 10 edge 5
l 61 72 71 70 69 68 67 66 65 64 63 62 61

g halfedge 11 edge 5
l 61 62 63 64 65 66 67 68 69 70 71 72 61

g vertex 0
p 1

g vertex 1
p 13

g vertex 2
p 25

g vertex 3
p 37

g vertex 4
p 49

g vertex 5
p 61

# End of file
