# WaveFront *.obj file
# Vertices: 70
# Triangles : 140

v 8.2193266937686822e+00 3.8862001240253448e+01 -6.9723000089204874e+01
v 8.2193266937686822e+00 3.8874983500437594e+01 -6.9821610145389002e+01
v 8.2193266937686822e+00 3.8913045561411877e+01 -6.9913500089205002e+01
v 8.2193266937686822e+00 3.8973593556621722e+01 -6.9992407772837140e+01
v 8.2193266937686822e+00 3.9052501240253847e+01 -7.0052955768046971e+01
v 8.2193266937686822e+00 3.9144391184069853e+01 -7.0091017829021254e+01
v 8.2193266937686822e+00 3.9243001240253982e+01 -7.0104000089204874e+01
v 8.4574516937686806e+00 3.9243000843035176e+01 -7.0104000089204874e+01
v 8.4574516937686806e+00 3.9144390786851048e+01 -7.0091017829021254e+01
v 8.4574516937686806e+00 3.9052500843035041e+01 -7.0052955768046971e+01
v 8.4574516937686806e+00 3.8973593159402910e+01 -6.9992407772837140e+01
v 8.4574516937686806e+00 3.8913045164193072e+01 -6.9913500089205002e+01
v 8.4574516937686806e+00 3.8874983103218788e+01 -6.9821610145389002e+01
v 8.4574516937686806e+00 3.8862000843034643e+01 -6.9723000089204874e+01
v 8.4574516937686806e+00 3.9367854761664034e+01 -6.9318970366343123e+01
v 8.4574516937686806e+00 3.9458060332952456e+01 -6.9334023013883169e+01
v 8.4574516937686806e+00 3.9538490730908130e+01 -6.9377549768576444e+01
v 8.4574516937686806e+00 3.9600430073906338e+01 -6.9444833831164729e+01
v 8.4574516937686806e+00 3.9637166273045302e+01 -6.9528583929446810e+01
v 8.4574516937686806e+00 3.9644718391127448e+01 -6.9619724440757153e+01
v 8.4574516937686806e+00 3.9622268038975392e+01 -6.9708378876504526e+01
v 8.4574516937686806e+00 3.9572248060597914e+01 -6.9784940152960388e+01
v 8.4574516937686806e+00 3.9500078896792147e+01 -6.9841111667850171e+01
v 8.4574516937686806e+00 3.9413581196276397e+01 -6.9870806365944688e+01
v 8.4574516937686806e+00 3.9322128327051672e+01 -6.9870806365944688e+01
v 8.4574516937686806e+00 3.9235630626535922e+01 -6.9841111667850171e+01
v 8.4574516937686806e+00 3.9163461462730154e+01 -6.9784940152960388e+01
v 8.4574516937686806e+00 3.9113441484352677e+01 -6.9708378876504526e+01
v 8.4574516937686806e+00 3.9090991132200621e+01 -6.9619724440757153e+01
v 8.4574516937686806e+00 3.9098543250282766e+01 -6.9528583929446810e+01
v 8.4574516937686806e+00 3.9135279449421731e+01 -6.9444833831164729e+01
v 8.4574516937686806e+00 3.9197218792419939e+01 -6.9377549768576444e+01
v 8.4574516937686806e+00 3.9277649190375612e+01 -6.9334023013883169e+01
v 8.4574516937686806e+00 3.9494854761664037e+01 -7.0104000089204874e+01
v 8.4574516937686806e+00 3.9593464817848101e+01 -7.0091017829020998e+01
v 8.4574516937686806e+00 3.9685354761664037e+01 -7.0052955768046743e+01
v 8.4574516937686806e+00 3.9764262445296112e+01 -6.9992407772836941e+01
v 8.4574516937686806e+00 3.9824810440505907e+01 -6.9913500089204874e+01
v 8.4574516937686806e+00 3.9862872501480169e+01 -6.9821610145388931e+01
v 8.4574516937686806e+00 3.9875854761664037e+01 -6.9723000089204874e+01
v 8.4574516937686806e+00 3.9875854761664037e+01 -6.6294000089204872e+01
v 8.4574516937686806e+00 3.8862000843034643e+01 -6.6294000089204872e+01
v 8.2193266937686822e+00 3.9494854761664037e+01 -7.0104000089204874e+01
v 8.2193266937686822e+00 3.9593464817848101e+01 -7.0091017829020998e+01
v 8.2193266937686822e+00 3.9685354761664037e+01 -7.0052955768046743e+01
v 8.2193266937686822e+00 3.9764262445296112e+01 -6.9992407772836941e+01
v 8.2193266937686822e+00 3.9824810440505907e+01 -6.9913500089204874e+01
v 8.2193266937686822e+00 3.9862872501480169e+01 -6.9821610145388931e+01
v 8.2193266937686822e+00 3.9875854761664037e+01 -6.9723000089204874e+01
v 8.2193266937686822e+00 3.9367854761664034e+01 -6.9318970366343123e+01
v 8.2193266937686822e+00 3.9458060332952456e+01 -6.9334023013883169e+01
v 8.2193266937686822e+00 3.9538490730908130e+01 -6.9377549768576444e+01
v 8.2193266937686822e+00 3.9600430073906338e+01 -6.9444833831164729e+01
v 8.2193266937686822e+00 3.9637166273045302e+01 -6.9528583929446810e+01
v 8.2193266937686822e+00 3.9644718391127448e+01 -6.9619724440757153e+01
v 8.2193266937686822e+00 3.9622268038975392e+01 -6.9708378876504526e+01
v 8.2193266937686822e+00 3.9572248060597914e+01 -6.9784940152960388e+01
v 8.2193266937686822e+00 3.9500078896792147e+01 -6.9841111667850171e+01
v 8.2193266937686822e+00 3.9413581196276397e+01 -6.9870806365944688e+01
v 8.2193266937686822e+00 3.9322128327051672e+01 -6.9870806365944688e+01
v 8.2193266937686822e+00 3.9235630626535922e+01 -6.9841111667850171e+01
v 8.2193266937686822e+00 3.9163461462730154e+01 -6.9784940152960388e+01
v 8.2193266937686822e+00 3.9113441484352677e+01 -6.9708378876504526e+01
v 8.2193266937686822e+00 3.9090991132200621e+01 -6.9619724440757153e+01
v 8.2193266937686822e+00 3.9098543250282766e+01 -6.9528583929446810e+01
v 8.2193266937686822e+00 3.9135279449421731e+01 -6.9444833831164729e+01
v 8.2193266937686822e+00 3.9197218792419939e+01 -6.9377549768576444e+01
v 8.2193266937686822e+00 3.9277649190375612e+01 -6.9334023013883169e+01
v 8.2193266937686822e+00 3.8862001240253448e+01 -6.6294000089204872e+01
v 8.2193266937686822e+00 3.9875854761664037e+01 -6.6294000089204872e+01

vn -1.6681104688840070e-06 -9.9999999999860856e-01 -2.9140022829149735e-16
vn -1.6681104688840072e-06 -9.9999999999860878e-01 9.4703752883805537e-16
vn -1.6112709829980787e-06 -9.6592582628763379e-01 -2.5881904510285869e-01
vn -1.6112709829980792e-06 -9.6592582628763402e-01 -2.5881904510285780e-01
vn -1.4446260423718294e-06 -8.6602540378293857e-01 -5.0000000000051115e-01
vn -1.4446260423718298e-06 -8.6602540378293880e-01 -5.0000000000051081e-01
vn -1.1795322243153278e-06 -7.0710678118506909e-01 -7.0710678118704207e-01
vn -1.1795322243153121e-06 -7.0710678118505976e-01 -7.0710678118705139e-01
vn -8.3405523444114155e-07 -4.9999999999878758e-01 -8.6602540378473691e-01
vn -8.3405523444114134e-07 -4.9999999999878736e-01 -8.6602540378473725e-01
vn -4.3173875868151685e-07 -2.5881904510182491e-01 -9.6592582628915824e-01
vn -4.3173875868151537e-07 -2.5881904510182402e-01 -9.6592582628915846e-01
vn 8.9925278289254254e-21 5.3908467074899781e-15 -1.0000000000000000e+00
vn 1.0936858170314705e-20 6.5564351847851078e-15 -1.0000000000000000e+00
vn 1.0000000000000000e+00 0.0000000000000000e+00 0.0000000000000000e+00
vn 0.0000000000000000e+00 0.0000000000000000e+00 -1.0000000000000000e+00
vn -0.0000000000000000e+00 1.0000000000000000e+00 -0.0000000000000000e+00
vn -0.0000000000000000e+00 9.6592582628906976e-01 -2.5881904510251519e-01
vn -0.0000000000000000e+00 8.6602540378443771e-01 -5.0000000000000178e-01
vn -0.0000000000000000e+00 7.0710678118655690e-01 -7.0710678118653825e-01
vn -0.0000000000000000e+00 5.0000000000000178e-01 -8.6602540378443771e-01
vn -0.0000000000000000e+00 2.5881904510253717e-01 -9.6592582628906398e-01
vn -0.0000000000000000e+00 -3.2469946920467774e-01 -9.4581724170063652e-01
vn -0.0000000000000000e+00 -1.2246467991473532e-16 -1.0000000000000000e+00
vn 0.0000000000000000e+00 1.2246467991473532e-16 -1.0000000000000000e+00
vn 0.0000000000000000e+00 3.2469946920467774e-01 -9.4581724170063652e-01
vn 0.0000000000000000e+00 6.1421271268967881e-01 -7.8914050939638491e-01
vn 0.0000000000000000e+00 8.3716647826251778e-01 -5.4694815812244335e-01
vn 0.0000000000000000e+00 9.6940026593932527e-01 -2.4548548714081955e-01
vn 0.0000000000000000e+00 9.9658449300666918e-01 8.2579345472338805e-02
vn 0.0000000000000000e+00 9.1577332665505251e-01 4.0169542465298047e-01
vn 0.0000000000000000e+00 7.3572391067314558e-01 6.7728157162572600e-01
vn 0.0000000000000000e+00 4.7594739303707484e-01 8.7947375120648841e-01
vn 0.0000000000000000e+00 1.6459459028071954e-01 9.8636130340272477e-01
vn 0.0000000000000000e+00 -1.6459459028071954e-01 9.8636130340272477e-01
vn 0.0000000000000000e+00 -4.7594739303707484e-01 8.7947375120648841e-01
vn 0.0000000000000000e+00 -7.3572391067314558e-01 6.7728157162572600e-01
vn 0.0000000000000000e+00 -9.1577332665505251e-01 4.0169542465298047e-01
vn 0.0000000000000000e+00 -9.9658449300666918e-01 8.2579345472338805e-02
vn -0.0000000000000000e+00 -9.6940026593932527e-01 -2.4548548714081955e-01
vn -0.0000000000000000e+00 -8.3716647826251778e-01 -5.4694815812244335e-01
vn -0.0000000000000000e+00 -6.1421271268967881e-01 -7.8914050939638491e-01
vn -1.0000000000000000e+00 -0.0000000000000000e+00 -0.0000000000000000e+00
vn -1.6681104688840072e-06 -9.9999999999860878e-01 -0.0000000000000000e+00
vn -0.0000000000000000e+00 -0.0000000000000000e+00 1.0000000000000000e+00

g face 0
f 14//1 1//2 13//3
f 13//3 1//2 2//4
f 13//3 2//4 12//5
f 12//5 2//4 3//6
f 12//5 3//6 11//7
f 11//7 3//6 4//8
f 11//7 4//8 10//9
f 10//9 4//8 5//10
f 10//9 5//10 9//11
f 9//11 5//10 6//12
f 9//11 6//12 8//13
f 8//13 6//12 7//14

g face 1
f 16//15 41//15 15//15
f 15//15 41//15 42//15
f 15//15 42//15 33//15
f 33//15 42//15 32//15
f 32//15 42//15 31//15
f 31//15 42//15 14//15
f 31//15 14//15 30//15
f 30//15 14//15 29//15
f 29//15 14//15 12//15
f 29//15 12//15 11//15
f 16//15 17//15 41//15
f 41//15 17//15 18//15
f 41//15 18//15 40//15
f 40//15 18//15 19//15
f 40//15 19//15 20//15
f 21//15 36//15 20//15
f 20//15 36//15 37//15
f 20//15 37//15 38//15
f 36//15 21//15 35//15
f 35//15 21//15 22//15
f 35//15 22//15 23//15
f 35//15 23//15 34//15
f 34//15 23//15 24//15
f 34//15 24//15 8//15
f 8//15 24//15 25//15
f 8//15 25//15 26//15
f 8//15 26//15 9//15
f 9//15 26//15 27//15
f 9//15 27//15 28//15
f 9//15 28//15 10//15
f 10//15 28//15 29//15
f 10//15 29//15 11//15
f 14//15 13//15 12//15
f 39//15 40//15 38//15
f 38//15 40//15 20//15

g face 2
f 8//16 7//16 34//16
f 34//16 7//16 43//16

g face 3
f 49//17 40//17 48//18
f 48//18 40//17 39//18
f 48//18 39//18 47//19
f 47//19 39//18 38//19
f 47//19 38//19 46//20
f 46//20 38//19 37//20
f 46//20 37//20 45//21
f 45//21 37//20 36//21
f 45//21 36//21 44//22
f 44//22 36//21 35//22
f 44//22 35//22 43//16
f 43//16 35//22 34//16

g face 4
f 51//23 16//23 50//24
f 50//24 16//23 15//24
f 50//25 15//25 68//26
f 68//26 15//25 33//26
f 68//26 33//26 67//27
f 67//27 33//26 32//27
f 67//27 32//27 66//28
f 66//28 32//27 31//28
f 66//28 31//28 65//29
f 65//29 31//28 30//29
f 65//29 30//29 64//30
f 64//30 30//29 29//30
f 64//30 29//30 63//31
f 63//31 29//30 28//31
f 63//31 28//31 62//32
f 62//32 28//31 27//32
f 62//32 27//32 61//33
f 61//33 27//32 26//33
f 61//33 26//33 60//34
f 60//34 26//33 25//34
f 60//34 25//34 59//35
f 59//35 25//34 24//35
f 59//35 24//35 58//36
f 58//36 24//35 23//36
f 58//36 23//36 57//37
f 57//37 23//36 22//37
f 57//37 22//37 56//38
f 56//38 22//37 21//38
f 56//38 21//38 55//39
f 55//39 21//38 20//39
f 55//39 20//39 54//40
f 54//40 20//39 19//40
f 54//40 19//40 53//41
f 53//41 19//40 18//41
f 53//41 18//41 52//42
f 52//42 18//41 17//42
f 52//42 17//42 51//23
f 51//23 17//42 16//23

g face 5
f 6//43 61//43 7//43
f 7//43 61//43 60//43
f 7//43 60//43 59//43
f 5//43 63//43 6//43
f 6//43 63//43 62//43
f 6//43 62//43 61//43
f 63//43 5//43 64//43
f 64//43 5//43 4//43
f 64//43 4//43 3//43
f 2//43 1//43 3//43
f 3//43 1//43 64//43
f 69//43 66//43 1//43
f 1//43 66//43 65//43
f 1//43 65//43 64//43
f 70//43 50//43 69//43
f 69//43 50//43 68//43
f 69//43 68//43 67//43
f 49//43 53//43 70//43
f 70//43 53//43 52//43
f 70//43 52//43 51//43
f 48//43 47//43 49//43
f 49//43 47//43 55//43
f 49//43 55//43 54//43
f 47//43 46//43 55//43
f 55//43 46//43 45//43
f 55//43 45//43 56//43
f 56//43 45//43 44//43
f 56//43 44//43 57//43
f 57//43 44//43 58//43
f 58//43 44//43 43//43
f 58//43 43//43 59//43
f 59//43 43//43 7//43
f 67//43 66//43 69//43
f 54//43 53//43 49//43
f 51//43 50//43 70//43

g face 6
f 1//44 14//44 69//44
f 69//44 14//44 42//44

g face 7
f 40//17 49//17 41//17
f 41//17 49//17 70//17

g face 8
f 70//45 69//45 41//45
f 41//45 69//45 42//45

g halfedge 0 edge 0
l 7 6 5 4 3 2 1

g halfedge 1 edge 0
l 1 2 3 4 5 6 7

g halfedge 2 edge 1
l 8 7

g halfedge 3 edge 1
l 7 8

g halfedge 4 edge 2
l 14 13 12 11 10 9 8

g halfedge 5 edge 2
l 8 9 10 11 12 13 14

g halfedge 6 edge 3
l 1 14

g halfedge 7 edge 3
l 14 1

g halfedge 8 edge 4
l 15 16 17 18 19 20 21 22 23 24 25 26 27 28 29 30 31 32 33 15

g halfedge 9 edge 4
l 15 33 32 31 30 29 28 27 26 25 24 23 22 21 20 19 18 17 16 15

g halfedge 10 edge 5
l 8 34

g halfedge 11 edge 5
l 34 8

g halfedge 12 edge 6
l 34 35 36 37 38 39 40

g halfedge 13 edge 6
l 40 39 38 37 36 35 34

g halfedge 14 edge 7
l 41 40

g halfedge 15 edge 7
l 40 41

g halfedge 16 edge 8
l 41 42

g halfedge 17 edge 8
l 42 41

g halfedge 18 edge 9
l 42 14

g halfedge 19 edge 9
l 14 42

g halfedge 20 edge 10
l 43 7

g halfedge 21 edge 10
l 7 43

g halfedge 22 edge 11
l 43 34

g halfedge 23 edge 11
l 34 43

g halfedge 24 edge 12
l 49 48 47 46 45 44 43

g halfedge 25 edge 12
l 43 44 45 46 47 48 49

g halfedge 26 edge 13
l 40 49

g halfedge 27 edge 13
l 49 40

g halfedge 28 edge 14
l 50 68 67 66 65 64 63 62 61 60 59 58 57 56 55 54 53 52 51 50

g halfedge 29 edge 14
l 50 51 52 53 54 55 56 57 58 59 60 61 62 63 64 65 66 67 68 50

g halfedge 30 edge 15
l 69 1

g halfedge 31 edge 15
l 1 69

g halfedge 32 edge 16
l 69 70

g halfedge 33 edge 16
l 70 69

g halfedge 34 edge 17
l 49 70

g halfedge 35 edge 17
l 70 49

g halfedge 36 edge 18
l 42 69

g halfedge 37 edge 18
l 69 42

g halfedge 38 edge 19
l 70 41

g halfedge 39 edge 19
l 41 70

g vertex 0
p 1

g vertex 1
p 7

g vertex 2
p 8

g vertex 3
p 14

g vertex 4
p 15

g vertex 5
p 34

g vertex 6
p 40

g vertex 7
p 41

g vertex 8
p 42

g vertex 9
p 43

g vertex 10
p 49

g vertex 11
p 50

g vertex 12
p 69

g vertex 13
p 70

# End of file
