# WaveFront *.obj file
# Vertices: 62
# Triangles : 128

v 1.0287000019073485e+01 1.6509999752044678e+01 -2.9844999542236330e+01
v 1.0287000019073485e+01 1.6192499752044679e+01 -2.9930073410833213e+01
v 1.0287000019073485e+01 1.5960073620641561e+01 -3.0162499542236329e+01
v 1.0287000019073485e+01 1.5874999752044680e+01 -3.0479999542236328e+01
v 1.0287000019073485e+01 1.5960073620641561e+01 -3.0797499542236327e+01
v 1.0287000019073485e+01 1.6192499752044679e+01 -3.1029925673639443e+01
v 1.0287000019073485e+01 1.6509999752044678e+01 -3.1114999542236326e+01
v 1.0287000019073485e+01 1.6827499752044677e+01 -3.1029925673639443e+01
v 1.0287000019073485e+01 1.7059925883447793e+01 -3.0797499542236327e+01
v 1.0287000019073485e+01 1.7144999752044676e+01 -3.0479999542236328e+01
v 1.0287000019073485e+01 1.7059925883447793e+01 -3.0162499542236329e+01
v 1.0287000019073485e+01 1.6827499752044677e+01 -2.9930073410833213e+01
v 9.0170000190734854e+00 1.6509999752044678e+01 -2.9844999542236330e+01
v 9.0170000190734854e+00 1.6827499752044677e+01 -2.9930073410833213e+01
v 9.0170000190734854e+00 1.7059925883447793e+01 -3.0162499542236329e+01
v 9.0170000190734854e+00 1.7144999752044676e+01 -3.0479999542236328e+01
v 9.0170000190734854e+00 1.7059925883447793e+01 -3.0797499542236327e+01
v 9.0170000190734854e+00 1.6827499752044677e+01 -3.1029925673639443e+01
v 9.0170000190734854e+00 1.6509999752044678e+01 -3.1114999542236326e+01
v 9.0170000190734854e+00 1.6192499752044679e+01 -3.1029925673639443e+01
v 9.0170000190734854e+00 1.5960073620641561e+01 -3.0797499542236327e+01
v 9.0170000190734854e+00 1.5874999752044680e+01 -3.0479999542236328e+01
v 9.0170000190734854e+00 1.5960073620641561e+01 -3.0162499542236329e+01
v 9.0170000190734854e+00 1.6192499752044679e+01 -2.9930073410833213e+01
v 1.0287000019073485e+01 1.5239999771118164e+01 -2.8574999561309813e+01
v 1.0287000019073485e+01 1.4922499771118163e+01 -2.8660073429906696e+01
v 1.0287000019073485e+01 1.4690073639715044e+01 -2.8892499561309815e+01
v 1.0287000019073485e+01 1.4604999771118162e+01 -2.9209999561309814e+01
v 1.0287000019073485e+01 1.4690073639715044e+01 -2.9527499561309817e+01
v 1.0287000019073485e+01 1.4922499771118163e+01 -2.9759925692712933e+01
v 1.0287000019073485e+01 1.5239999771118164e+01 -2.9844999561309816e+01
v 1.0287000019073485e+01 1.5557499771118165e+01 -2.9759925692712933e+01
v 1.0287000019073485e+01 1.5789925902521285e+01 -2.9527499561309813e+01
v 1.0287000019073485e+01 1.5874999771118166e+01 -2.9209999561309814e+01
v 1.0287000019073485e+01 1.5789925902521285e+01 -2.8892499561309812e+01
v 1.0287000019073485e+01 1.5557499771118165e+01 -2.8660073429906696e+01
v 9.0170000190734854e+00 1.5239999771118164e+01 -2.8574999561309813e+01
v 9.0170000190734854e+00 1.5557499771118165e+01 -2.8660073429906696e+01
v 9.0170000190734854e+00 1.5789925902521285e+01 -2.8892499561309812e+01
v 9.0170000190734854e+00 1.5874999771118166e+01 -2.9209999561309814e+01
v 9.0170000190734854e+00 1.5789925902521285e+01 -2.9527499561309813e+01
v 9.0170000190734854e+00 1.5557499771118165e+01 -2.9759925692712933e+01
v 9.0170000190734854e+00 1.5239999771118164e+01 -2.9844999561309816e+01
v 9.0170000190734854e+00 1.4922499771118163e+01 -2.9759925692712933e+01
v 9.0170000190734854e+00 1.4690073639715044e+01 -2.9527499561309817e+01
v 9.0170000190734854e+00 1.4604999771118162e+01 -2.9209999561309814e+01
v 9.0170000190734854e+00 1.4690073639715044e+01 -2.8892499561309815e+01
v 9.0170000190734854e+00 1.4922499771118163e+01 -2.8660073429906696e+01
v 9.0170000190734854e+00 1.0982364773178169e+01 -2.3164848119031099e+01
v 9.0170000190734854e+00 1.0256183840101757e+01 -2.1679342108866123e+01
v 1.0287000019073485e+01 1.0256183840101757e+01 -2.1679342108866123e+01
v 1.0287000019073485e+01 1.0982364773178169e+01 -2.3164848119031099e+01
v 9.0170000190734854e+00 1.1369224845705030e+01 -2.2975733833046917e+01
v 1.0287000019073485e+01 1.1369224845705030e+01 -2.2975733833046917e+01
v 9.0170000190734854e+00 2.2557528798907946e+01 -3.6007081806332067e+01
v 1.0287000019073485e+01 2.2557528798907946e+01 -3.6007081806332067e+01
v 9.0170000190734854e+00 2.1023651890794056e+01 -3.7324020093143162e+01
v 1.0287000019073485e+01 2.1023651890794056e+01 -3.7324020093143162e+01
v 9.0170000190734854e+00 3.5500299501266799e+00 -1.6971976672184727e+01
v 1.0287000019073485e+01 3.5500299501266799e+00 -1.6971976672184727e+01
v 9.0170000190734854e+00 5.0839068582405780e+00 -1.5655038385373629e+01
v 1.0287000019073485e+01 5.0839068582405780e+00 -1.5655038385373629e+01

vn 0.0000000000000000e+00 5.0000000000000111e-01 -8.6602540378443793e-01
vn 0.0000000000000000e+00 1.2246467991473532e-16 -1.0000000000000000e+00
vn 0.0000000000000000e+00 -1.2246467991473532e-16 -1.0000000000000000e+00
vn 0.0000000000000000e+00 -5.0000000000000111e-01 -8.6602540378443793e-01
vn 0.0000000000000000e+00 -8.6602540378443804e-01 -5.0000000000000100e-01
vn 0.0000000000000000e+00 -1.0000000000000000e+00 6.1232339957367660e-17
vn 0.0000000000000000e+00 -8.6602540378443793e-01 5.0000000000000111e-01
vn 0.0000000000000000e+00 -5.0000000000000111e-01 8.6602540378443793e-01
vn 0.0000000000000000e+00 -0.0000000000000000e+00 1.0000000000000000e+00
vn -0.0000000000000000e+00 5.0000000000000111e-01 8.6602540378443793e-01
vn -0.0000000000000000e+00 8.6602540378443860e-01 4.9999999999999989e-01
vn -0.0000000000000000e+00 1.0000000000000000e+00 6.1232339957367660e-17
vn 0.0000000000000000e+00 8.6602540378443871e-01 -4.9999999999999978e-01
vn 0.0000000000000000e+00 5.0000000000000078e-01 -8.6602540378443815e-01
vn 0.0000000000000000e+00 -5.0000000000000078e-01 -8.6602540378443815e-01
vn 0.0000000000000000e+00 -8.6602540378443760e-01 -5.0000000000000178e-01
vn 0.0000000000000000e+00 -8.6602540378444015e-01 4.9999999999999739e-01
vn 0.0000000000000000e+00 -5.0000000000000078e-01 8.6602540378443815e-01
vn -0.0000000000000000e+00 5.0000000000000078e-01 8.6602540378443815e-01
vn -0.0000000000000000e+00 8.6602540378443771e-01 5.0000000000000167e-01
vn 0.0000000000000000e+00 8.6602540378444015e-01 -4.9999999999999750e-01
vn -0.0000000000000000e+00 8.9840021739856146e-01 4.3917769681328028e-01
vn 0.0000000000000000e+00 -4.3917769681327784e-01 8.9840021739856268e-01
vn -0.0000000000000000e+00 7.5872190258767314e-01 6.5141467172127887e-01
vn 0.0000000000000000e+00 6.5141467172128076e-01 -7.5872190258767158e-01
vn 0.0000000000000000e+00 -7.5872190258767291e-01 -6.5141467172127920e-01
vn 0.0000000000000000e+00 -6.5141467172128031e-01 7.5872190258767180e-01
vn 1.0000000000000000e+00 0.0000000000000000e+00 0.0000000000000000e+00
vn -1.0000000000000000e+00 -0.0000000000000000e+00 -0.0000000000000000e+00

g face 0
f 2//1 24//1 1//2
f 1//2 24//1 13//2
f 1//3 13//3 12//4
f 12//4 13//3 14//4
f 12//4 14//4 11//5
f 11//5 14//4 15//5
f 11//5 15//5 10//6
f 10//6 15//5 16//6
f 10//6 16//6 9//7
f 9//7 16//6 17//7
f 9//7 17//7 8//8
f 8//8 17//7 18//8
f 8//8 18//8 7//9
f 7//9 18//8 19//9
f 7//9 19//9 6//10
f 6//10 19//9 20//10
f 6//10 20//10 5//11
f 5//11 20//10 21//11
f 5//11 21//11 4//12
f 4//12 21//11 22//12
f 4//12 22//12 3//13
f 3//13 22//12 23//13
f 3//13 23//13 2//1
f 2//1 23//13 24//1

g face 1
f 26//14 48//14 25//2
f 25//2 48//14 37//2
f 25//3 37//3 36//15
f 36//15 37//3 38//15
f 36//15 38//15 35//16
f 35//16 38//15 39//16
f 35//16 39//16 34//6
f 34//6 39//16 40//6
f 34//6 40//6 33//17
f 33//17 40//6 41//17
f 33//17 41//17 32//18
f 32//18 41//17 42//18
f 32//18 42//18 31//9
f 31//9 42//18 43//9
f 31//9 43//9 30//19
f 30//19 43//9 44//19
f 30//19 44//19 29//20
f 29//20 44//19 45//20
f 29//20 45//20 28//12
f 28//12 45//20 46//12
f 28//12 46//12 27//21
f 27//21 46//12 47//21
f 27//21 47//21 26//14
f 26//14 47//21 48//14

g face 2
f 49//22 50//22 52//22
f 52//22 50//22 51//22

g face 3
f 53//23 49//23 54//23
f 54//23 49//23 52//23

g face 4
f 55//24 53//24 56//24
f 56//24 53//24 54//24

g face 5
f 57//25 55//25 58//25
f 58//25 55//25 56//25

g face 6
f 59//26 57//26 60//26
f 60//26 57//26 58//26

g face 7
f 61//27 59//27 62//27
f 62//27 59//27 60//27

g face 8
f 50//24 61//24 51//24
f 51//24 61//24 62//24

g face 9
f 26//28 25//28 54//28
f 54//28 25//28 36//28
f 54//28 36//28 35//28
f 34//28 1//28 35//28
f 35//28 1//28 12//28
f 35//28 12//28 54//28
f 54//28 12//28 11//28
f 54//28 11//28 56//28
f 56//28 11//28 10//28
f 56//28 10//28 9//28
f 1//28 34//28 2//28
f 2//28 34//28 33//28
f 2//28 33//28 3//28
f 3//28 33//28 32//28
f 3//28 32//28 4//28
f 4//28 32//28 31//28
f 4//28 31//28 5//28
f 5//28 31//28 30//28
f 5//28 30//28 58//28
f 58//28 30//28 29//28
f 58//28 29//28 60//28
f 60//28 29//28 52//28
f 60//28 52//28 51//28
f 29//28 28//28 52//28
f 52//28 28//28 27//28
f 52//28 27//28 54//28
f 54//28 27//28 26//28
f 56//28 9//28 58//28
f 58//28 9//28 8//28
f 58//28 8//28 7//28
f 7//28 6//28 58//28
f 58//28 6//28 5//28
f 51//28 62//28 60//28

g face 10
f 38//29 37//29 53//29
f 53//29 37//29 48//29
f 53//29 48//29 47//29
f 53//29 47//29 49//29
f 49//29 47//29 46//29
f 49//29 46//29 45//29
f 44//29 57//29 45//29
f 45//29 57//29 59//29
f 45//29 59//29 49//29
f 49//29 59//29 50//29
f 50//29 59//29 61//29
f 57//29 44//29 21//29
f 21//29 44//29 43//29
f 21//29 43//29 22//29
f 22//29 43//29 42//29
f 22//29 42//29 23//29
f 23//29 42//29 41//29
f 23//29 41//29 24//29
f 24//29 41//29 40//29
f 24//29 40//29 13//29
f 13//29 40//29 39//29
f 13//29 39//29 14//29
f 14//29 39//29 53//29
f 14//29 53//29 15//29
f 15//29 53//29 55//29
f 15//29 55//29 16//29
f 16//29 55//29 17//29
f 17//29 55//29 57//29
f 17//29 57//29 18//29
f 18//29 57//29 19//29
f 19//29 57//29 20//29
f 20//29 57//29 21//29
f 39//29 38//29 53//29

g halfedge 0 edge 0
l 1 2 3 4 5 6 7 8 9 10 11 12 1

g halfedge 1 edge 0
l 1 12 11 10 9 8 7 6 5 4 3 2 1

g halfedge 2 edge 1
l 13 14 15 16 17 18 19 20 21 22 23 24 13

g halfedge 3 edge 1
l 13 24 23 22 21 20 19 18 17 16 15 14 13

g halfedge 4 edge 2
l 25 26 27 28 29 30 31 32 33 34 35 36 25

g halfedge 5 edge 2
l 25 36 35 34 33 32 31 30 29 28 27 26 25

g halfedge 6 edge 3
l 37 38 39 40 41 42 43 44 45 46 47 48 37

g halfedge 7 edge 3
l 37 48 47 46 45 44 43 42 41 40 39 38 37

g halfedge 8 edge 4
l 49 50

g halfedge 9 edge 4
l 50 49

g halfedge 10 edge 5
l 51 50

g halfedge 11 edge 5
l 50 51

g halfedge 12 edge 6
l 51 52

g halfedge 13 edge 6
l 52 51

g halfedge 14 edge 7
l 49 52

g halfedge 15 edge 7
l 52 49

g halfedge 16 edge 8
l 53 49

g halfedge 17 edge 8
l 49 53

g halfedge 18 edge 9
l 52 54

g halfedge 19 edge 9
l 54 52

g halfedge 20 edge 10
l 53 54

g halfedge 21 edge 10
l 54 53

g halfedge 22 edge 11
l 55 53

g halfedge 23 edge 11
l 53 55

g halfedge 24 edge 12
l 54 56

g halfedge 25 edge 12
l 56 54

g halfedge 26 edge 13
l 55 56

g halfedge 27 edge 13
l 56 55

g halfedge 28 edge 14
l 57 55

g halfedge 29 edge 14
l 55 57

g halfedge 30 edge 15
l 56 58

g halfedge 31 edge 15
l 58 56

g halfedge 32 edge 16
l 57 58

g halfedge 33 edge 16
l 58 57

g halfedge 34 edge 17
l 59 57

g halfedge 35 edge 17
l 57 59

g halfedge 36 edge 18
l 58 60

g halfedge 37 edge 18
l 60 58

g halfedge 38 edge 19
l 59 60

g halfedge 39 edge 19
l 60 59

g halfedge 40 edge 20
l 61 59

g halfedge 41 edge 20
l 59 61

g halfedge 42 edge 21
l 60 62

g halfedge 43 edge 21
l 62 60

g halfedge 44 edge 22
l 61 62

g halfedge 45 edge 22
l 62 61

g halfedge 46 edge 23
l 50 61

g halfedge 47 edge 23
l 61 50

g halfedge 48 edge 24
l 62 51

g halfedge 49 edge 24
l 51 62

g vertex 0
p 1

g vertex 1
p 13

g vertex 2
p 25

g vertex 3
p 37

g vertex 4
p 49

g vertex 5
p 50

g vertex 6
p 51

g vertex 7
p 52

g vertex 8
p 53

g vertex 9
p 54

g vertex 10
p 55

g vertex 11
p 56

g vertex 12
p 57

g vertex 13
p 58

g vertex 14
p 59

g vertex 15
p 60

g vertex 16
p 61

g vertex 17
p 62

# End of file
