# WaveFront *.obj file
# Vertices: 80
# Triangles : 160

v 5.9210660972595210e+00 6.4115915194525224e+00 -1.9561074409054342e+01
v 5.9015049188972410e+00 6.3138447099062098e+00 -1.9553506127340714e+01
v 5.8466033344070878e+00 6.2319185388910325e+00 -1.9535124997846737e+01
v 5.7647207095328401e+00 6.1771142784470330e+00 -1.9516197636497697e+01
v 5.6670660972595197e+00 6.1575915194525201e+00 -1.9508061522313724e+01
v 5.5694114849862029e+00 6.1771142784470348e+00 -1.9516197636497697e+01
v 5.4875288601119525e+00 6.2319185388910343e+00 -1.9535124997846737e+01
v 5.4326272756218019e+00 6.3138447099062116e+00 -1.9553506127340714e+01
v 5.4130660972595219e+00 6.4115915194525224e+00 -1.9561074409054342e+01
v 5.4326272756218001e+00 6.5093383289988322e+00 -1.9553506127340714e+01
v 5.4875288601119534e+00 6.5912645000140087e+00 -1.9535124997846737e+01
v 5.5694114849862029e+00 6.6460687604580109e+00 -1.9516197636497697e+01
v 5.6670660972595215e+00 6.6655915194525228e+00 -1.9508061522313731e+01
v 5.7647207095328410e+00 6.6460687604580118e+00 -1.9516197636497697e+01
v 5.8466033344070896e+00 6.5912645000140104e+00 -1.9535124997846737e+01
v 5.9015049188972428e+00 6.5093383289988314e+00 -1.9553506127340714e+01
v 5.6670660972595215e+00 6.6655915194525219e+00 -1.8344087295794946e+01
v 5.5694114849862029e+00 6.6460687604580126e+00 -1.8335951181610987e+01
v 5.4875288601119534e+00 6.5912645000140095e+00 -1.8317023820261948e+01
v 5.4326272756218019e+00 6.5093383289988331e+00 -1.8298642690767970e+01
v 5.4130660972595219e+00 6.4115915194525224e+00 -1.8291074409054339e+01
v 5.4326272756218028e+00 6.3138447099062125e+00 -1.8298642690767970e+01
v 5.4875288601119552e+00 6.2319185388910361e+00 -1.8317023820261948e+01
v 5.5694114849862029e+00 6.1771142784470348e+00 -1.8335951181610987e+01
v 5.6670660972595215e+00 6.1575915194525219e+00 -1.8344087295794949e+01
v 5.7647207095328419e+00 6.1771142784470348e+00 -1.8335951181610987e+01
v 5.8466033344070887e+00 6.2319185388910361e+00 -1.8317023820261944e+01
v 5.9015049188972402e+00 6.3138447099062116e+00 -1.8298642690767970e+01
v 5.9210660972595228e+00 6.4115915194525224e+00 -1.8291074409054339e+01
v 5.9015049188972428e+00 6.5093383289988322e+00 -1.8298642690767970e+01
v 5.8466033344070896e+00 6.5912645000140095e+00 -1.8317023820261944e+01
v 5.7647207095328401e+00 6.6460687604580109e+00 -1.8335951181610984e+01
v 9.2710000190734849e+00 7.0465915194525222e+00 -1.8926074409054340e+01
v 9.2710000190734849e+00 7.0249544191460807e+00 -1.9090424502694443e+01
v 9.2710000190734849e+00 6.9615176508556411e+00 -1.9243574409054339e+01
v 9.2710000190734849e+00 6.8606043255059799e+00 -1.9375087215107797e+01
v 9.2710000190734849e+00 6.7290915194525223e+00 -1.9476000540457459e+01
v 9.2710000190734849e+00 6.5759416130926232e+00 -1.9539437308747900e+01
v 9.2710000190734849e+00 6.4115915194525224e+00 -1.9561074409054342e+01
v 9.2710000190734849e+00 6.2472414258124216e+00 -1.9539437308747900e+01
v 9.2710000190734849e+00 6.0940915194525225e+00 -1.9476000540457459e+01
v 9.2710000190734849e+00 5.9625787133990649e+00 -1.9375087215107797e+01
v 9.2710000190734849e+00 5.8616653880494036e+00 -1.9243574409054339e+01
v 9.2710000190734849e+00 5.7982286197589641e+00 -1.9090424502694439e+01
v 9.2710000190734849e+00 5.7765915194525226e+00 -1.8926074409054340e+01
v 9.2710000190734849e+00 5.7982286197589641e+00 -1.8761724315414238e+01
v 9.2710000190734849e+00 5.8616653880494036e+00 -1.8608574409054341e+01
v 9.2710000190734849e+00 5.9625787133990649e+00 -1.8477061603000884e+01
v 9.2710000190734849e+00 6.0940915194525225e+00 -1.8376148277651222e+01
v 9.2710000190734849e+00 6.2472414258124216e+00 -1.8312711509360781e+01
v 9.2710000190734849e+00 6.4115915194525224e+00 -1.8291074409054339e+01
v 9.2710000190734849e+00 6.5759416130926232e+00 -1.8312711509360781e+01
v 9.2710000190734849e+00 6.7290915194525223e+00 -1.8376148277651222e+01
v 9.2710000190734849e+00 6.8606043255059799e+00 -1.8477061603000884e+01
v 9.2710000190734849e+00 6.9615176508556411e+00 -1.8608574409054341e+01
v 9.2710000190734849e+00 7.0249544191460807e+00 -1.8761724315414241e+01
v 3.9370000190734857e+00 7.0465915194525222e+00 -1.8926074409054340e+01
v 3.9370000190734857e+00 7.0249544191460807e+00 -1.8761724315414238e+01
v 3.9370000190734857e+00 6.9615176508556411e+00 -1.8608574409054341e+01
v 3.9370000190734857e+00 6.8606043255059799e+00 -1.8477061603000884e+01
v 3.9370000190734857e+00 6.7290915194525223e+00 -1.8376148277651222e+01
v 3.9370000190734857e+00 6.5759416130926232e+00 -1.8312711509360781e+01
v 3.9370000190734857e+00 6.4115915194525224e+00 -1.8291074409054339e+01
v 3.9370000190734857e+00 6.2472414258124216e+00 -1.8312711509360781e+01
v 3.9370000190734857e+00 6.0940915194525225e+00 -1.8376148277651222e+01
v 3.9370000190734857e+00 5.9625787133990649e+00 -1.8477061603000884e+01
v 3.9370000190734857e+00 5.8616653880494036e+00 -1.8608574409054341e+01
v 3.9370000190734857e+00 5.7982286197589641e+00 -1.8761724315414241e+01
v 3.9370000190734857e+00 5.7765915194525226e+00 -1.8926074409054340e+01
v 3.9370000190734857e+00 5.7982286197589641e+00 -1.9090424502694443e+01
v 3.9370000190734857e+00 5.8616653880494036e+00 -1.9243574409054339e+01
v 3.9370000190734857e+00 5.9625787133990649e+00 -1.9375087215107797e+01
v 3.9370000190734857e+00 6.0940915194525225e+00 -1.9476000540457459e+01
v 3.9370000190734857e+00 6.2472414258124216e+00 -1.9539437308747900e+01
v 3.9370000190734857e+00 6.4115915194525224e+00 -1.9561074409054342e+01
v 3.9370000190734857e+00 6.5759416130926232e+00 -1.9539437308747900e+01
v 3.9370000190734857e+00 6.7290915194525223e+00 -1.9476000540457459e+01
v 3.9370000190734857e+00 6.8606043255059799e+00 -1.9375087215107797e+01
v 3.9370000190734857e+00 6.9615176508556411e+00 -1.9243574409054339e+01
v 3.9370000190734857e+00 7.0249544191460807e+00 -1.9090424502694439e+01

vn -9.2298748771143135e-01 3.8482995923932478e-01 -1.8138035316970964e-16
vn -9.2298748771143346e-01 3.8482995923931940e-01 -1.8138035316971045e-16
vn -1.0000000000000000e+00 1.2246467991473532e-16 -2.2204460492503126e-16
vn -1.0000000000000000e+00 -1.2246467991473532e-16 -2.2204460492503126e-16
vn -9.2298748771143757e-01 -3.8482995923930990e-01 -2.2850843094955466e-16
vn -9.2298748771143635e-01 -3.8482995923931279e-01 -2.2850843094955456e-16
vn -7.0683951925191024e-01 -7.0737394214356553e-01 -2.0026406350000755e-16
vn -7.0683951925190069e-01 7.0737394214357496e-01 -1.1363574009536864e-16
vn -7.0683951925191024e-01 7.0737394214356553e-01 -1.1363574009537132e-16
vn -3.8446697790751244e-01 9.2313874520500139e-01 -2.8842872741983870e-17
vn -3.8446697790752182e-01 9.2313874520499739e-01 -2.8842872741986205e-17
vn 8.2768827221835260e-15 1.0000000000000000e+00 6.1232339957369497e-17
vn 2.8327694488239893e-16 1.0000000000000000e+00 6.1232339957367722e-17
vn 3.8446697790751705e-01 9.2313874520499928e-01 1.4189476369040566e-16
vn 3.8446697790751622e-01 9.2313874520499983e-01 1.4189476369040553e-16
vn 7.0683951925191080e-01 7.0737394214356497e-01 2.0026406350000764e-16
vn 7.0683951925190858e-01 7.0737394214356741e-01 2.0026406350000732e-16
vn 9.2298748771143424e-01 3.8482995923931812e-01 2.2850843094955441e-16
vn 9.2298748771143480e-01 3.8482995923931640e-01 2.2850843094955446e-16
vn 1.0000000000000000e+00 3.6739403974420633e-16 2.2204460492503126e-16
vn 1.0000000000000000e+00 6.1232339957367204e-17 2.2204460492503126e-16
vn 9.2298748771143679e-01 -3.8482995923931190e-01 1.8138035316971164e-16
vn 9.2298748771143424e-01 -3.8482995923931812e-01 1.8138035316971070e-16
vn 7.0683951925191291e-01 -7.0737394214356297e-01 1.1363574009537206e-16
vn 7.0683951925191046e-01 -7.0737394214356530e-01 1.1363574009537137e-16
vn 3.8446697790751594e-01 -9.2313874520499983e-01 2.8842872741984763e-17
vn 3.8446697790751255e-01 -9.2313874520500139e-01 2.8842872741983894e-17
vn 1.3934999695075554e-15 -1.0000000000000000e+00 -6.1232339957367352e-17
vn 2.8327694488239893e-16 -1.0000000000000000e+00 -6.1232339957367599e-17
vn -3.8446697790751544e-01 -9.2313874520500006e-01 -1.4189476369040536e-16
vn -3.8446697790751466e-01 -9.2313874520500039e-01 -1.4189476369040519e-16
vn -7.0683951925190791e-01 -7.0737394214356775e-01 -2.0026406350000720e-16
vn -2.0635225019782492e-16 3.6925549759254173e-01 9.2932791709798779e-01
vn -1.9229626863835636e-16 5.0000000000000011e-01 8.6602540378443860e-01
vn -2.0350724194510425e-16 3.9999999999999764e-01 9.1651513899116899e-01
vn -1.9229626863835646e-16 4.9999999999999939e-01 8.6602540378443904e-01
vn -2.0635225019782453e-16 3.6925549759254606e-01 9.2932791709798601e-01
vn -2.1447861848524059e-16 2.5881904510252030e-01 9.6592582628906842e-01
vn -2.1297070460801076e-16 2.8294957580940683e-01 9.5913478591346946e-01
vn -2.1939815436792514e-16 1.5393198355882373e-01 9.8808144625716254e-01
vn -2.2204460492503128e-16 6.1232339957367660e-17 1.0000000000000000e+00
vn -2.1939815436792524e-16 -1.5393198355882232e-01 9.8808144625716277e-01
vn -2.1447861848524057e-16 -2.5881904510252035e-01 9.6592582628906831e-01
vn -2.1297070460801086e-16 -2.8294957580940550e-01 9.5913478591346979e-01
vn -2.0635225019782485e-16 -3.6925549759254245e-01 9.2932791709798757e-01
vn -1.9229626863835646e-16 -4.9999999999999944e-01 8.6602540378443904e-01
vn -2.0350724194510395e-16 -4.0000000000000080e-01 9.1651513899116765e-01
vn -1.9229626863835633e-16 -5.0000000000000022e-01 8.6602540378443849e-01
vn -2.1447861848524057e-16 -2.5881904510252085e-01 9.6592582628906831e-01
vn -2.1297070460801096e-16 -2.8294957580940394e-01 9.5913478591347023e-01
vn -2.1939815436792514e-16 -1.5393198355882382e-01 9.8808144625716254e-01
vn -2.1939815436792524e-16 1.5393198355882248e-01 9.8808144625716277e-01
vn -2.1447861848524057e-16 2.5881904510252074e-01 9.6592582628906831e-01
vn -2.1297070460801086e-16 2.8294957580940538e-01 9.5913478591346979e-01
vn 2.1939815436792526e-16 1.5393198355882157e-01 -9.8808144625716288e-01
vn 2.2204460492503128e-16 6.1232339957367660e-17 -1.0000000000000000e+00
vn 2.1939815436792516e-16 -1.5393198355882298e-01 -9.8808144625716265e-01
vn 2.1447861848524057e-16 -2.5881904510252085e-01 -9.6592582628906831e-01
vn 2.1297070460801076e-16 -2.8294957580940672e-01 -9.5913478591346946e-01
vn 2.0635225019782497e-16 -3.6925549759254078e-01 -9.2932791709798812e-01
vn 1.9229626863835633e-16 -5.0000000000000022e-01 -8.6602540378443849e-01
vn 2.0350724194510329e-16 -4.0000000000000746e-01 -9.1651513899116466e-01
vn 1.9229626863835646e-16 -4.9999999999999944e-01 -8.6602540378443904e-01
vn 2.0635225019782477e-16 -3.6925549759254328e-01 -9.2932791709798712e-01
vn 2.1447861848524057e-16 -2.5881904510252035e-01 -9.6592582628906831e-01
vn 2.1297070460801061e-16 -2.8294957580940927e-01 -9.5913478591346868e-01
vn 2.1939815436792511e-16 -1.5393198355882587e-01 -9.8808144625716221e-01
vn 2.1939815436792529e-16 1.5393198355882023e-01 -9.8808144625716321e-01
vn 2.1447861848524059e-16 2.5881904510252030e-01 -9.6592582628906842e-01
vn 2.1297070460801081e-16 2.8294957580940661e-01 -9.5913478591346957e-01
vn 2.0635225019782480e-16 3.6925549759254317e-01 -9.2932791709798723e-01
vn 1.9229626863835646e-16 4.9999999999999939e-01 -8.6602540378443904e-01
vn 2.0350724194510395e-16 4.0000000000000113e-01 -9.1651513899116765e-01
vn 1.9229626863835636e-16 5.0000000000000011e-01 -8.6602540378443860e-01
vn 2.0635225019782485e-16 3.6925549759254211e-01 -9.2932791709798757e-01
vn 2.1447861848524057e-16 2.5881904510252074e-01 -9.6592582628906831e-01
vn 2.1297070460801096e-16 2.8294957580940405e-01 -9.5913478591347023e-01
vn 5.7469372616863890e-17 9.6592582628906731e-01 -2.5881904510252440e-01
vn 5.7469372616862337e-17 9.6592582628906920e-01 -2.5881904510251741e-01
vn 2.0707598762051556e-31 1.0000000000000000e+00 -9.3258734068513153e-16
vn -2.0707598762051552e-31 1.0000000000000000e+00 9.3258734068513134e-16
vn -5.7469372616862337e-17 9.6592582628906920e-01 2.5881904510251741e-01
vn -5.7469372616863890e-17 9.6592582628906731e-01 2.5881904510252440e-01
vn -1.1102230246251520e-16 8.6602540378443993e-01 4.9999999999999800e-01
vn -1.1102230246251552e-16 8.6602540378443904e-01 4.9999999999999944e-01
vn -1.5700924586837722e-16 7.0710678118654891e-01 7.0710678118654635e-01
vn -1.5700924586837742e-16 7.0710678118654791e-01 7.0710678118654735e-01
vn 1.1102230246251520e-16 8.6602540378443993e-01 -4.9999999999999800e-01
vn 1.1102230246251552e-16 8.6602540378443904e-01 -4.9999999999999944e-01
vn 1.5700924586837722e-16 7.0710678118654891e-01 -7.0710678118654635e-01
vn 1.5700924586837742e-16 7.0710678118654791e-01 -7.0710678118654735e-01
vn 1.5700924586837722e-16 -7.0710678118654868e-01 -7.0710678118654635e-01
vn 1.5700924586837742e-16 -7.0710678118654791e-01 -7.0710678118654735e-01
vn 1.1102230246251521e-16 -8.6602540378443993e-01 -4.9999999999999806e-01
vn 1.1102230246251554e-16 -8.6602540378443893e-01 -4.9999999999999961e-01
vn 5.7469372616863508e-17 -9.6592582628906776e-01 -2.5881904510252274e-01
vn 5.7469372616862744e-17 -9.6592582628906876e-01 -2.5881904510251930e-01
vn 2.7192621468937816e-32 -1.0000000000000000e+00 -1.2246467991473532e-16
vn -2.7192621468937816e-32 -1.0000000000000000e+00 1.2246467991473532e-16
vn -5.7469372616862744e-17 -9.6592582628906876e-01 2.5881904510251930e-01
vn -5.7469372616863508e-17 -9.6592582628906776e-01 2.5881904510252274e-01
vn -1.1102230246251554e-16 -8.6602540378443893e-01 4.9999999999999961e-01
vn -1.1102230246251521e-16 -8.6602540378443993e-01 4.9999999999999806e-01
vn -1.5700924586837742e-16 -7.0710678118654791e-01 7.0710678118654735e-01
vn -1.5700924586837722e-16 -7.0710678118654868e-01 7.0710678118654635e-01
vn 1.0000000000000000e+00 0.0000000000000000e+00 2.2204460492503128e-16
vn -1.0000000000000000e+00 0.0000000000000000e+00 -2.2204460492503128e-16

g face 0
f 2//1 28//2 1//3
f 1//3 28//2 29//3
f 1//4 29//4 16//5
f 16//5 29//4 30//6
f 16//5 30//6 31//7
f 2//1 3//8 28//2
f 28//2 3//8 27//9
f 27//9 3//8 4//10
f 27//9 4//10 26//11
f 26//11 4//10 5//12
f 26//11 5//12 25//13
f 25//13 5//12 6//14
f 25//13 6//14 24//15
f 24//15 6//14 7//16
f 24//15 7//16 23//17
f 23//17 7//16 8//18
f 23//17 8//18 22//19
f 22//19 8//18 9//20
f 22//19 9//20 21//21
f 21//21 9//20 10//22
f 21//21 10//22 20//23
f 20//23 10//22 11//24
f 20//23 11//24 19//25
f 19//25 11//24 12//26
f 19//25 12//26 18//27
f 18//27 12//26 13//28
f 18//27 13//28 17//29
f 17//29 13//28 14//30
f 17//29 14//30 32//31
f 32//31 14//30 15//32
f 32//31 15//32 31//7
f 31//7 15//32 16//5

g face 1
f 32//33 53//34 17//35
f 17//35 53//34 61//36
f 17//35 61//36 18//37
f 18//37 61//36 62//38
f 18//37 62//38 19//39
f 19//39 62//38 20//40
f 20//40 62//38 63//41
f 20//40 63//41 21//41
f 21//41 63//41 22//42
f 22//42 63//41 64//43
f 22//42 64//43 23//44
f 23//44 64//43 24//45
f 24//45 64//43 65//46
f 24//45 65//46 25//47
f 25//47 65//46 49//48
f 25//47 49//48 26//45
f 26//45 49//48 50//49
f 26//45 50//49 27//50
f 27//50 50//49 28//51
f 28//51 50//49 51//41
f 28//51 51//41 29//41
f 29//41 51//41 30//52
f 30//52 51//41 52//53
f 30//52 52//53 31//54
f 31//54 52//53 32//33
f 32//33 52//53 53//34
f 10//55 9//56 75//56
f 75//56 9//56 8//57
f 75//56 8//57 74//58
f 74//58 8//57 7//59
f 74//58 7//59 6//60
f 74//58 6//60 73//61
f 73//61 6//60 5//62
f 73//61 5//62 41//63
f 41//63 5//62 4//64
f 41//63 4//64 40//65
f 40//65 4//64 3//66
f 40//65 3//66 2//67
f 40//65 2//67 39//56
f 39//56 2//67 1//56
f 39//56 1//56 16//68
f 39//56 16//68 38//69
f 38//69 16//68 15//70
f 38//69 15//70 14//71
f 38//69 14//71 37//72
f 37//72 14//71 13//73
f 37//72 13//73 77//74
f 77//74 13//73 12//75
f 77//74 12//75 76//76
f 76//76 12//75 11//77
f 76//76 11//77 10//55
f 76//76 10//55 75//56
f 34//78 80//79 33//80
f 33//80 80//79 57//81
f 33//80 57//81 56//82
f 56//82 57//81 58//83
f 56//82 58//83 55//84
f 55//84 58//83 59//85
f 55//84 59//85 54//86
f 54//86 59//85 60//87
f 54//86 60//87 53//34
f 53//34 60//87 61//36
f 80//79 34//78 79//88
f 79//88 34//78 35//89
f 79//88 35//89 78//90
f 78//90 35//89 36//91
f 78//90 36//91 77//74
f 77//74 36//91 37//72
f 73//61 41//63 72//92
f 72//92 41//63 42//93
f 72//92 42//93 71//94
f 71//94 42//93 43//95
f 71//94 43//95 70//96
f 70//96 43//95 44//97
f 70//96 44//97 69//98
f 69//98 44//97 45//98
f 69//99 45//99 68//100
f 68//100 45//99 46//101
f 68//100 46//101 67//102
f 67//102 46//101 47//103
f 67//102 47//103 66//104
f 66//104 47//103 48//105
f 66//104 48//105 65//46
f 65//46 48//105 49//48

g face 2
f 56//106 46//106 33//106
f 33//106 46//106 45//106
f 33//106 45//106 34//106
f 34//106 45//106 44//106
f 34//106 44//106 35//106
f 35//106 44//106 43//106
f 35//106 43//106 36//106
f 36//106 43//106 42//106
f 36//106 42//106 37//106
f 37//106 42//106 41//106
f 37//106 41//106 38//106
f 38//106 41//106 40//106
f 38//106 40//106 39//106
f 46//106 56//106 47//106
f 47//106 56//106 55//106
f 47//106 55//106 48//106
f 48//106 55//106 54//106
f 48//106 54//106 49//106
f 49//106 54//106 53//106
f 49//106 53//106 50//106
f 50//106 53//106 52//106
f 50//106 52//106 51//106

g face 3
f 80//107 70//107 57//107
f 57//107 70//107 69//107
f 57//107 69//107 58//107
f 58//107 69//107 68//107
f 58//107 68//107 59//107
f 59//107 68//107 67//107
f 59//107 67//107 60//107
f 60//107 67//107 66//107
f 60//107 66//107 61//107
f 61//107 66//107 65//107
f 61//107 65//107 62//107
f 62//107 65//107 64//107
f 62//107 64//107 63//107
f 70//107 80//107 71//107
f 71//107 80//107 79//107
f 71//107 79//107 72//107
f 72//107 79//107 78//107
f 72//107 78//107 73//107
f 73//107 78//107 77//107
f 73//107 77//107 74//107
f 74//107 77//107 76//107
f 74//107 76//107 75//107

g halfedge 0 edge 0
l 9 8 7 6 5 4 3 2 1

g halfedge 1 edge 0
l 1 2 3 4 5 6 7 8 9

g halfedge 2 edge 1
l 1 16 15 14 13 12 11 10 9

g halfedge 3 edge 1
l 9 10 11 12 13 14 15 16 1

g halfedge 4 edge 2
l 17 32 31 30 29 28 27 26 25 24 23 22 21 20 19 18 17

g halfedge 5 edge 2
l 17 18 19 20 21 22 23 24 25 26 27 28 29 30 31 32 17

g halfedge 6 edge 3
l 33 56 55 54 53 52 51 50 49 48 47 46 45 44 43 42 41 40 39 38 37 36 35 34 33

g halfedge 7 edge 3
l 33 34 35 36 37 38 39 40 41 42 43 44 45 46 47 48 49 50 51 52 53 54 55 56 33

g halfedge 8 edge 4
l 57 80 79 78 77 76 75 74 73 72 71 70 69 68 67 66 65 64 63 62 61 60 59 58 57

g halfedge 9 edge 4
l 57 58 59 60 61 62 63 64 65 66 67 68 69 70 71 72 73 74 75 76 77 78 79 80 57

g vertex 0
p 9

g vertex 1
p 1

g vertex 2
p 17

g vertex 3
p 33

g vertex 4
p 57

# End of file
