# WaveFront *.obj file
# Vertices: 89
# Triangles : 174

v 1.1507750248825946e+01 4.0803693278228387e+01 -2.0827999748801140e+01
v 1.1507750248825946e+01 4.0803693278228387e+01 -2.1335999745731502e+01
v 1.0237872499334353e+01 4.0786072229844009e+01 -2.1335999745731502e+01
v 1.0237872499334353e+01 4.0786072229844009e+01 -2.0827999748801140e+01
v 1.0677269750828474e+01 4.0792169383866622e+01 -2.0827999748801140e+01
v 1.0642253000846742e+01 4.0791683485246907e+01 -2.0830465434000402e+01
v 1.0611936265076022e+01 4.0791262804856146e+01 -2.0836625309221084e+01
v 1.0555442363103200e+01 4.0790478885474556e+01 -2.0859598116056226e+01
v 1.0506054449946570e+01 4.0789793570051330e+01 -2.0895379252432814e+01
v 1.0466621124999849e+01 4.0789246386255790e+01 -2.0941904931548081e+01
v 1.0439416826245049e+01 4.0788868894591872e+01 -2.0996491642136824e+01
v 1.0426010645064787e+01 4.0788682868049300e+01 -2.1055990928215600e+01
v 1.0427175824083452e+01 4.0788699036279567e+01 -2.1116970985939737e+01
v 1.0442845158026836e+01 4.0788916466730399e+01 -2.1175914603417510e+01
v 1.0472114869992490e+01 4.0789322618433545e+01 -2.1229422026695385e+01
v 1.0513296739554995e+01 4.0789894065343617e+01 -2.1274407050996391e+01
v 1.0564015476057792e+01 4.0790597847507115e+01 -2.1308275027047856e+01
v 1.0621345720788231e+01 4.0791393372128823e+01 -2.1329072515437574e+01
v 1.0681980776015168e+01 4.0792234754885840e+01 -2.1335599957224272e+01
v 1.0742423328924232e+01 4.0793073466446621e+01 -2.1327480862179314e+01
v 1.0776406436469559e+01 4.0793545022060961e+01 -2.1315947007387798e+01
v 1.0822413412682430e+01 4.0794183423004803e+01 -2.1290725595431315e+01
v 1.0857773036953457e+01 4.0794674079408864e+01 -2.1261414448875065e+01
v 1.0888490459872386e+01 4.0795100319805407e+01 -2.1224397820313719e+01
v 1.0911964028884530e+01 4.0795426043203179e+01 -2.1181891489633941e+01
v 1.0915158670463933e+01 4.0795470372615100e+01 -2.1174099397958784e+01
v 1.0918093217301335e+01 4.0795511092906352e+01 -2.1166205655544150e+01
v 1.0920764442291350e+01 4.0795548159297034e+01 -2.1158218943096148e+01
v 1.0929810095211529e+01 4.0795673678377781e+01 -2.1119049689112067e+01
v 1.0931754134926344e+01 4.0795700654216908e+01 -2.1102088640323302e+01
v 1.0932554343048800e+01 4.0795711758046430e+01 -2.1085035290570566e+01
v 1.0932207103364153e+01 4.0795706939687108e+01 -2.1067966705523517e+01
v 1.0927103498739587e+01 4.0795636121166140e+01 -2.1029686231985451e+01
v 1.0912484447123887e+01 4.0795433264618765e+01 -2.0983314914223477e+01
v 1.0891923931298878e+01 4.0795147963262536e+01 -2.0944733212171400e+01
v 1.0857781394712188e+01 4.0794674195382591e+01 -2.0902578494225679e+01
v 1.0823595030018968e+01 4.0794199819336065e+01 -2.0874080075651417e+01
v 1.0776409067298403e+01 4.0793545058566735e+01 -2.0848048079122403e+01
v 1.0727701178753541e+01 4.0792869179285375e+01 -2.0833102635778186e+01
v 1.1511979300387086e+01 4.0498922622033618e+01 -2.1335999745731502e+01
v 1.0242101550895493e+01 4.0481301573649240e+01 -2.1335999745731502e+01
v 1.1511979300387086e+01 4.0498922622033618e+01 -2.0827999745731500e+01
v 1.0242101550895493e+01 4.0481301573649240e+01 -2.0827999745731500e+01
v 1.0919238890943175e+01 4.1557497651213893e+01 -2.1119049689112067e+01
v 1.0921182930657992e+01 4.1557524627053020e+01 -2.1102088640323302e+01
v 1.0921983138780446e+01 4.1557535730882542e+01 -2.1085035290570566e+01
v 1.0921635899095799e+01 4.1557530912523220e+01 -2.1067966705523517e+01
v 1.0910193238022996e+01 4.1557372132133146e+01 -2.1158218943096148e+01
v 1.0901392824616176e+01 4.1557250016039291e+01 -2.1181891489633941e+01
v 1.0904587466195579e+01 4.1557294345451211e+01 -2.1174099397958784e+01
v 1.0907522013032981e+01 4.1557335065742464e+01 -2.1166205655544150e+01
v 1.0915363065320678e+01 4.1557443869571728e+01 -2.1024693041553029e+01
v 1.0901910884207174e+01 4.1557257204725992e+01 -2.0983315921531528e+01
v 1.0889236638496024e+01 4.1557081334649510e+01 -2.0957698696049754e+01
v 1.0875453714916466e+01 4.1556890080362741e+01 -2.0936046042666437e+01
v 1.0847202184875140e+01 4.1556498057132160e+01 -2.0902586537699086e+01
v 1.0805464184538794e+01 4.1555918893253015e+01 -2.0869018732897896e+01
v 1.0765845126825088e+01 4.1555369132196724e+01 -2.0848030887220688e+01
v 1.0733944508709225e+01 4.1554926473574213e+01 -2.0837017063953432e+01
v 1.0707264218388271e+01 4.1554556253144050e+01 -2.0831297090204082e+01
v 1.0666698546560120e+01 4.1553993356702740e+01 -2.0827999745731500e+01
v 1.0629701535667035e+01 4.1553479979632158e+01 -2.0830734495869450e+01
v 1.0601365060807668e+01 4.1553086777692258e+01 -2.0836625309221084e+01
v 1.0731852124655880e+01 4.1554897439282733e+01 -2.1327480862179314e+01
v 1.0765834172027084e+01 4.1555368980185911e+01 -2.1315944491823011e+01
v 1.0801235850815706e+01 4.1555860220145867e+01 -2.1297652478588894e+01
v 1.0822520155050874e+01 4.1556155564918136e+01 -2.1282985910715034e+01
v 1.0847210453702223e+01 4.1556498171871702e+01 -2.1261423115586265e+01
v 1.0877441650947967e+01 4.1556917665314757e+01 -2.1225097770740000e+01
v 1.0544871158834846e+01 4.1552302858310668e+01 -2.0859598116056226e+01
v 1.0495483245678216e+01 4.1551617542887442e+01 -2.0895379252432814e+01
v 1.0456049920731495e+01 4.1551070359091902e+01 -2.0941904931548081e+01
v 1.0428845621976695e+01 4.1550692867427983e+01 -2.0996491642136824e+01
v 1.0415439440796433e+01 4.1550506840885411e+01 -2.1055990928215600e+01
v 1.0416604619815098e+01 4.1550523009115679e+01 -2.1116970985939737e+01
v 1.0432273953758482e+01 4.1550740439566511e+01 -2.1175914603417510e+01
v 1.0461543665724136e+01 4.1551146591269656e+01 -2.1229422026695389e+01
v 1.0502725535286642e+01 4.1551718038179729e+01 -2.1274407050996391e+01
v 1.0553444271789438e+01 4.1552421820343227e+01 -2.1308275027047856e+01
v 1.0610774516519879e+01 4.1553217344964935e+01 -2.1329072515437574e+01
v 1.0671409571746816e+01 4.1554058727721952e+01 -2.1335599957224272e+01
v 1.1511979300387086e+01 4.1565722622033618e+01 -2.1335999745731502e+01
v 1.1511979300387086e+01 4.1565722622033618e+01 -2.0827999745731500e+01
v 1.0242101550895493e+01 4.1548101573649241e+01 -2.0827999745731500e+01
v 1.0242101550895493e+01 4.1548101573649241e+01 -2.1335999745731502e+01
v 1.1507750248825946e+01 4.1870493278228388e+01 -2.1335999745731502e+01
v 1.0237872499334353e+01 4.1852872229844010e+01 -2.1335999745731502e+01
v 1.1507750248825946e+01 4.1870493278228388e+01 -2.0827999748801140e+01
v 1.0237872499334353e+01 4.1852872229844010e+01 -2.0827999748801140e+01

vn -1.3874841247541347e-02 9.9990373975716063e-01 3.5865624006928958e-28
vn -2.5849394142282115e-26 0.0000000000000000e+00 -1.0000000000000000e+00
vn -1.3973351613699774e-10 1.0070029837606994e-08 1.0000000000000000e+00
vn 1.3874841247541347e-02 -9.9990373975716063e-01 -3.5865624006928958e-28
vn -9.9990373975716063e-01 -1.3874841247541347e-02 2.5846905873324728e-26
vn 9.9990373975716063e-01 1.3874841247539273e-02 -2.5846905873324728e-26
vn 9.9844831831041814e-01 1.3854645561968616e-02 5.3935187581485189e-02
vn 9.9844831831041814e-01 1.3854645561968616e-02 5.3935187581485418e-02
vn 9.9981563020548347e-01 1.3873618623800049e-02 -1.3275100869428024e-02
vn 9.9981563020548347e-01 1.3873618623800049e-02 -1.3275100869428246e-02
vn 9.9666468250930573e-01 1.3829895515939326e-02 -8.0425397907894922e-02
vn 9.9666468250930551e-01 1.3829895515939324e-02 -8.0425397907896004e-02
vn 9.8900971464685294e-01 1.3723673827167278e-02 -1.4721224511173056e-01
vn 9.8900971464685272e-01 1.3723673827167274e-02 -1.4721224511173117e-01
vn 9.8880234865854844e-01 1.3720796380014919e-02 -1.4859897386602730e-01
vn 9.5368129239692312e-01 1.3233450387895706e-02 -3.0052764984767288e-01
vn 9.8880234865854810e-01 1.3720796380014912e-02 -1.4859897386603038e-01
vn 9.5339100692642076e-01 1.3229422335335410e-02 -3.0144745860016636e-01
vn 9.5339100692642020e-01 1.3229422335335403e-02 -3.0144745860016781e-01
vn 9.4287263052900050e-01 1.3083467482989886e-02 -3.3289641854178076e-01
vn 9.4287263052900006e-01 1.3083467482989879e-02 -3.3289641854178242e-01
vn 9.3131738216653881e-01 1.2923124811760453e-02 -3.6397929408081020e-01
vn 9.3131738216653803e-01 1.2923124811760445e-02 -3.6397929408081187e-01
vn 9.1873796908355676e-01 1.2748570649620917e-02 -3.9466190354607700e-01
vn 9.1873796908355598e-01 1.2748570649620906e-02 -3.9466190354607883e-01
vn 1.9784992719664538e-01 2.7454006036179363e-03 9.8022847800082180e-01
vn 1.6006541776205019e-01 2.2210960639147551e-03 9.8710390981341745e-01
vn 1.6163881180175665e-09 2.2429287580559339e-11 1.0000000000000000e+00
vn 8.8252282644651539e-10 1.2246042921333721e-11 1.0000000000000000e+00
vn -1.3949785291540118e-01 -1.9356968942258071e-03 9.9022048156434672e-01
vn -1.4718120654869982e-01 -2.0423124689775869e-03 9.8910743673205082e-01
vn -2.5709108312324519e-01 -3.5674413672633076e-03 9.6638059186875624e-01
vn -2.5709108312324480e-01 -3.5674413672633024e-03 9.6638059186875636e-01
vn 2.6219643856534247e-01 3.6382841828812643e-03 9.6500766343685329e-01
vn 3.8782481966959836e-01 5.3815258317516622e-03 9.2171739075920978e-01
vn 3.8782492300442367e-01 5.3815272656439856e-03 9.2171734727133237e-01
vn 5.4264089776754376e-01 7.5297811295027524e-03 8.3993104387573159e-01
vn 5.7147812318675029e-01 7.9299315727923685e-03 8.2057898517095851e-01
vn 7.0510918352586816e-01 9.7842198149734327e-03 7.0903124638487969e-01
vn 7.0510919515229320e-01 9.7842199763037655e-03 7.0903123482054065e-01
vn 8.1623352655968673e-01 1.1326200864774219e-02 5.7761106922730276e-01
vn 8.3882950955831104e-01 1.1639746723712577e-02 5.4426975865867400e-01
vn 8.6932408770667613e-01 1.2062894886776523e-02 4.9409525103962071e-01
vn 9.2010745604037147e-01 1.2767573892993732e-02 3.9145786286112955e-01
vn 9.2010746165598245e-01 1.2767573970916943e-02 3.9145784965929820e-01
vn 9.7383556690788897e-01 1.3513114667746341e-02 2.2685167920288127e-01
vn 9.7813352407171061e-01 1.3572753881968300e-02 2.0753454998894910e-01
vn 9.9823280482804455e-01 1.3851655058747005e-02 5.7787533407030391e-02
vn 9.9823280482804455e-01 1.3851655058747005e-02 5.7787533407030627e-02
vn 9.1797388140258884e-01 1.2737968033737333e-02 -3.9643624611409722e-01
vn 8.2570209886791901e-01 1.1457588449792175e-02 -5.6399004210360726e-01
vn 9.1797388140258751e-01 1.2737968033737312e-02 -3.9643624611410033e-01
vn 8.2386584539060637e-01 1.1432108271576083e-02 -5.6666954717832552e-01
vn 7.0510919512891801e-01 9.7842199759778405e-03 -7.0903123484379094e-01
vn 7.0510920019825629e-01 9.7842200463208757e-03 -7.0903122980152333e-01
vn 6.0780981542191970e-01 8.4340765639283125e-03 -7.9403784206376826e-01
vn 5.6699271180840105e-01 7.8676912107152434e-03 -8.2368523368527624e-01
vn 5.2648154264726899e-01 7.3055510581051452e-03 -8.5015517064562351e-01
vn 3.8782482626161685e-01 5.3815259232235903e-03 -9.2171738798499636e-01
vn 3.8782482334861035e-01 5.3815258828021966e-03 -9.2171738921091861e-01
vn 2.5421449997931272e-01 3.5275253904842449e-03 -9.6714142945325610e-01
vn 2.5421449997929890e-01 3.5275253904840532e-03 -9.6714142945325976e-01
vn 2.5114429819100054e-01 3.4849227271309654e-03 -9.6794338512112144e-01
vn 2.5114429819098932e-01 3.4849227271308097e-03 -9.6794338512112432e-01
vn 1.3142061653525180e-02 1.8236157327726824e-04 -9.9991362274936113e-01
vn 1.3142061653513195e-02 1.8236157327710192e-04 -9.9991362274936135e-01
vn -2.2561818360441860e-01 -3.1307178437277377e-03 -9.7421077484948093e-01
vn -2.2561818360442984e-01 -3.1307178437278934e-03 -9.7421077484947838e-01
vn -4.5136520801641178e-01 -6.2632235053025577e-03 -8.9231733202018670e-01
vn -4.5136520801641583e-01 -6.2632235053026132e-03 -8.9231733202018471e-01
vn -6.5107835944768178e-01 -9.0344785381381802e-03 -7.5895674979306904e-01
vn -6.5107835944768455e-01 -9.0344785381382200e-03 -7.5895674979306671e-01
vn -8.1323856924916071e-01 -1.1284642307111015e-02 -5.8182100884514187e-01
vn -8.1323856924916904e-01 -1.1284642307111133e-02 -5.8182100884513033e-01
vn -9.2849274987773445e-01 -1.2883929714241037e-02 -3.7112695641734422e-01
vn -9.2849274987773556e-01 -1.2883929714241052e-02 -3.7112695641734184e-01
vn -9.9019326291180143e-01 -1.3740096952346246e-02 -1.3902701830874548e-01
vn -9.9019326291180154e-01 -1.3740096952346247e-02 -1.3902701830874459e-01
vn -9.9478134198956492e-01 -1.3803761949589434e-02 1.0109172956023360e-01
vn -9.4199235557581640e-01 -1.3071252631955752e-02 3.3537970181774002e-01
vn -9.4199235557581706e-01 -1.3071252631955761e-02 3.3537970181773835e-01
vn -8.3487107039752573e-01 -1.1584818721386168e-02 5.5032362096177756e-01
vn -8.3487107039752706e-01 -1.1584818721386185e-02 5.5032362096177534e-01
vn -6.7959603518270129e-01 -9.4301948534587805e-03 7.3352593709355540e-01
vn -6.7959603518270395e-01 -9.4301948534588169e-03 7.3352593709355274e-01
vn -4.8512321390922897e-01 -6.7316555692828791e-03 8.7441989463854086e-01
vn -4.8512321390923296e-01 -6.7316555692829337e-03 8.7441989463853886e-01
vn -2.6266942310907249e-01 -3.6448474001150471e-03 9.6487900238888868e-01
vn -2.6266942310907765e-01 -3.6448474001151178e-03 9.6487900238888735e-01

g face 0
f 2//1 31//1 1//1
f 1//1 31//1 32//1
f 1//1 32//1 33//1
f 3//1 19//1 2//1
f 2//1 19//1 20//1
f 2//1 20//1 21//1
f 4//1 12//1 3//1
f 3//1 12//1 13//1
f 3//1 13//1 14//1
f 5//1 6//1 4//1
f 4//1 6//1 7//1
f 4//1 7//1 8//1
f 8//1 9//1 4//1
f 4//1 9//1 10//1
f 4//1 10//1 11//1
f 11//1 12//1 4//1
f 14//1 15//1 3//1
f 3//1 15//1 16//1
f 3//1 16//1 17//1
f 17//1 18//1 3//1
f 3//1 18//1 19//1
f 21//1 22//1 2//1
f 2//1 22//1 23//1
f 2//1 23//1 24//1
f 24//1 25//1 2//1
f 2//1 25//1 26//1
f 2//1 26//1 27//1
f 27//1 28//1 2//1
f 2//1 28//1 29//1
f 2//1 29//1 30//1
f 30//1 31//1 2//1
f 33//1 34//1 1//1
f 1//1 34//1 35//1
f 1//1 35//1 36//1
f 36//1 37//1 1//1
f 1//1 37//1 38//1
f 1//1 38//1 39//1
f 39//1 5//1 1//1

g face 1
f 2//2 40//2 3//2
f 3//2 40//2 41//2

g face 2
f 1//3 5//3 42//3
f 42//3 5//3 43//3
f 43//3 5//3 4//3

g face 3
f 40//4 42//4 41//4
f 41//4 42//4 43//4

g face 4
f 43//5 4//5 41//5
f 41//5 4//5 3//5

g face 5
f 42//6 40//6 1//6
f 1//6 40//6 2//6

g face 6
f 47//7 32//8 46//9
f 46//9 32//8 31//10
f 46//9 31//10 45//11
f 45//11 31//10 30//12
f 45//11 30//12 44//13
f 44//13 30//12 29//14

g face 7
f 29//15 28//16 44//17
f 44//17 28//16 48//16

g face 8
f 48//18 28//19 51//20
f 51//20 28//19 27//21
f 51//20 27//21 50//22
f 50//22 27//21 26//23
f 50//22 26//23 49//24
f 49//24 26//23 25//25

g face 9
f 39//26 60//27 5//28
f 5//28 60//27 61//29
f 5//28 61//29 6//30
f 6//30 61//29 62//31
f 6//30 62//31 7//32
f 7//32 62//31 63//33
f 60//27 39//26 59//34
f 59//34 39//26 38//35
f 59//34 38//35 58//36
f 58//36 38//35 57//37
f 57//37 38//35 37//38
f 57//37 37//38 56//39
f 56//39 37//38 36//40
f 56//39 36//40 55//41
f 55//41 36//40 35//42
f 55//41 35//42 54//43
f 54//43 35//42 34//44
f 54//43 34//44 53//45
f 53//45 34//44 52//46
f 52//46 34//44 33//47
f 52//46 33//47 47//48
f 47//48 33//47 32//49

g face 10
f 25//50 24//51 49//52
f 49//52 24//51 69//53
f 69//53 24//51 23//54
f 69//53 23//54 68//55
f 68//55 23//54 67//56
f 67//56 23//54 22//57
f 67//56 22//57 66//58
f 66//58 22//57 21//59
f 66//58 21//59 65//60
f 65//60 21//59 20//61
f 65//60 20//61 64//62

g face 11
f 64//63 20//64 81//65
f 81//65 20//64 19//66
f 81//65 19//66 80//67
f 80//67 19//66 18//68
f 80//67 18//68 79//69
f 79//69 18//68 17//70
f 79//69 17//70 78//71
f 78//71 17//70 16//72
f 78//71 16//72 77//73
f 77//73 16//72 15//74
f 77//73 15//74 76//75
f 76//75 15//74 14//76
f 76//75 14//76 75//77
f 75//77 14//76 13//78
f 75//77 13//78 74//79
f 74//79 13//78 12//79
f 74//79 12//79 73//80
f 73//80 12//79 11//81
f 73//80 11//81 72//82
f 72//82 11//81 10//83
f 72//82 10//83 71//84
f 71//84 10//83 9//85
f 71//84 9//85 70//86
f 70//86 9//85 8//87
f 70//86 8//87 63//88
f 63//88 8//87 7//89

g face 12
f 83//4 46//4 82//4
f 82//4 46//4 45//4
f 82//4 45//4 44//4
f 61//4 60//4 83//4
f 83//4 60//4 59//4
f 83//4 59//4 58//4
f 58//4 57//4 83//4
f 83//4 57//4 56//4
f 83//4 56//4 55//4
f 55//4 54//4 83//4
f 83//4 54//4 53//4
f 83//4 53//4 52//4
f 52//4 47//4 83//4
f 83//4 47//4 46//4
f 44//4 48//4 82//4
f 82//4 48//4 51//4
f 82//4 51//4 50//4
f 50//4 49//4 82//4
f 82//4 49//4 69//4
f 82//4 69//4 68//4
f 68//4 67//4 82//4
f 82//4 67//4 66//4
f 82//4 66//4 65//4
f 65//4 64//4 82//4
f 82//4 64//4 81//4
f 82//4 81//4 85//4
f 85//4 81//4 80//4
f 85//4 80//4 79//4
f 79//4 78//4 85//4
f 85//4 78//4 77//4
f 85//4 77//4 76//4
f 76//4 75//4 85//4
f 85//4 75//4 74//4
f 85//4 74//4 84//4
f 84//4 74//4 73//4
f 84//4 73//4 72//4
f 72//4 71//4 84//4
f 84//4 71//4 70//4
f 84//4 70//4 63//4
f 63//4 62//4 84//4
f 84//4 62//4 61//4

g face 13
f 86//2 82//2 87//2
f 87//2 82//2 85//2

g face 14
f 88//1 86//1 89//1
f 89//1 86//1 87//1

g face 15
f 83//3 88//3 61//3
f 61//3 88//3 89//3
f 61//3 89//3 84//3

g face 16
f 84//5 89//5 85//5
f 85//5 89//5 87//5

g face 17
f 83//6 82//6 88//6
f 88//6 82//6 86//6

g halfedge 0 edge 0
l 1 2

g halfedge 1 edge 0
l 2 1

g halfedge 2 edge 1
l 2 3

g halfedge 3 edge 1
l 3 2

g halfedge 4 edge 2
l 3 4

g halfedge 5 edge 2
l 4 3

g halfedge 6 edge 3
l 5 4

g halfedge 7 edge 3
l 4 5

g halfedge 8 edge 4
l 7 6 5

g halfedge 9 edge 4
l 5 6 7

g halfedge 10 edge 5
l 20 19 18 17 16 15 14 13 12 11 10 9 8 7

g halfedge 11 edge 5
l 7 8 9 10 11 12 13 14 15 16 17 18 19 20

g halfedge 12 edge 6
l 25 24 23 22 21 20

g halfedge 13 edge 6
l 20 21 22 23 24 25

g halfedge 14 edge 7
l 28 27 26 25

g halfedge 15 edge 7
l 25 26 27 28

g halfedge 16 edge 8
l 29 28

g halfedge 17 edge 8
l 28 29

g halfedge 18 edge 9
l 32 31 30 29

g halfedge 19 edge 9
l 29 30 31 32

g halfedge 20 edge 10
l 5 39 38 37 36 35 34 33 32

g halfedge 21 edge 10
l 32 33 34 35 36 37 38 39 5

g halfedge 22 edge 11
l 1 5

g halfedge 23 edge 11
l 5 1

g halfedge 24 edge 12
l 2 40

g halfedge 25 edge 12
l 40 2

g halfedge 26 edge 13
l 41 40

g halfedge 27 edge 13
l 40 41

g halfedge 28 edge 14
l 41 3

g halfedge 29 edge 14
l 3 41

g halfedge 30 edge 15
l 42 1

g halfedge 31 edge 15
l 1 42

g halfedge 32 edge 16
l 4 43

g halfedge 33 edge 16
l 43 4

g halfedge 34 edge 17
l 42 43

g halfedge 35 edge 17
l 43 42

g halfedge 36 edge 18
l 40 42

g halfedge 37 edge 18
l 42 40

g halfedge 38 edge 19
l 43 41

g halfedge 39 edge 19
l 41 43

g halfedge 40 edge 20
l 29 44

g halfedge 41 edge 20
l 44 29

g halfedge 42 edge 21
l 47 46 45 44

g halfedge 43 edge 21
l 44 45 46 47

g halfedge 44 edge 22
l 32 47

g halfedge 45 edge 22
l 47 32

g halfedge 46 edge 23
l 28 48

g halfedge 47 edge 23
l 48 28

g halfedge 48 edge 24
l 44 48

g halfedge 49 edge 24
l 48 44

g halfedge 50 edge 25
l 25 49

g halfedge 51 edge 25
l 49 25

g halfedge 52 edge 26
l 48 51 50 49

g halfedge 53 edge 26
l 49 50 51 48

g halfedge 54 edge 27
l 61 60 59 58 57 56 55 54 53 52 47

g halfedge 55 edge 27
l 47 52 53 54 55 56 57 58 59 60 61

g halfedge 56 edge 28
l 63 62 61

g halfedge 57 edge 28
l 61 62 63

g halfedge 58 edge 29
l 7 63

g halfedge 59 edge 29
l 63 7

g halfedge 60 edge 30
l 64 20

g halfedge 61 edge 30
l 20 64

g halfedge 62 edge 31
l 49 69 68 67 66 65 64

g halfedge 63 edge 31
l 64 65 66 67 68 69 49

g halfedge 64 edge 32
l 64 81 80 79 78 77 76 75 74 73 72 71 70 63

g halfedge 65 edge 32
l 63 70 71 72 73 74 75 76 77 78 79 80 81 64

g halfedge 66 edge 33
l 82 83

g halfedge 67 edge 33
l 83 82

g halfedge 68 edge 34
l 83 61

g halfedge 69 edge 34
l 61 83

g halfedge 70 edge 35
l 61 84

g halfedge 71 edge 35
l 84 61

g halfedge 72 edge 36
l 84 85

g halfedge 73 edge 36
l 85 84

g halfedge 74 edge 37
l 85 82

g halfedge 75 edge 37
l 82 85

g halfedge 76 edge 38
l 86 82

g halfedge 77 edge 38
l 82 86

g halfedge 78 edge 39
l 85 87

g halfedge 79 edge 39
l 87 85

g halfedge 80 edge 40
l 86 87

g halfedge 81 edge 40
l 87 86

g halfedge 82 edge 41
l 88 86

g halfedge 83 edge 41
l 86 88

g halfedge 84 edge 42
l 87 89

g halfedge 85 edge 42
l 89 87

g halfedge 86 edge 43
l 88 89

g halfedge 87 edge 43
l 89 88

g halfedge 88 edge 44
l 83 88

g halfedge 89 edge 44
l 88 83

g halfedge 90 edge 45
l 89 84

g halfedge 91 edge 45
l 84 89

g vertex 0
p 1

g vertex 1
p 2

g vertex 2
p 3

g vertex 3
p 4

g vertex 4
p 5

g vertex 5
p 7

g vertex 6
p 20

g vertex 7
p 25

g vertex 8
p 28

g vertex 9
p 29

g vertex 10
p 32

g vertex 11
p 40

g vertex 12
p 41

g vertex 13
p 42

g vertex 14
p 43

g vertex 15
p 44

g vertex 16
p 47

g vertex 17
p 48

g vertex 18
p 49

g vertex 19
p 61

g vertex 20
p 63

g vertex 21
p 64

g vertex 22
p 82

g vertex 23
p 83

g vertex 24
p 84

g vertex 25
p 85

g vertex 26
p 86

g vertex 27
p 87

g vertex 28
p 88

g vertex 29
p 89

# End of file
