# WaveFront *.obj file
# Vertices: 108
# Triangles : 220

v -2.2859999809265137e+00 1.9684999999999999e+01 -3.9877999408721926e+01
v -2.2009261123296322e+00 2.0002499999999998e+01 -3.9877999408721926e+01
v -1.9684999809265138e+00 2.0234926131403117e+01 -3.9877999408721926e+01
v -1.6509999809265137e+00 2.0320000000000000e+01 -3.9877999408721926e+01
v -1.3334999809265136e+00 2.0234926131403117e+01 -3.9877999408721926e+01
v -1.1010738495233952e+00 2.0002499999999998e+01 -3.9877999408721926e+01
v -1.0159999809265137e+00 1.9684999999999999e+01 -3.9877999408721926e+01
v -1.0159999809265137e+00 0.0000000000000000e+00 -3.9877999408721926e+01
v -2.2859999809265137e+00 0.0000000000000000e+00 -3.9877999408721926e+01
v -2.2859999809265137e+00 1.9684999999999999e+01 -2.7939994087219304e+00
v -2.2009261123296322e+00 2.0002499999999998e+01 -2.7939994087219304e+00
v -1.9684999809265138e+00 2.0234926131403117e+01 -2.7939994087219304e+00
v -1.6509999809265137e+00 2.0320000000000000e+01 -2.7939994087219304e+00
v -1.3334999809265138e+00 2.0234926131403117e+01 -2.7939994087219304e+00
v -1.1010738495233952e+00 2.0002499999999998e+01 -2.7939994087219304e+00
v -1.0159999809265137e+00 1.9684999999999999e+01 -2.7939994087219304e+00
v -1.0159999809265141e+00 7.7420627425749480e+00 -1.4983632300262187e+01
v -1.0159999809265141e+00 8.0595627425749470e+00 -1.5068706168859068e+01
v -1.0159999809265141e+00 8.2919888739780649e+00 -1.5301132300262186e+01
v -1.0159999809265141e+00 8.3770627425749460e+00 -1.5618632300262185e+01
v -1.0159999809265141e+00 8.2919888739780649e+00 -1.5936132300262184e+01
v -1.0159999809265141e+00 8.0595627425749470e+00 -1.6168558431665300e+01
v -1.0159999809265141e+00 7.7420627425749480e+00 -1.6253632300262183e+01
v -1.0159999809265141e+00 7.4245627425749490e+00 -1.6168558431665300e+01
v -1.0159999809265141e+00 7.1921366111718310e+00 -1.5936132300262184e+01
v -1.0159999809265141e+00 7.1070627425749500e+00 -1.5618632300262185e+01
v -1.0159999809265141e+00 7.1921366111718310e+00 -1.5301132300262186e+01
v -1.0159999809265141e+00 7.4245627425749490e+00 -1.5068706168859068e+01
v -1.0159999809265137e+00 0.0000000000000000e+00 -2.7939994087219304e+00
v -1.0159999809265137e+00 1.6438142374019090e+01 -1.4970847916713758e+01
v -1.0159999809265137e+00 1.6755642374019089e+01 -1.5055921785310639e+01
v -1.0159999809265137e+00 1.6988068505422209e+01 -1.5288347916713759e+01
v -1.0159999809265137e+00 1.7073142374019092e+01 -1.5605847916713760e+01
v -1.0159999809265137e+00 1.6988068505422209e+01 -1.5923347916713761e+01
v -1.0159999809265137e+00 1.6755642374019093e+01 -1.6155774048116879e+01
v -1.0159999809265137e+00 1.6438142374019090e+01 -1.6240847916713761e+01
v -1.0159999809265137e+00 1.6120642374019091e+01 -1.6155774048116879e+01
v -1.0159999809265137e+00 1.5888216242615970e+01 -1.5923347916713761e+01
v -1.0159999809265137e+00 1.5803142374019089e+01 -1.5605847916713760e+01
v -1.0159999809265137e+00 1.5888216242615970e+01 -1.5288347916713759e+01
v -1.0159999809265137e+00 1.6120642374019088e+01 -1.5055921785310639e+01
v 1.6510000019073487e+01 1.9684999999999999e+01 -3.9877999408721926e+01
v 1.6595073887670370e+01 2.0002500000000001e+01 -3.9877999408721926e+01
v 1.6827500019073486e+01 2.0234926131403117e+01 -3.9877999408721926e+01
v 1.7145000019073485e+01 2.0320000000000000e+01 -3.9877999408721926e+01
v 1.7462500019073484e+01 2.0234926131403117e+01 -3.9877999408721926e+01
v 1.7694926150476608e+01 2.0002500000000001e+01 -3.9877999408721926e+01
v 1.7780000019073487e+01 1.9684999999999999e+01 -3.9877999408721926e+01
v 1.7780000019073487e+01 0.0000000000000000e+00 -3.9877999408721926e+01
v 1.6510000019073487e+01 0.0000000000000000e+00 -3.9877999408721926e+01
v 1.6510000019073487e+01 1.9684999999999999e+01 -2.7939994087219304e+00
v 1.6595073887670367e+01 2.0002500000000001e+01 -2.7939994087219304e+00
v 1.6827500019073486e+01 2.0234926131403117e+01 -2.7939994087219304e+00
v 1.7145000019073489e+01 2.0320000000000000e+01 -2.7939994087219304e+00
v 1.7462500019073484e+01 2.0234926131403117e+01 -2.7939994087219304e+00
v 1.7694926150476604e+01 2.0002499999999998e+01 -2.7939994087219304e+00
v 1.7780000019073487e+01 1.9684999999999999e+01 -2.7939994087219304e+00
v 1.6510000019073487e+01 1.6438142374019090e+01 -1.4970847916713758e+01
v 1.6510000019073487e+01 1.6755642374019093e+01 -1.5055921785310639e+01
v 1.6510000019073487e+01 1.6988068505422209e+01 -1.5288347916713759e+01
v 1.6510000019073487e+01 1.7073142374019092e+01 -1.5605847916713760e+01
v 1.6510000019073487e+01 1.6988068505422209e+01 -1.5923347916713761e+01
v 1.6510000019073487e+01 1.6755642374019089e+01 -1.6155774048116879e+01
v 1.6510000019073487e+01 1.6438142374019090e+01 -1.6240847916713761e+01
v 1.6510000019073487e+01 1.6120642374019088e+01 -1.6155774048116879e+01
v 1.6510000019073487e+01 1.5888216242615970e+01 -1.5923347916713761e+01
v 1.6510000019073487e+01 1.5803142374019089e+01 -1.5605847916713760e+01
v 1.6510000019073487e+01 1.5888216242615970e+01 -1.5288347916713759e+01
v 1.6510000019073487e+01 1.6120642374019091e+01 -1.5055921785310639e+01
v 1.7780000019073487e+01 1.6438142374019090e+01 -1.4970847916713758e+01
v 1.7780000019073487e+01 1.6120642374019088e+01 -1.5055921785310639e+01
v 1.7780000019073487e+01 1.5888216242615970e+01 -1.5288347916713759e+01
v 1.7780000019073487e+01 1.5803142374019089e+01 -1.5605847916713760e+01
v 1.7780000019073487e+01 1.5888216242615970e+01 -1.5923347916713761e+01
v 1.7780000019073487e+01 1.6120642374019091e+01 -1.6155774048116879e+01
v 1.7780000019073487e+01 1.6438142374019090e+01 -1.6240847916713761e+01
v 1.7780000019073487e+01 1.6755642374019093e+01 -1.6155774048116879e+01
v 1.7780000019073487e+01 1.6988068505422209e+01 -1.5923347916713761e+01
v 1.7780000019073487e+01 1.7073142374019092e+01 -1.5605847916713760e+01
v 1.7780000019073487e+01 1.6988068505422209e+01 -1.5288347916713759e+01
v 1.7780000019073487e+01 1.6755642374019089e+01 -1.5055921785310639e+01
v -2.2859999809265137e+00 1.6438142374019090e+01 -1.4970847916713758e+01
v -2.2859999809265137e+00 1.6755642374019093e+01 -1.5055921785310639e+01
v -2.2859999809265137e+00 1.6988068505422209e+01 -1.5288347916713759e+01
v -2.2859999809265137e+00 1.7073142374019092e+01 -1.5605847916713760e+01
v -2.2859999809265137e+00 1.6988068505422209e+01 -1.5923347916713761e+01
v -2.2859999809265137e+00 1.6755642374019089e+01 -1.6155774048116879e+01
v -2.2859999809265137e+00 1.6438142374019090e+01 -1.6240847916713761e+01
v -2.2859999809265137e+00 1.6120642374019088e+01 -1.6155774048116879e+01
v -2.2859999809265137e+00 1.5888216242615970e+01 -1.5923347916713761e+01
v -2.2859999809265137e+00 1.5803142374019089e+01 -1.5605847916713760e+01
v -2.2859999809265137e+00 1.5888216242615970e+01 -1.5288347916713759e+01
v -2.2859999809265137e+00 1.6120642374019091e+01 -1.5055921785310639e+01
v -2.2859999809265137e+00 0.0000000000000000e+00 -2.7939994087219304e+00
v 1.6510000019073487e+01 7.7420627425749480e+00 -1.4983632300262187e+01
v 1.6510000019073487e+01 8.0595627425749470e+00 -1.5068706168859068e+01
v 1.6510000019073487e+01 8.2919888739780649e+00 -1.5301132300262186e+01
v 1.6510000019073487e+01 8.3770627425749460e+00 -1.5618632300262185e+01
v 1.6510000019073487e+01 8.2919888739780649e+00 -1.5936132300262184e+01
v 1.6510000019073487e+01 8.0595627425749470e+00 -1.6168558431665300e+01
v 1.6510000019073487e+01 7.7420627425749480e+00 -1.6253632300262183e+01
v 1.6510000019073487e+01 7.4245627425749490e+00 -1.6168558431665300e+01
v 1.6510000019073487e+01 7.1921366111718310e+00 -1.5936132300262184e+01
v 1.6510000019073487e+01 7.1070627425749500e+00 -1.5618632300262185e+01
v 1.6510000019073487e+01 7.1921366111718310e+00 -1.5301132300262186e+01
v 1.6510000019073487e+01 7.4245627425749490e+00 -1.5068706168859068e+01
v 1.7780000019073487e+01 0.0000000000000000e+00 -2.7939994087219304e+00
v 1.6510000019073487e+01 0.0000000000000000e+00 -2.7939994087219304e+00

vn 0.0000000000000000e+00 0.0000000000000000e+00 -1.0000000000000000e+00
vn 1.0000000000000000e+00 0.0000000000000000e+00 0.0000000000000000e+00
vn 8.6602540378443926e-01 4.9999999999999883e-01 0.0000000000000000e+00
vn 4.9999999999999972e-01 8.6602540378443893e-01 0.0000000000000000e+00
vn 5.0000000000000000e-01 8.6602540378443871e-01 0.0000000000000000e+00
vn -0.0000000000000000e+00 1.0000000000000000e+00 -0.0000000000000000e+00
vn -5.0000000000000011e-01 8.6602540378443860e-01 -0.0000000000000000e+00
vn -8.6602540378443937e-01 4.9999999999999895e-01 -0.0000000000000000e+00
vn -1.0000000000000000e+00 8.7419135797256425e-17 -0.0000000000000000e+00
vn 8.6602540378443937e-01 4.9999999999999867e-01 0.0000000000000000e+00
vn 8.6602540378443849e-01 5.0000000000000033e-01 0.0000000000000000e+00
vn 4.9999999999999867e-01 8.6602540378443948e-01 0.0000000000000000e+00
vn 5.5948246910244112e-15 1.0000000000000000e+00 0.0000000000000000e+00
vn -4.9999999999999867e-01 8.6602540378443937e-01 -0.0000000000000000e+00
vn -8.6602540378443693e-01 5.0000000000000289e-01 -0.0000000000000000e+00
vn -8.6602540378443560e-01 5.0000000000000533e-01 -0.0000000000000000e+00
vn -1.0000000000000000e+00 -1.7483827159451285e-16 -0.0000000000000000e+00
vn -0.0000000000000000e+00 -5.0000000000000144e-01 -8.6602540378443782e-01
vn -0.0000000000000000e+00 -4.9999999999999761e-01 -8.6602540378444004e-01
vn -0.0000000000000000e+00 -1.2246467991473532e-16 -1.0000000000000000e+00
vn 0.0000000000000000e+00 1.2246467991473532e-16 -1.0000000000000000e+00
vn 0.0000000000000000e+00 4.9999999999999761e-01 -8.6602540378444004e-01
vn 0.0000000000000000e+00 5.0000000000000144e-01 -8.6602540378443782e-01
vn 0.0000000000000000e+00 8.6602540378443904e-01 -4.9999999999999939e-01
vn 0.0000000000000000e+00 1.0000000000000000e+00 6.1232339957367660e-17
vn 0.0000000000000000e+00 8.6602540378443904e-01 4.9999999999999950e-01
vn 0.0000000000000000e+00 5.0000000000000289e-01 8.6602540378443693e-01
vn 0.0000000000000000e+00 4.9999999999999867e-01 8.6602540378443948e-01
vn 0.0000000000000000e+00 0.0000000000000000e+00 1.0000000000000000e+00
vn 0.0000000000000000e+00 -4.9999999999999867e-01 8.6602540378443948e-01
vn 0.0000000000000000e+00 -5.0000000000000289e-01 8.6602540378443693e-01
vn 0.0000000000000000e+00 -8.6602540378443815e-01 5.0000000000000078e-01
vn 0.0000000000000000e+00 -1.0000000000000000e+00 6.1232339957367660e-17
vn -0.0000000000000000e+00 -8.6602540378443804e-01 -5.0000000000000100e-01
vn -1.0000000000000000e+00 0.0000000000000000e+00 0.0000000000000000e+00
vn -0.0000000000000000e+00 -1.0000000000000000e+00 -0.0000000000000000e+00
vn -0.0000000000000000e+00 4.9999999999999989e-01 8.6602540378443860e-01
vn -0.0000000000000000e+00 1.2246467991473532e-16 1.0000000000000000e+00
vn -0.0000000000000000e+00 -1.2246467991473532e-16 1.0000000000000000e+00
vn -0.0000000000000000e+00 -4.9999999999999989e-01 8.6602540378443860e-01
vn -0.0000000000000000e+00 -8.6602540378443871e-01 4.9999999999999978e-01
vn 0.0000000000000000e+00 -1.0000000000000000e+00 -6.1232339957367660e-17
vn 0.0000000000000000e+00 -8.6602540378443860e-01 -4.9999999999999989e-01
vn 0.0000000000000000e+00 -5.0000000000000111e-01 -8.6602540378443793e-01
vn -0.0000000000000000e+00 5.0000000000000111e-01 -8.6602540378443793e-01
vn -0.0000000000000000e+00 8.6602540378443860e-01 -4.9999999999999989e-01
vn -0.0000000000000000e+00 1.0000000000000000e+00 -6.1232339957367660e-17
vn -0.0000000000000000e+00 8.6602540378443871e-01 4.9999999999999978e-01

g face 0
f 1//1 2//1 9//1
f 9//1 2//1 3//1
f 9//1 3//1 4//1
f 9//1 4//1 8//1
f 8//1 4//1 5//1
f 8//1 5//1 6//1
f 6//1 7//1 8//1

g face 1
f 16//2 7//2 15//3
f 15//3 7//2 6//3
f 15//3 6//3 14//4
f 14//4 6//3 5//5
f 14//4 5//5 13//6
f 13//6 5//5 4//6
f 13//6 4//6 12//7
f 12//7 4//6 3//7
f 12//7 3//7 11//8
f 11//8 3//7 2//8
f 11//8 2//8 10//9
f 10//9 2//8 1//9

g face 2
f 28//2 17//2 29//2
f 29//2 17//2 18//2
f 29//2 18//2 16//2
f 16//2 18//2 19//2
f 16//2 19//2 40//2
f 40//2 19//2 39//2
f 39//2 19//2 20//2
f 39//2 20//2 38//2
f 38//2 20//2 21//2
f 38//2 21//2 37//2
f 37//2 21//2 22//2
f 37//2 22//2 7//2
f 7//2 22//2 8//2
f 8//2 22//2 23//2
f 8//2 23//2 24//2
f 24//2 25//2 8//2
f 8//2 25//2 26//2
f 8//2 26//2 29//2
f 29//2 26//2 27//2
f 29//2 27//2 28//2
f 16//2 33//2 7//2
f 7//2 33//2 34//2
f 7//2 34//2 35//2
f 41//2 30//2 16//2
f 16//2 30//2 31//2
f 16//2 31//2 32//2
f 32//2 33//2 16//2
f 35//2 36//2 7//2
f 7//2 36//2 37//2
f 40//2 41//2 16//2

g face 3
f 42//1 43//1 50//1
f 50//1 43//1 44//1
f 50//1 44//1 45//1
f 50//1 45//1 49//1
f 49//1 45//1 46//1
f 49//1 46//1 47//1
f 47//1 48//1 49//1

g face 4
f 57//2 48//2 56//10
f 56//10 48//2 47//11
f 56//10 47//11 55//12
f 55//12 47//11 46//12
f 55//12 46//12 54//13
f 54//13 46//12 45//6
f 54//13 45//6 53//14
f 53//14 45//6 44//14
f 53//14 44//14 52//15
f 52//15 44//14 43//16
f 52//15 43//16 51//17
f 51//17 43//16 42//17

g face 5
f 59//18 81//19 58//20
f 58//20 81//19 70//20
f 58//21 70//21 69//22
f 69//22 70//21 71//23
f 69//22 71//23 68//24
f 68//24 71//23 72//24
f 68//24 72//24 67//25
f 67//25 72//24 73//25
f 67//25 73//25 66//26
f 66//26 73//25 74//26
f 66//26 74//26 65//27
f 65//27 74//26 75//28
f 65//27 75//28 64//29
f 64//29 75//28 76//29
f 64//29 76//29 63//30
f 63//30 76//29 77//31
f 63//30 77//31 62//32
f 62//32 77//31 78//32
f 62//32 78//32 61//33
f 61//33 78//32 79//33
f 61//33 79//33 60//34
f 60//34 79//33 80//34
f 60//34 80//34 59//18
f 59//18 80//34 81//19

g face 6
f 41//23 93//22 30//21
f 30//21 93//22 82//21
f 30//20 82//20 31//19
f 31//19 82//20 83//18
f 31//19 83//18 32//34
f 32//34 83//18 84//34
f 32//34 84//34 33//33
f 33//33 84//34 85//33
f 33//33 85//33 34//32
f 34//32 85//33 86//32
f 34//32 86//32 35//31
f 35//31 86//32 87//30
f 35//31 87//30 36//29
f 36//29 87//30 88//29
f 36//29 88//29 37//28
f 37//28 88//29 89//27
f 37//28 89//27 38//26
f 38//26 89//27 90//26
f 38//26 90//26 39//25
f 39//25 90//26 91//25
f 39//25 91//25 40//24
f 40//24 91//25 92//24
f 40//24 92//24 41//23
f 41//23 92//24 93//22

g face 7
f 16//29 15//29 29//29
f 29//29 15//29 14//29
f 29//29 14//29 13//29
f 29//29 13//29 94//29
f 94//29 13//29 12//29
f 94//29 12//29 11//29
f 11//29 10//29 94//29

g face 8
f 1//35 85//35 10//35
f 10//35 85//35 84//35
f 10//35 84//35 83//35
f 9//35 90//35 1//35
f 1//35 90//35 89//35
f 1//35 89//35 88//35
f 90//35 9//35 91//35
f 91//35 9//35 94//35
f 91//35 94//35 92//35
f 92//35 94//35 10//35
f 92//35 10//35 93//35
f 93//35 10//35 82//35
f 82//35 10//35 83//35
f 88//35 87//35 1//35
f 1//35 87//35 86//35
f 1//35 86//35 85//35

g face 9
f 9//36 8//36 94//36
f 94//36 8//36 29//36

g face 10
f 96//37 18//37 95//38
f 95//38 18//37 17//38
f 95//39 17//39 106//40
f 106//40 17//39 28//40
f 106//40 28//40 105//41
f 105//41 28//40 27//41
f 105//41 27//41 104//42
f 104//42 27//41 26//42
f 104//42 26//42 103//43
f 103//43 26//42 25//43
f 103//43 25//43 102//44
f 102//44 25//43 24//44
f 102//44 24//44 101//1
f 101//1 24//44 23//1
f 101//1 23//1 100//45
f 100//45 23//1 22//45
f 100//45 22//45 99//46
f 99//46 22//45 21//46
f 99//46 21//46 98//47
f 98//47 21//46 20//47
f 98//47 20//47 97//48
f 97//48 20//47 19//48
f 97//48 19//48 96//37
f 96//37 19//48 18//37

g face 11
f 57//2 79//2 48//2
f 48//2 79//2 78//2
f 48//2 78//2 77//2
f 107//2 72//2 57//2
f 57//2 72//2 71//2
f 57//2 71//2 70//2
f 72//2 107//2 73//2
f 73//2 107//2 49//2
f 73//2 49//2 74//2
f 74//2 49//2 48//2
f 74//2 48//2 75//2
f 75//2 48//2 76//2
f 76//2 48//2 77//2
f 70//2 81//2 57//2
f 57//2 81//2 80//2
f 57//2 80//2 79//2

g face 12
f 57//29 56//29 107//29
f 107//29 56//29 55//29
f 107//29 55//29 54//29
f 107//29 54//29 108//29
f 108//29 54//29 53//29
f 108//29 53//29 52//29
f 52//29 51//29 108//29

g face 13
f 42//35 61//35 51//35
f 51//35 61//35 60//35
f 51//35 60//35 59//35
f 50//35 100//35 42//35
f 42//35 100//35 65//35
f 42//35 65//35 64//35
f 108//35 104//35 50//35
f 50//35 104//35 103//35
f 50//35 103//35 102//35
f 51//35 96//35 108//35
f 108//35 96//35 95//35
f 108//35 95//35 106//35
f 59//35 58//35 51//35
f 51//35 58//35 69//35
f 51//35 69//35 68//35
f 51//35 68//35 97//35
f 97//35 68//35 67//35
f 97//35 67//35 98//35
f 98//35 67//35 66//35
f 98//35 66//35 99//35
f 99//35 66//35 65//35
f 99//35 65//35 100//35
f 64//35 63//35 42//35
f 42//35 63//35 62//35
f 42//35 62//35 61//35
f 106//35 105//35 108//35
f 108//35 105//35 104//35
f 102//35 101//35 50//35
f 50//35 101//35 100//35
f 97//35 96//35 51//35

g face 14
f 50//36 49//36 108//36
f 108//36 49//36 107//36

g halfedge 0 edge 0
l 1 2 3 4 5 6 7

g halfedge 1 edge 0
l 7 6 5 4 3 2 1

g halfedge 2 edge 1
l 8 7

g halfedge 3 edge 1
l 7 8

g halfedge 4 edge 2
l 8 9

g halfedge 5 edge 2
l 9 8

g halfedge 6 edge 3
l 1 9

g halfedge 7 edge 3
l 9 1

g halfedge 8 edge 4
l 10 1

g halfedge 9 edge 4
l 1 10

g halfedge 10 edge 5
l 16 15 14 13 12 11 10

g halfedge 11 edge 5
l 10 11 12 13 14 15 16

g halfedge 12 edge 6
l 7 16

g halfedge 13 edge 6
l 16 7

g halfedge 14 edge 7
l 17 28 27 26 25 24 23 22 21 20 19 18 17

g halfedge 15 edge 7
l 17 18 19 20 21 22 23 24 25 26 27 28 17

g halfedge 16 edge 8
l 29 16

g halfedge 17 edge 8
l 16 29

g halfedge 18 edge 9
l 29 8

g halfedge 19 edge 9
l 8 29

g halfedge 20 edge 10
l 30 31 32 33 34 35 36 37 38 39 40 41 30

g halfedge 21 edge 10
l 30 41 40 39 38 37 36 35 34 33 32 31 30

g halfedge 22 edge 11
l 42 43 44 45 46 47 48

g halfedge 23 edge 11
l 48 47 46 45 44 43 42

g halfedge 24 edge 12
l 49 48

g halfedge 25 edge 12
l 48 49

g halfedge 26 edge 13
l 49 50

g halfedge 27 edge 13
l 50 49

g halfedge 28 edge 14
l 42 50

g halfedge 29 edge 14
l 50 42

g halfedge 30 edge 15
l 51 42

g halfedge 31 edge 15
l 42 51

g halfedge 32 edge 16
l 57 56 55 54 53 52 51

g halfedge 33 edge 16
l 51 52 53 54 55 56 57

g halfedge 34 edge 17
l 48 57

g halfedge 35 edge 17
l 57 48

g halfedge 36 edge 18
l 58 69 68 67 66 65 64 63 62 61 60 59 58

g halfedge 37 edge 18
l 58 59 60 61 62 63 64 65 66 67 68 69 58

g halfedge 38 edge 19
l 70 81 80 79 78 77 76 75 74 73 72 71 70

g halfedge 39 edge 19
l 70 71 72 73 74 75 76 77 78 79 80 81 70

g halfedge 40 edge 20
l 82 93 92 91 90 89 88 87 86 85 84 83 82

g halfedge 41 edge 20
l 82 83 84 85 86 87 88 89 90 91 92 93 82

g halfedge 42 edge 21
l 94 10

g halfedge 43 edge 21
l 10 94

g halfedge 44 edge 22
l 94 29

g halfedge 45 edge 22
l 29 94

g halfedge 46 edge 23
l 9 94

g halfedge 47 edge 23
l 94 9

g halfedge 48 edge 24
l 95 106 105 104 103 102 101 100 99 98 97 96 95

g halfedge 49 edge 24
l 95 96 97 98 99 100 101 102 103 104 105 106 95

g halfedge 50 edge 25
l 107 57

g halfedge 51 edge 25
l 57 107

g halfedge 52 edge 26
l 107 49

g halfedge 53 edge 26
l 49 107

g halfedge 54 edge 27
l 108 51

g halfedge 55 edge 27
l 51 108

g halfedge 56 edge 28
l 108 107

g halfedge 57 edge 28
l 107 108

g halfedge 58 edge 29
l 50 108

g halfedge 59 edge 29
l 108 50

g vertex 0
p 1

g vertex 1
p 7

g vertex 2
p 8

g vertex 3
p 9

g vertex 4
p 10

g vertex 5
p 16

g vertex 6
p 17

g vertex 7
p 29

g vertex 8
p 30

g vertex 9
p 42

g vertex 10
p 48

g vertex 11
p 49

g vertex 12
p 50

g vertex 13
p 51

g vertex 14
p 57

g vertex 15
p 58

g vertex 16
p 70

g vertex 17
p 82

g vertex 18
p 94

g vertex 19
p 95

g vertex 20
p 107

g vertex 21
p 108

# End of file
