# WaveFront *.obj file
# Vertices: 92
# Triangles : 188

v 6.0000000000000009e-01 -4.7683718085167470e-08 -1.5593512450204905e-03
v 6.0000000000000009e-01 -4.7683717641078260e-08 3.5984406487549796e+00
v 6.0000000000000009e-01 -4.0000004768371755e-01 3.5984406487549796e+00
v 6.0000000000000009e-01 -4.0000004768371800e-01 -1.5593512450204905e-03
v 0.0000000000000000e+00 5.9999995231628245e-01 3.5984406487549796e+00
v 0.0000000000000000e+00 5.9999995231628200e-01 -1.5593512450204905e-03
v 0.0000000000000000e+00 -4.0000004768371800e-01 -1.5593512450204905e-03
v 0.0000000000000000e+00 -4.0000004768371755e-01 3.5984406487549796e+00
v 2.0000000000000004e+00 -4.7683717752100563e-08 2.6984406487549797e+00
v 2.0195773934819390e+00 -4.7683717767238028e-08 2.5748338510050006e+00
v 2.0763932022500216e+00 -4.7683717780893734e-08 2.4633265478379904e+00
v 2.1648858990830111e+00 -4.7683717791730965e-08 2.3748338510050009e+00
v 2.2763932022500213e+00 -4.7683717798688897e-08 2.3180180422369183e+00
v 2.4000000000000004e+00 -4.7683717801086437e-08 2.2984406487549798e+00
v 2.5236067977499794e+00 -4.7683717798688897e-08 2.3180180422369183e+00
v 2.6351141009169896e+00 -4.7683717791730965e-08 2.3748338510050009e+00
v 2.7236067977499792e+00 -4.7683717780893734e-08 2.4633265478379904e+00
v 2.7804226065180617e+00 -4.7683717767238028e-08 2.5748338510050006e+00
v 2.8000000000000003e+00 -4.7683717752100563e-08 2.6984406487549797e+00
v 2.7804226065180617e+00 -4.7683717736963098e-08 2.8220474465049588e+00
v 2.7236067977499792e+00 -4.7683717723307392e-08 2.9335547496719689e+00
v 2.6351141009169896e+00 -4.7683717712470161e-08 3.0220474465049585e+00
v 2.5236067977499794e+00 -4.7683717705512229e-08 3.0788632552730411e+00
v 2.4000000000000004e+00 -4.7683717703114689e-08 3.0984406487549796e+00
v 2.2763932022500213e+00 -4.7683717705512229e-08 3.0788632552730411e+00
v 2.1648858990830111e+00 -4.7683717712470161e-08 3.0220474465049585e+00
v 2.0763932022500216e+00 -4.7683717723307392e-08 2.9335547496719689e+00
v 2.0195773934819390e+00 -4.7683717736963098e-08 2.8220474465049588e+00
v 2.0000000000000004e+00 5.9999995231628234e-01 2.6984406487549797e+00
v 2.0195773934819390e+00 5.9999995231628234e-01 2.8220474465049588e+00
v 2.0763932022500216e+00 5.9999995231628234e-01 2.9335547496719689e+00
v 2.1648858990830111e+00 5.9999995231628234e-01 3.0220474465049585e+00
v 2.2763932022500213e+00 5.9999995231628234e-01 3.0788632552730411e+00
v 2.4000000000000004e+00 5.9999995231628234e-01 3.0984406487549796e+00
v 2.5236067977499794e+00 5.9999995231628234e-01 3.0788632552730411e+00
v 2.6351141009169896e+00 5.9999995231628234e-01 3.0220474465049585e+00
v 2.7236067977499792e+00 5.9999995231628234e-01 2.9335547496719689e+00
v 2.7804226065180617e+00 5.9999995231628234e-01 2.8220474465049588e+00
v 2.8000000000000003e+00 5.9999995231628234e-01 2.6984406487549797e+00
v 2.7804226065180617e+00 5.9999995231628234e-01 2.5748338510050006e+00
v 2.7236067977499792e+00 5.9999995231628234e-01 2.4633265478379904e+00
v 2.6351141009169896e+00 5.9999995231628234e-01 2.3748338510050009e+00
v 2.5236067977499794e+00 5.9999995231628234e-01 2.3180180422369183e+00
v 2.4000000000000004e+00 5.9999995231628234e-01 2.2984406487549798e+00
v 2.2763932022500213e+00 5.9999995231628234e-01 2.3180180422369183e+00
v 2.1648858990830111e+00 5.9999995231628234e-01 2.3748338510050009e+00
v 2.0763932022500216e+00 5.9999995231628234e-01 2.4633265478379904e+00
v 2.0195773934819390e+00 5.9999995231628234e-01 2.5748338510050006e+00
v 2.0000000000000004e+00 -4.7683717974145168e-08 8.9844064875497942e-01
v 2.0195773934819390e+00 -4.7683717989282633e-08 7.7483385100500046e-01
v 2.0763932022500216e+00 -4.7683718002938339e-08 6.6332654783799017e-01
v 2.1648858990830111e+00 -4.7683718013775570e-08 5.7483385100500051e-01
v 2.2763932022500213e+00 -4.7683718020733502e-08 5.1801804223691805e-01
v 2.4000000000000004e+00 -4.7683718023131042e-08 4.9844064875497951e-01
v 2.5236067977499794e+00 -4.7683718020733502e-08 5.1801804223691805e-01
v 2.6351141009169896e+00 -4.7683718013775570e-08 5.7483385100500051e-01
v 2.7236067977499792e+00 -4.7683718002938339e-08 6.6332654783799017e-01
v 2.7804226065180617e+00 -4.7683717989282633e-08 7.7483385100500046e-01
v 2.8000000000000003e+00 -4.7683717974145168e-08 8.9844064875497942e-01
v 2.7804226065180617e+00 -4.7683717959007703e-08 1.0220474465049583e+00
v 2.7236067977499792e+00 -4.7683717945351997e-08 1.1335547496719687e+00
v 2.6351141009169896e+00 -4.7683717934514766e-08 1.2220474465049582e+00
v 2.5236067977499794e+00 -4.7683717927556834e-08 1.2788632552730408e+00
v 2.4000000000000004e+00 -4.7683717925159294e-08 1.2984406487549793e+00
v 2.2763932022500213e+00 -4.7683717927556834e-08 1.2788632552730408e+00
v 2.1648858990830111e+00 -4.7683717934514766e-08 1.2220474465049582e+00
v 2.0763932022500216e+00 -4.7683717945351997e-08 1.1335547496719687e+00
v 2.0195773934819390e+00 -4.7683717959007703e-08 1.0220474465049585e+00
v 2.0000000000000004e+00 5.9999995231628211e-01 8.9844064875497942e-01
v 2.0195773934819390e+00 5.9999995231628211e-01 1.0220474465049585e+00
v 2.0763932022500216e+00 5.9999995231628211e-01 1.1335547496719687e+00
v 2.1648858990830111e+00 5.9999995231628211e-01 1.2220474465049582e+00
v 2.2763932022500213e+00 5.9999995231628211e-01 1.2788632552730408e+00
v 2.4000000000000004e+00 5.9999995231628211e-01 1.2984406487549793e+00
v 2.5236067977499794e+00 5.9999995231628211e-01 1.2788632552730408e+00
v 2.6351141009169896e+00 5.9999995231628211e-01 1.2220474465049582e+00
v 2.7236067977499792e+00 5.9999995231628211e-01 1.1335547496719687e+00
v 2.7804226065180617e+00 5.9999995231628211e-01 1.0220474465049583e+00
v 2.8000000000000003e+00 5.9999995231628211e-01 8.9844064875497942e-01
v 2.7804226065180617e+00 5.9999995231628211e-01 7.7483385100500046e-01
v 2.7236067977499792e+00 5.9999995231628211e-01 6.6332654783799017e-01
v 2.6351141009169896e+00 5.9999995231628211e-01 5.7483385100500051e-01
v 2.5236067977499794e+00 5.9999995231628211e-01 5.1801804223691805e-01
v 2.4000000000000004e+00 5.9999995231628211e-01 4.9844064875497951e-01
v 2.2763932022500213e+00 5.9999995231628211e-01 5.1801804223691805e-01
v 2.1648858990830111e+00 5.9999995231628211e-01 5.7483385100500051e-01
v 2.0763932022500216e+00 5.9999995231628211e-01 6.6332654783799017e-01
v 2.0195773934819390e+00 5.9999995231628211e-01 7.7483385100500046e-01
v 3.4000000000000004e+00 5.9999995231628200e-01 -1.5593512450204905e-03
v 3.4000000000000004e+00 5.9999995231628245e-01 3.5984406487549796e+00
v 3.4000000000000004e+00 -4.7683717641078260e-08 3.5984406487549796e+00
v 3.4000000000000004e+00 -4.7683718085167470e-08 -1.5593512450204905e-03

vn 1.0000000000000000e+00 0.0000000000000000e+00 0.0000000000000000e+00
vn -1.0000000000000000e+00 0.0000000000000000e+00 0.0000000000000000e+00
vn 0.0000000000000000e+00 -1.0000000000000000e+00 1.2246467991473532e-16
vn 9.5105651629515342e-01 3.7843667304341567e-17 3.0901699437494795e-01
vn 9.5105651629515353e-01 3.7843667304341512e-17 3.0901699437494751e-01
vn 1.0000000000000000e+00 1.4997597826618579e-32 1.2246467991473532e-16
vn 1.0000000000000000e+00 -1.4997597826618579e-32 -1.2246467991473532e-16
vn 9.5105651629515353e-01 -3.7843667304341512e-17 -3.0901699437494751e-01
vn 8.0901699437494734e-01 -7.1982932780599676e-17 -5.8778525229247314e-01
vn 5.8778525229247336e-01 -9.9076007261709147e-17 -8.0901699437494723e-01
vn 3.0901699437494778e-01 -1.1647083184890921e-16 -9.5105651629515342e-01
vn -6.1232339957367660e-17 -1.2246467991473532e-16 -1.0000000000000000e+00
vn -3.0901699437494767e-01 -1.1647083184890921e-16 -9.5105651629515342e-01
vn -5.8778525229247347e-01 -9.9076007261709123e-17 -8.0901699437494712e-01
vn -5.8778525229247336e-01 -9.9076007261709147e-17 -8.0901699437494723e-01
vn -8.0901699437494734e-01 -7.1982932780599676e-17 -5.8778525229247314e-01
vn -9.5105651629515353e-01 -3.7843667304341512e-17 -3.0901699437494751e-01
vn -9.5105651629515342e-01 -3.7843667304341530e-17 -3.0901699437494767e-01
vn -1.0000000000000000e+00 2.2496396739927872e-32 1.8369701987210304e-16
vn -9.5105651629515342e-01 3.7843667304341555e-17 3.0901699437494790e-01
vn -9.5105651629515342e-01 3.7843667304341530e-17 3.0901699437494767e-01
vn -8.0901699437494712e-01 7.1982932780599713e-17 5.8778525229247347e-01
vn -8.0901699437494734e-01 7.1982932780599676e-17 5.8778525229247314e-01
vn -5.8778525229247314e-01 9.9076007261709147e-17 8.0901699437494734e-01
vn -5.8778525229247336e-01 9.9076007261709147e-17 8.0901699437494723e-01
vn -3.0901699437494767e-01 1.1647083184890921e-16 9.5105651629515342e-01
vn -6.1232339957367660e-17 1.2246467991473532e-16 1.0000000000000000e+00
vn 3.0901699437494756e-01 1.1647083184890923e-16 9.5105651629515353e-01
vn 3.0901699437494778e-01 1.1647083184890921e-16 9.5105651629515342e-01
vn 5.8778525229247336e-01 9.9076007261709147e-17 8.0901699437494723e-01
vn 8.0901699437494712e-01 7.1982932780599713e-17 5.8778525229247347e-01
vn 8.0901699437494734e-01 7.1982932780599676e-17 5.8778525229247314e-01
vn -9.5105651629515375e-01 -3.7843667304341456e-17 -3.0901699437494706e-01
vn -9.5105651629515364e-01 -3.7843667304341469e-17 -3.0901699437494717e-01
vn -9.5105651629515353e-01 3.7843667304341524e-17 3.0901699437494762e-01
vn -9.5105651629515353e-01 3.7843667304341512e-17 3.0901699437494751e-01
vn -5.8778525229247314e-01 9.9076007261709184e-17 8.0901699437494745e-01
vn 5.8778525229247314e-01 9.9076007261709184e-17 8.0901699437494745e-01
vn 0.0000000000000000e+00 -1.2246467991473532e-16 -1.0000000000000000e+00
vn 0.0000000000000000e+00 1.2246467991473532e-16 1.0000000000000000e+00
vn -0.0000000000000000e+00 1.0000000000000000e+00 -1.2246467991473532e-16

g face 0
f 1//1 2//1 4//1
f 4//1 2//1 3//1

g face 1
f 5//2 6//2 8//2
f 8//2 6//2 7//2

g face 2
f 8//3 7//3 3//3
f 3//3 7//3 4//3

g face 3
f 10//4 48//5 9//6
f 9//6 48//5 29//6
f 9//7 29//7 28//8
f 28//8 29//7 30//8
f 28//8 30//8 27//9
f 27//9 30//8 31//9
f 27//9 31//9 26//10
f 26//10 31//9 32//10
f 26//10 32//10 25//11
f 25//11 32//10 33//11
f 25//11 33//11 24//12
f 24//12 33//11 34//12
f 24//12 34//12 23//13
f 23//13 34//12 35//13
f 23//13 35//13 22//14
f 22//14 35//13 36//15
f 22//14 36//15 21//16
f 21//16 36//15 37//16
f 21//16 37//16 20//17
f 20//17 37//16 38//18
f 20//17 38//18 19//19
f 19//19 38//18 39//2
f 19//19 39//2 18//20
f 18//20 39//2 40//21
f 18//20 40//21 17//22
f 17//22 40//21 41//23
f 17//22 41//23 16//24
f 16//24 41//23 42//25
f 16//24 42//25 15//26
f 15//26 42//25 43//26
f 15//26 43//26 14//27
f 14//27 43//26 44//27
f 14//27 44//27 13//28
f 13//28 44//27 45//29
f 13//28 45//29 12//30
f 12//30 45//29 46//30
f 12//30 46//30 11//31
f 11//31 46//30 47//32
f 11//31 47//32 10//4
f 10//4 47//32 48//5

g face 4
f 50//5 88//5 49//6
f 49//6 88//5 69//6
f 49//7 69//7 68//8
f 68//8 69//7 70//8
f 68//8 70//8 67//9
f 67//9 70//8 71//9
f 67//9 71//9 66//10
f 66//10 71//9 72//10
f 66//10 72//10 65//11
f 65//11 72//10 73//11
f 65//11 73//11 64//12
f 64//12 73//11 74//12
f 64//12 74//12 63//13
f 63//13 74//12 75//13
f 63//13 75//13 62//14
f 62//14 75//13 76//15
f 62//14 76//15 61//16
f 61//16 76//15 77//16
f 61//16 77//16 60//33
f 60//33 77//16 78//34
f 60//33 78//34 59//19
f 59//19 78//34 79//2
f 59//19 79//2 58//35
f 58//35 79//2 80//36
f 58//35 80//36 57//22
f 57//22 80//36 81//23
f 57//22 81//23 56//37
f 56//37 81//23 82//37
f 56//37 82//37 55//26
f 55//26 82//37 83//26
f 55//26 83//26 54//27
f 54//27 83//26 84//27
f 54//27 84//27 53//28
f 53//28 84//27 85//29
f 53//28 85//29 52//38
f 52//38 85//29 86//38
f 52//38 86//38 51//31
f 51//31 86//38 87//32
f 51//31 87//32 50//5
f 50//5 87//32 88//5

g face 5
f 89//1 90//1 92//1
f 92//1 90//1 91//1

g face 6
f 7//39 6//39 1//39
f 1//39 6//39 89//39
f 1//39 89//39 92//39
f 1//39 4//39 7//39

g face 7
f 91//40 90//40 2//40
f 2//40 90//40 5//40
f 2//40 5//40 8//40
f 8//40 3//40 2//40

g face 8
f 50//3 49//3 1//3
f 1//3 49//3 68//3
f 1//3 68//3 10//3
f 10//3 68//3 67//3
f 10//3 67//3 11//3
f 11//3 67//3 66//3
f 11//3 66//3 12//3
f 12//3 66//3 13//3
f 13//3 66//3 65//3
f 13//3 65//3 14//3
f 14//3 65//3 64//3
f 14//3 64//3 63//3
f 14//3 63//3 15//3
f 15//3 63//3 62//3
f 15//3 62//3 16//3
f 16//3 62//3 61//3
f 16//3 61//3 17//3
f 17//3 61//3 18//3
f 18//3 61//3 60//3
f 18//3 60//3 92//3
f 92//3 60//3 59//3
f 92//3 59//3 58//3
f 58//3 57//3 92//3
f 92//3 57//3 56//3
f 92//3 56//3 55//3
f 55//3 54//3 92//3
f 92//3 54//3 53//3
f 92//3 53//3 1//3
f 1//3 53//3 52//3
f 1//3 52//3 51//3
f 51//3 50//3 1//3
f 10//3 9//3 2//3
f 2//3 9//3 28//3
f 2//3 28//3 27//3
f 27//3 26//3 2//3
f 2//3 26//3 25//3
f 2//3 25//3 91//3
f 91//3 25//3 24//3
f 91//3 24//3 23//3
f 23//3 22//3 91//3
f 91//3 22//3 21//3
f 91//3 21//3 20//3
f 20//3 19//3 91//3
f 91//3 19//3 18//3
f 91//3 18//3 92//3
f 1//3 10//3 2//3

g face 9
f 70//41 69//41 6//41
f 6//41 69//41 88//41
f 6//41 88//41 87//41
f 87//41 86//41 6//41
f 6//41 86//41 85//41
f 6//41 85//41 89//41
f 89//41 85//41 84//41
f 89//41 84//41 83//41
f 83//41 82//41 89//41
f 89//41 82//41 81//41
f 89//41 81//41 80//41
f 80//41 79//41 89//41
f 89//41 79//41 78//41
f 89//41 78//41 40//41
f 40//41 78//41 77//41
f 40//41 77//41 41//41
f 41//41 77//41 42//41
f 42//41 77//41 76//41
f 42//41 76//41 43//41
f 43//41 76//41 75//41
f 43//41 75//41 44//41
f 44//41 75//41 74//41
f 44//41 74//41 73//41
f 44//41 73//41 45//41
f 45//41 73//41 72//41
f 45//41 72//41 46//41
f 46//41 72//41 47//41
f 47//41 72//41 71//41
f 47//41 71//41 48//41
f 48//41 71//41 70//41
f 48//41 70//41 6//41
f 30//41 29//41 5//41
f 5//41 29//41 48//41
f 5//41 48//41 6//41
f 89//41 40//41 90//41
f 90//41 40//41 39//41
f 90//41 39//41 38//41
f 38//41 37//41 90//41
f 90//41 37//41 36//41
f 90//41 36//41 35//41
f 35//41 34//41 90//41
f 90//41 34//41 33//41
f 90//41 33//41 5//41
f 5//41 33//41 32//41
f 5//41 32//41 31//41
f 31//41 30//41 5//41

g halfedge 0 edge 0
l 2 1

g halfedge 1 edge 0
l 1 2

g halfedge 2 edge 1
l 3 2

g halfedge 3 edge 1
l 2 3

g halfedge 4 edge 2
l 3 4

g halfedge 5 edge 2
l 4 3

g halfedge 6 edge 3
l 1 4

g halfedge 7 edge 3
l 4 1

g halfedge 8 edge 4
l 5 6

g halfedge 9 edge 4
l 6 5

g halfedge 10 edge 5
l 6 7

g halfedge 11 edge 5
l 7 6

g halfedge 12 edge 6
l 7 8

g halfedge 13 edge 6
l 8 7

g halfedge 14 edge 7
l 5 8

g halfedge 15 edge 7
l 8 5

g halfedge 16 edge 8
l 8 3

g halfedge 17 edge 8
l 3 8

g halfedge 18 edge 9
l 4 7

g halfedge 19 edge 9
l 7 4

g halfedge 20 edge 10
l 9 10 11 12 13 14 15 16 17 18 19 20 21 22 23 24 25 26 27 28 9

g halfedge 21 edge 10
l 9 28 27 26 25 24 23 22 21 20 19 18 17 16 15 14 13 12 11 10 9

g halfedge 22 edge 11
l 29 30 31 32 33 34 35 36 37 38 39 40 41 42 43 44 45 46 47 48 29

g halfedge 23 edge 11
l 29 48 47 46 45 44 43 42 41 40 39 38 37 36 35 34 33 32 31 30 29

g halfedge 24 edge 12
l 49 50 51 52 53 54 55 56 57 58 59 60 61 62 63 64 65 66 67 68 49

g halfedge 25 edge 12
l 49 68 67 66 65 64 63 62 61 60 59 58 57 56 55 54 53 52 51 50 49

g halfedge 26 edge 13
l 69 70 71 72 73 74 75 76 77 78 79 80 81 82 83 84 85 86 87 88 69

g halfedge 27 edge 13
l 69 88 87 86 85 84 83 82 81 80 79 78 77 76 75 74 73 72 71 70 69

g halfedge 28 edge 14
l 89 90

g halfedge 29 edge 14
l 90 89

g halfedge 30 edge 15
l 91 90

g halfedge 31 edge 15
l 90 91

g halfedge 32 edge 16
l 91 92

g halfedge 33 edge 16
l 92 91

g halfedge 34 edge 17
l 89 92

g halfedge 35 edge 17
l 92 89

g halfedge 36 edge 18
l 6 89

g halfedge 37 edge 18
l 89 6

g halfedge 38 edge 19
l 92 1

g halfedge 39 edge 19
l 1 92

g halfedge 40 edge 20
l 90 5

g halfedge 41 edge 20
l 5 90

g halfedge 42 edge 21
l 2 91

g halfedge 43 edge 21
l 91 2

g vertex 0
p 1

g vertex 1
p 2

g vertex 2
p 3

g vertex 3
p 4

g vertex 4
p 5

g vertex 5
p 6

g vertex 6
p 7

g vertex 7
p 8

g vertex 8
p 9

g vertex 9
p 29

g vertex 10
p 49

g vertex 11
p 69

g vertex 12
p 89

g vertex 13
p 90

g vertex 14
p 91

g vertex 15
p 92

# End of file
