# WaveFront *.obj file
# Vertices: 36
# Triangles : 68

v -2.0000000000000001e-01 3.2000000000000002e+00 2.4492935982947065e-17
v -1.8793852415718165e-01 3.2000000000000002e+00 -6.8404028665133870e-02
v -1.5320888862379559e-01 3.2000000000000002e+00 -1.2855752193730791e-01
v -1.0000000000000005e-01 3.2000000000000002e+00 -1.7320508075688773e-01
v -3.4729635533386018e-02 3.2000000000000002e+00 -1.9696155060244164e-01
v 3.4729635533386045e-02 3.2000000000000002e+00 -1.9696155060244164e-01
v 1.0000000000000007e-01 3.2000000000000002e+00 -1.7320508075688770e-01
v 1.5320888862379561e-01 3.2000000000000002e+00 -1.2855752193730788e-01
v 1.8793852415718168e-01 3.2000000000000002e+00 -6.8404028665133759e-02
v 2.0000000000000001e-01 3.2000000000000002e+00 0.0000000000000000e+00
v 1.8793852415718168e-01 3.2000000000000002e+00 6.8404028665133759e-02
v 1.5320888862379561e-01 3.2000000000000002e+00 1.2855752193730788e-01
v 9.9999999999999978e-02 3.2000000000000002e+00 1.7320508075688776e-01
v 3.4729635533386087e-02 3.2000000000000002e+00 1.9696155060244161e-01
v -3.4729635533386059e-02 3.2000000000000002e+00 1.9696155060244161e-01
v -1.0000000000000005e-01 3.2000000000000002e+00 1.7320508075688773e-01
v -1.5320888862379559e-01 3.2000000000000002e+00 1.2855752193730791e-01
v -1.8793852415718168e-01 3.2000000000000002e+00 6.8404028665133773e-02
v -2.0000000000000001e-01 0.0000000000000000e+00 2.4492935982947065e-17
v -1.8793852415718168e-01 0.0000000000000000e+00 6.8404028665133773e-02
v -1.5320888862379559e-01 0.0000000000000000e+00 1.2855752193730791e-01
v -1.0000000000000005e-01 0.0000000000000000e+00 1.7320508075688773e-01
v -3.4729635533386059e-02 0.0000000000000000e+00 1.9696155060244161e-01
v 3.4729635533386087e-02 0.0000000000000000e+00 1.9696155060244161e-01
v 9.9999999999999978e-02 0.0000000000000000e+00 1.7320508075688776e-01
v 1.5320888862379561e-01 0.0000000000000000e+00 1.2855752193730788e-01
v 1.8793852415718168e-01 0.0000000000000000e+00 6.8404028665133759e-02
v 2.0000000000000001e-01 0.0000000000000000e+00 0.0000000000000000e+00
v 1.8793852415718168e-01 0.0000000000000000e+00 -6.8404028665133759e-02
v 1.5320888862379561e-01 0.0000000000000000e+00 -1.2855752193730788e-01
v 1.0000000000000007e-01 0.0000000000000000e+00 -1.7320508075688770e-01
v 3.4729635533386045e-02 0.0000000000000000e+00 -1.9696155060244164e-01
v -3.4729635533386018e-02 0.0000000000000000e+00 -1.9696155060244164e-01
v -1.0000000000000005e-01 0.0000000000000000e+00 -1.7320508075688773e-01
v -1.5320888862379559e-01 0.0000000000000000e+00 -1.2855752193730791e-01
v -1.8793852415718165e-01 0.0000000000000000e+00 -6.8404028665133870e-02

vn -9.3969262078590821e-01 0.0000000000000000e+00 -3.4202014332566932e-01
vn -1.0000000000000000e+00 0.0000000000000000e+00 -1.2246467991473532e-16
vn -1.0000000000000000e+00 -0.0000000000000000e+00 1.2246467991473532e-16
vn -9.3969262078590843e-01 -0.0000000000000000e+00 3.4202014332566888e-01
vn -7.6604444311897801e-01 -0.0000000000000000e+00 6.4278760968653958e-01
vn -5.0000000000000022e-01 -0.0000000000000000e+00 8.6602540378443849e-01
vn -1.7364817766693028e-01 -0.0000000000000000e+00 9.8480775301220802e-01
vn 1.7364817766693041e-01 -0.0000000000000000e+00 9.8480775301220802e-01
vn 4.9999999999999989e-01 -0.0000000000000000e+00 8.6602540378443882e-01
vn 7.6604444311897801e-01 -0.0000000000000000e+00 6.4278760968653936e-01
vn 9.3969262078590843e-01 -0.0000000000000000e+00 3.4202014332566882e-01
vn 1.0000000000000000e+00 -0.0000000000000000e+00 -0.0000000000000000e+00
vn 9.3969262078590843e-01 -0.0000000000000000e+00 -3.4202014332566882e-01
vn 7.6604444311897801e-01 -0.0000000000000000e+00 -6.4278760968653936e-01
vn 5.0000000000000044e-01 -0.0000000000000000e+00 -8.6602540378443849e-01
vn 1.7364817766693022e-01 -0.0000000000000000e+00 -9.8480775301220802e-01
vn -1.7364817766693008e-01 0.0000000000000000e+00 -9.8480775301220813e-01
vn -5.0000000000000022e-01 0.0000000000000000e+00 -8.6602540378443849e-01
vn -7.6604444311897801e-01 0.0000000000000000e+00 -6.4278760968653958e-01
vn 0.0000000000000000e+00 1.0000000000000000e+00 0.0000000000000000e+00
vn -0.0000000000000000e+00 -1.0000000000000000e+00 -0.0000000000000000e+00

g face 0
f 2//1 36//1 1//2
f 1//2 36//1 19//2
f 1//3 19//3 18//4
f 18//4 19//3 20//4
f 18//4 20//4 17//5
f 17//5 20//4 21//5
f 17//5 21//5 16//6
f 16//6 21//5 22//6
f 16//6 22//6 15//7
f 15//7 22//6 23//7
f 15//7 23//7 14//8
f 14//8 23//7 24//8
f 14//8 24//8 13//9
f 13//9 24//8 25//9
f 13//9 25//9 12//10
f 12//10 25//9 26//10
f 12//10 26//10 11//11
f 11//11 26//10 27//11
f 11//11 27//11 10//12
f 10//12 27//11 28//12
f 10//12 28//12 9//13
f 9//13 28//12 29//13
f 9//13 29//13 8//14
f 8//14 29//13 30//14
f 8//14 30//14 7//15
f 7//15 30//14 31//15
f 7//15 31//15 6//16
f 6//16 31//15 32//16
f 6//16 32//16 5//17
f 5//17 32//16 33//17
f 5//17 33//17 4//18
f 4//18 33//17 34//18
f 4//18 34//18 3//19
f 3//19 34//18 35//19
f 3//19 35//19 2//1
f 2//1 35//19 36//1

g face 1
f 18//20 11//20 1//20
f 1//20 11//20 10//20
f 1//20 10//20 2//20
f 2//20 10//20 9//20
f 2//20 9//20 3//20
f 3//20 9//20 8//20
f 3//20 8//20 4//20
f 4//20 8//20 7//20
f 4//20 7//20 5//20
f 5//20 7//20 6//20
f 11//20 18//20 12//20
f 12//20 18//20 17//20
f 12//20 17//20 13//20
f 13//20 17//20 16//20
f 13//20 16//20 14//20
f 14//20 16//20 15//20

g face 2
f 36//21 29//21 19//21
f 19//21 29//21 28//21
f 19//21 28//21 20//21
f 20//21 28//21 27//21
f 20//21 27//21 21//21
f 21//21 27//21 26//21
f 21//21 26//21 22//21
f 22//21 26//21 25//21
f 22//21 25//21 23//21
f 23//21 25//21 24//21
f 29//21 36//21 30//21
f 30//21 36//21 35//21
f 30//21 35//21 31//21
f 31//21 35//21 34//21
f 31//21 34//21 32//21
f 32//21 34//21 33//21

g halfedge 0 edge 0
l 1 2 3 4 5 6 7 8 9 10 11 12 13 14 15 16 17 18 1

g halfedge 1 edge 0
l 1 18 17 16 15 14 13 12 11 10 9 8 7 6 5 4 3 2 1

g halfedge 2 edge 1
l 19 20 21 22 23 24 25 26 27 28 29 30 31 32 33 34 35 36 19

g halfedge 3 edge 1
l 19 36 35 34 33 32 31 30 29 28 27 26 25 24 23 22 21 20 19

g vertex 0
p 1

g vertex 1
p 19

# End of file
