# WaveFront *.obj file
# Vertices: 92
# Triangles : 188

v 6.0000000000000009e-01 6.0000000000000009e-01 3.6000000000000001e+00
v 6.0000000000000009e-01 6.0000000000000009e-01 0.0000000000000000e+00
v 6.0000000000000009e-01 1.0000000000000000e+00 0.0000000000000000e+00
v 6.0000000000000009e-01 1.0000000000000000e+00 3.6000000000000001e+00
v 0.0000000000000000e+00 0.0000000000000000e+00 0.0000000000000000e+00
v 0.0000000000000000e+00 0.0000000000000000e+00 3.6000000000000001e+00
v 0.0000000000000000e+00 1.0000000000000000e+00 3.6000000000000001e+00
v 0.0000000000000000e+00 1.0000000000000000e+00 0.0000000000000000e+00
v 2.0000000000000004e+00 6.0000000000000009e-01 2.7000000000000002e+00
v 2.0195773934819390e+00 6.0000000000000009e-01 2.8236067977499792e+00
v 2.0763932022500216e+00 6.0000000000000009e-01 2.9351141009169894e+00
v 2.1648858990830111e+00 6.0000000000000009e-01 3.0236067977499790e+00
v 2.2763932022500213e+00 6.0000000000000009e-01 3.0804226065180615e+00
v 2.4000000000000004e+00 6.0000000000000009e-01 3.1000000000000001e+00
v 2.5236067977499794e+00 6.0000000000000009e-01 3.0804226065180615e+00
v 2.6351141009169896e+00 6.0000000000000009e-01 3.0236067977499790e+00
v 2.7236067977499792e+00 6.0000000000000009e-01 2.9351141009169894e+00
v 2.7804226065180617e+00 6.0000000000000009e-01 2.8236067977499792e+00
v 2.8000000000000003e+00 6.0000000000000009e-01 2.7000000000000002e+00
v 2.7804226065180617e+00 6.0000000000000009e-01 2.5763932022500211e+00
v 2.7236067977499792e+00 6.0000000000000009e-01 2.4648858990830109e+00
v 2.6351141009169896e+00 6.0000000000000009e-01 2.3763932022500214e+00
v 2.5236067977499794e+00 6.0000000000000009e-01 2.3195773934819388e+00
v 2.4000000000000004e+00 6.0000000000000009e-01 2.3000000000000003e+00
v 2.2763932022500213e+00 6.0000000000000009e-01 2.3195773934819388e+00
v 2.1648858990830111e+00 6.0000000000000009e-01 2.3763932022500214e+00
v 2.0763932022500216e+00 6.0000000000000009e-01 2.4648858990830109e+00
v 2.0195773934819390e+00 6.0000000000000009e-01 2.5763932022500211e+00
v 2.0000000000000004e+00 0.0000000000000000e+00 2.7000000000000002e+00
v 2.0195773934819390e+00 0.0000000000000000e+00 2.5763932022500211e+00
v 2.0763932022500216e+00 0.0000000000000000e+00 2.4648858990830109e+00
v 2.1648858990830111e+00 0.0000000000000000e+00 2.3763932022500214e+00
v 2.2763932022500213e+00 0.0000000000000000e+00 2.3195773934819388e+00
v 2.4000000000000004e+00 0.0000000000000000e+00 2.3000000000000003e+00
v 2.5236067977499794e+00 0.0000000000000000e+00 2.3195773934819388e+00
v 2.6351141009169896e+00 0.0000000000000000e+00 2.3763932022500214e+00
v 2.7236067977499792e+00 0.0000000000000000e+00 2.4648858990830109e+00
v 2.7804226065180617e+00 0.0000000000000000e+00 2.5763932022500211e+00
v 2.8000000000000003e+00 0.0000000000000000e+00 2.7000000000000002e+00
v 2.7804226065180617e+00 0.0000000000000000e+00 2.8236067977499792e+00
v 2.7236067977499792e+00 0.0000000000000000e+00 2.9351141009169894e+00
v 2.6351141009169896e+00 0.0000000000000000e+00 3.0236067977499790e+00
v 2.5236067977499794e+00 0.0000000000000000e+00 3.0804226065180615e+00
v 2.4000000000000004e+00 0.0000000000000000e+00 3.1000000000000001e+00
v 2.2763932022500213e+00 0.0000000000000000e+00 3.0804226065180615e+00
v 2.1648858990830111e+00 0.0000000000000000e+00 3.0236067977499790e+00
v 2.0763932022500216e+00 0.0000000000000000e+00 2.9351141009169894e+00
v 2.0195773934819390e+00 0.0000000000000000e+00 2.8236067977499792e+00
v 2.0000000000000004e+00 6.0000000000000009e-01 9.0000000000000002e-01
v 2.0195773934819390e+00 6.0000000000000009e-01 1.0236067977499790e+00
v 2.0763932022500216e+00 6.0000000000000009e-01 1.1351141009169892e+00
v 2.1648858990830111e+00 6.0000000000000009e-01 1.2236067977499789e+00
v 2.2763932022500213e+00 6.0000000000000009e-01 1.2804226065180613e+00
v 2.4000000000000004e+00 6.0000000000000009e-01 1.2999999999999998e+00
v 2.5236067977499794e+00 6.0000000000000009e-01 1.2804226065180613e+00
v 2.6351141009169896e+00 6.0000000000000009e-01 1.2236067977499789e+00
v 2.7236067977499792e+00 6.0000000000000009e-01 1.1351141009169892e+00
v 2.7804226065180617e+00 6.0000000000000009e-01 1.0236067977499790e+00
v 2.8000000000000003e+00 6.0000000000000009e-01 9.0000000000000002e-01
v 2.7804226065180617e+00 6.0000000000000009e-01 7.7639320225002106e-01
v 2.7236067977499792e+00 6.0000000000000009e-01 6.6488589908301088e-01
v 2.6351141009169896e+00 6.0000000000000009e-01 5.7639320225002111e-01
v 2.5236067977499794e+00 6.0000000000000009e-01 5.1957739348193877e-01
v 2.4000000000000004e+00 6.0000000000000009e-01 5.0000000000000011e-01
v 2.2763932022500213e+00 6.0000000000000009e-01 5.1957739348193865e-01
v 2.1648858990830111e+00 6.0000000000000009e-01 5.7639320225002111e-01
v 2.0763932022500216e+00 6.0000000000000009e-01 6.6488589908301077e-01
v 2.0195773934819390e+00 6.0000000000000009e-01 7.7639320225002106e-01
v 2.0000000000000004e+00 0.0000000000000000e+00 9.0000000000000002e-01
v 2.0195773934819390e+00 0.0000000000000000e+00 7.7639320225002106e-01
v 2.0763932022500216e+00 0.0000000000000000e+00 6.6488589908301077e-01
v 2.1648858990830111e+00 0.0000000000000000e+00 5.7639320225002111e-01
v 2.2763932022500213e+00 0.0000000000000000e+00 5.1957739348193865e-01
v 2.4000000000000004e+00 0.0000000000000000e+00 5.0000000000000011e-01
v 2.5236067977499794e+00 0.0000000000000000e+00 5.1957739348193877e-01
v 2.6351141009169896e+00 0.0000000000000000e+00 5.7639320225002111e-01
v 2.7236067977499792e+00 0.0000000000000000e+00 6.6488589908301088e-01
v 2.7804226065180617e+00 0.0000000000000000e+00 7.7639320225002106e-01
v 2.8000000000000003e+00 0.0000000000000000e+00 9.0000000000000002e-01
v 2.7804226065180617e+00 0.0000000000000000e+00 1.0236067977499790e+00
v 2.7236067977499792e+00 0.0000000000000000e+00 1.1351141009169892e+00
v 2.6351141009169896e+00 0.0000000000000000e+00 1.2236067977499789e+00
v 2.5236067977499794e+00 0.0000000000000000e+00 1.2804226065180613e+00
v 2.4000000000000004e+00 0.0000000000000000e+00 1.2999999999999998e+00
v 2.2763932022500213e+00 0.0000000000000000e+00 1.2804226065180613e+00
v 2.1648858990830111e+00 0.0000000000000000e+00 1.2236067977499789e+00
v 2.0763932022500216e+00 0.0000000000000000e+00 1.1351141009169892e+00
v 2.0195773934819390e+00 0.0000000000000000e+00 1.0236067977499790e+00
v 3.4000000000000004e+00 0.0000000000000000e+00 3.6000000000000001e+00
v 3.4000000000000004e+00 0.0000000000000000e+00 0.0000000000000000e+00
v 3.4000000000000004e+00 6.0000000000000009e-01 0.0000000000000000e+00
v 3.4000000000000004e+00 6.0000000000000009e-01 3.6000000000000001e+00

vn 1.0000000000000000e+00 0.0000000000000000e+00 0.0000000000000000e+00
vn -1.0000000000000000e+00 0.0000000000000000e+00 0.0000000000000000e+00
vn 0.0000000000000000e+00 1.0000000000000000e+00 0.0000000000000000e+00
vn 9.5105651629515353e-01 0.0000000000000000e+00 -3.0901699437494751e-01
vn 1.0000000000000000e+00 0.0000000000000000e+00 -1.2246467991473532e-16
vn 1.0000000000000000e+00 -0.0000000000000000e+00 1.2246467991473532e-16
vn 9.5105651629515353e-01 -0.0000000000000000e+00 3.0901699437494751e-01
vn 8.0901699437494734e-01 -0.0000000000000000e+00 5.8778525229247314e-01
vn 5.8778525229247336e-01 -0.0000000000000000e+00 8.0901699437494723e-01
vn 3.0901699437494778e-01 -0.0000000000000000e+00 9.5105651629515342e-01
vn -6.1232339957367660e-17 0.0000000000000000e+00 1.0000000000000000e+00
vn -3.0901699437494767e-01 0.0000000000000000e+00 9.5105651629515342e-01
vn -5.8778525229247336e-01 0.0000000000000000e+00 8.0901699437494723e-01
vn -8.0901699437494734e-01 0.0000000000000000e+00 5.8778525229247314e-01
vn -9.5105651629515342e-01 0.0000000000000000e+00 3.0901699437494767e-01
vn -9.5105651629515342e-01 0.0000000000000000e+00 -3.0901699437494767e-01
vn -8.0901699437494734e-01 0.0000000000000000e+00 -5.8778525229247314e-01
vn -5.8778525229247336e-01 0.0000000000000000e+00 -8.0901699437494723e-01
vn -3.0901699437494767e-01 0.0000000000000000e+00 -9.5105651629515342e-01
vn -6.1232339957367660e-17 0.0000000000000000e+00 -1.0000000000000000e+00
vn 3.0901699437494778e-01 0.0000000000000000e+00 -9.5105651629515342e-01
vn 5.8778525229247336e-01 0.0000000000000000e+00 -8.0901699437494723e-01
vn 8.0901699437494734e-01 0.0000000000000000e+00 -5.8778525229247314e-01
vn 5.8778525229247314e-01 -0.0000000000000000e+00 8.0901699437494745e-01
vn -5.8778525229247314e-01 0.0000000000000000e+00 8.0901699437494745e-01
vn -8.0901699437494745e-01 0.0000000000000000e+00 5.8778525229247314e-01
vn -9.5105651629515353e-01 0.0000000000000000e+00 3.0901699437494751e-01
vn -9.5105651629515353e-01 0.0000000000000000e+00 -3.0901699437494751e-01
vn -8.0901699437494745e-01 0.0000000000000000e+00 -5.8778525229247314e-01
vn -5.8778525229247314e-01 0.0000000000000000e+00 -8.0901699437494745e-01
vn 5.8778525229247314e-01 0.0000000000000000e+00 -8.0901699437494745e-01
vn 0.0000000000000000e+00 -0.0000000000000000e+00 1.0000000000000000e+00
vn 0.0000000000000000e+00 0.0000000000000000e+00 -1.0000000000000000e+00
vn -0.0000000000000000e+00 -1.0000000000000000e+00 -0.0000000000000000e+00

g face 0
f 1//1 2//1 4//1
f 4//1 2//1 3//1

g face 1
f 5//2 6//2 8//2
f 8//2 6//2 7//2

g face 2
f 8//3 7//3 3//3
f 3//3 7//3 4//3

g face 3
f 10//4 48//4 9//5
f 9//5 48//4 29//5
f 9//6 29//6 28//7
f 28//7 29//6 30//7
f 28//7 30//7 27//8
f 27//8 30//7 31//8
f 27//8 31//8 26//9
f 26//9 31//8 32//9
f 26//9 32//9 25//10
f 25//10 32//9 33//10
f 25//10 33//10 24//11
f 24//11 33//10 34//11
f 24//11 34//11 23//12
f 23//12 34//11 35//12
f 23//12 35//12 22//13
f 22//13 35//12 36//13
f 22//13 36//13 21//14
f 21//14 36//13 37//14
f 21//14 37//14 20//15
f 20//15 37//14 38//15
f 20//15 38//15 19//2
f 19//2 38//15 39//2
f 19//2 39//2 18//16
f 18//16 39//2 40//16
f 18//16 40//16 17//17
f 17//17 40//16 41//17
f 17//17 41//17 16//18
f 16//18 41//17 42//18
f 16//18 42//18 15//19
f 15//19 42//18 43//19
f 15//19 43//19 14//20
f 14//20 43//19 44//20
f 14//20 44//20 13//21
f 13//21 44//20 45//21
f 13//21 45//21 12//22
f 12//22 45//21 46//22
f 12//22 46//22 11//23
f 11//23 46//22 47//23
f 11//23 47//23 10//4
f 10//4 47//23 48//4

g face 4
f 50//4 88//4 49//5
f 49//5 88//4 69//5
f 49//6 69//6 68//7
f 68//7 69//6 70//7
f 68//7 70//7 67//8
f 67//8 70//7 71//8
f 67//8 71//8 66//24
f 66//24 71//8 72//24
f 66//24 72//24 65//10
f 65//10 72//24 73//10
f 65//10 73//10 64//11
f 64//11 73//10 74//11
f 64//11 74//11 63//12
f 63//12 74//11 75//12
f 63//12 75//12 62//25
f 62//25 75//12 76//25
f 62//25 76//25 61//26
f 61//26 76//25 77//26
f 61//26 77//26 60//27
f 60//27 77//26 78//27
f 60//27 78//27 59//2
f 59//2 78//27 79//2
f 59//2 79//2 58//28
f 58//28 79//2 80//28
f 58//28 80//28 57//29
f 57//29 80//28 81//29
f 57//29 81//29 56//30
f 56//30 81//29 82//30
f 56//30 82//30 55//19
f 55//19 82//30 83//19
f 55//19 83//19 54//20
f 54//20 83//19 84//20
f 54//20 84//20 53//21
f 53//21 84//20 85//21
f 53//21 85//21 52//31
f 52//31 85//21 86//31
f 52//31 86//31 51//23
f 51//23 86//31 87//23
f 51//23 87//23 50//4
f 50//4 87//23 88//4

g face 5
f 89//1 90//1 92//1
f 92//1 90//1 91//1

g face 6
f 7//32 6//32 1//32
f 1//32 6//32 89//32
f 1//32 89//32 92//32
f 1//32 4//32 7//32

g face 7
f 91//33 90//33 2//33
f 2//33 90//33 5//33
f 2//33 5//33 8//33
f 8//33 3//33 2//33

g face 8
f 50//3 49//3 2//3
f 2//3 49//3 68//3
f 2//3 68//3 67//3
f 67//3 66//3 2//3
f 2//3 66//3 65//3
f 2//3 65//3 91//3
f 91//3 65//3 64//3
f 91//3 64//3 63//3
f 63//3 62//3 91//3
f 91//3 62//3 61//3
f 91//3 61//3 60//3
f 60//3 59//3 91//3
f 91//3 59//3 58//3
f 91//3 58//3 92//3
f 92//3 58//3 20//3
f 92//3 20//3 19//3
f 20//3 58//3 21//3
f 21//3 58//3 57//3
f 21//3 57//3 56//3
f 21//3 56//3 22//3
f 22//3 56//3 55//3
f 22//3 55//3 23//3
f 23//3 55//3 54//3
f 23//3 54//3 24//3
f 24//3 54//3 25//3
f 25//3 54//3 53//3
f 25//3 53//3 26//3
f 26//3 53//3 52//3
f 26//3 52//3 51//3
f 26//3 51//3 27//3
f 27//3 51//3 50//3
f 27//3 50//3 28//3
f 28//3 50//3 1//3
f 28//3 1//3 9//3
f 9//3 1//3 10//3
f 10//3 1//3 11//3
f 11//3 1//3 12//3
f 12//3 1//3 13//3
f 13//3 1//3 92//3
f 13//3 92//3 14//3
f 14//3 92//3 15//3
f 15//3 92//3 16//3
f 16//3 92//3 17//3
f 17//3 92//3 18//3
f 18//3 92//3 19//3
f 1//3 50//3 2//3

g face 9
f 70//34 69//34 5//34
f 5//34 69//34 88//34
f 5//34 88//34 6//34
f 6//34 88//34 30//34
f 6//34 30//34 29//34
f 30//34 88//34 31//34
f 31//34 88//34 87//34
f 31//34 87//34 32//34
f 32//34 87//34 86//34
f 32//34 86//34 85//34
f 32//34 85//34 33//34
f 33//34 85//34 84//34
f 33//34 84//34 34//34
f 34//34 84//34 35//34
f 35//34 84//34 83//34
f 35//34 83//34 36//34
f 36//34 83//34 82//34
f 36//34 82//34 37//34
f 37//34 82//34 81//34
f 37//34 81//34 80//34
f 79//34 90//34 80//34
f 80//34 90//34 89//34
f 80//34 89//34 38//34
f 38//34 89//34 39//34
f 39//34 89//34 40//34
f 40//34 89//34 41//34
f 41//34 89//34 42//34
f 42//34 89//34 43//34
f 43//34 89//34 44//34
f 44//34 89//34 45//34
f 45//34 89//34 6//34
f 45//34 6//34 46//34
f 46//34 6//34 47//34
f 47//34 6//34 48//34
f 48//34 6//34 29//34
f 79//34 78//34 90//34
f 90//34 78//34 77//34
f 90//34 77//34 76//34
f 76//34 75//34 90//34
f 90//34 75//34 74//34
f 90//34 74//34 73//34
f 90//34 73//34 5//34
f 5//34 73//34 72//34
f 5//34 72//34 71//34
f 71//34 70//34 5//34
f 38//34 37//34 80//34

g halfedge 0 edge 0
l 2 1

g halfedge 1 edge 0
l 1 2

g halfedge 2 edge 1
l 3 2

g halfedge 3 edge 1
l 2 3

g halfedge 4 edge 2
l 3 4

g halfedge 5 edge 2
l 4 3

g halfedge 6 edge 3
l 1 4

g halfedge 7 edge 3
l 4 1

g halfedge 8 edge 4
l 5 6

g halfedge 9 edge 4
l 6 5

g halfedge 10 edge 5
l 6 7

g halfedge 11 edge 5
l 7 6

g halfedge 12 edge 6
l 7 8

g halfedge 13 edge 6
l 8 7

g halfedge 14 edge 7
l 5 8

g halfedge 15 edge 7
l 8 5

g halfedge 16 edge 8
l 8 3

g halfedge 17 edge 8
l 3 8

g halfedge 18 edge 9
l 4 7

g halfedge 19 edge 9
l 7 4

g halfedge 20 edge 10
l 9 10 11 12 13 14 15 16 17 18 19 20 21 22 23 24 25 26 27 28 9

g halfedge 21 edge 10
l 9 28 27 26 25 24 23 22 21 20 19 18 17 16 15 14 13 12 11 10 9

g halfedge 22 edge 11
l 29 30 31 32 33 34 35 36 37 38 39 40 41 42 43 44 45 46 47 48 29

g halfedge 23 edge 11
l 29 48 47 46 45 44 43 42 41 40 39 38 37 36 35 34 33 32 31 30 29

g halfedge 24 edge 12
l 49 50 51 52 53 54 55 56 57 58 59 60 61 62 63 64 65 66 67 68 49

g halfedge 25 edge 12
l 49 68 67 66 65 64 63 62 61 60 59 58 57 56 55 54 53 52 51 50 49

g halfedge 26 edge 13
l 69 70 71 72 73 74 75 76 77 78 79 80 81 82 83 84 85 86 87 88 69

g halfedge 27 edge 13
l 69 88 87 86 85 84 83 82 81 80 79 78 77 76 75 74 73 72 71 70 69

g halfedge 28 edge 14
l 89 90

g halfedge 29 edge 14
l 90 89

g halfedge 30 edge 15
l 91 90

g halfedge 31 edge 15
l 90 91

g halfedge 32 edge 16
l 91 92

g halfedge 33 edge 16
l 92 91

g halfedge 34 edge 17
l 89 92

g halfedge 35 edge 17
l 92 89

g halfedge 36 edge 18
l 6 89

g halfedge 37 edge 18
l 89 6

g halfedge 38 edge 19
l 92 1

g halfedge 39 edge 19
l 1 92

g halfedge 40 edge 20
l 90 5

g halfedge 41 edge 20
l 5 90

g halfedge 42 edge 21
l 2 91

g halfedge 43 edge 21
l 91 2

g vertex 0
p 1

g vertex 1
p 2

g vertex 2
p 3

g vertex 3
p 4

g vertex 4
p 5

g vertex 5
p 6

g vertex 6
p 7

g vertex 7
p 8

g vertex 8
p 9

g vertex 9
p 29

g vertex 10
p 49

g vertex 11
p 69

g vertex 12
p 89

g vertex 13
p 90

g vertex 14
p 91

g vertex 15
p 92

# End of file
